<svg width="1920" height="664" viewBox="0 0 1920 664" fill="none" xmlns="http://www.w3.org/2000/svg">
<g clip-path="url(#clip0_494_230)">
<g filter="url(#filter0_f_494_230)">
<rect x="1747" y="452.954" width="114.007" height="335.504" transform="rotate(-31.1385 1747 452.954)" fill="#F0B3FF" fill-opacity="0.3"/>
</g>
<g filter="url(#filter1_f_494_230)">
<path fill-rule="evenodd" clip-rule="evenodd" d="M46.7108 -38.7696C94.3518 -41.3174 150.414 -74.1082 184.264 -45.0771C218.104 -16.054 178.917 32.4297 177.709 73.5806C176.561 112.654 206.252 156.19 177.467 186.375C148.007 217.269 92.9919 208.434 46.7108 210.954C-4.7417 213.757 -67.0928 234.566 -101.67 201.578C-136.169 168.665 -102.382 117.735 -97.2822 73.5806C-93.0375 36.8281 -106.537 -6.44779 -74.783 -31.2237C-43.4792 -55.6484 4.58238 -36.5167 46.7108 -38.7696Z" fill="#33FFA9" fill-opacity="0.1"/>
</g>
<g filter="url(#filter2_f_494_230)">
<path fill-rule="evenodd" clip-rule="evenodd" d="M1171.07 497.464C1198.44 496.002 1230.66 477.18 1250.11 493.844C1269.55 510.503 1247.03 538.333 1246.34 561.954C1245.68 584.383 1262.74 609.372 1246.2 626.699C1229.27 644.432 1197.66 639.361 1171.07 640.808C1141.5 642.416 1105.68 654.361 1085.81 635.426C1065.99 616.533 1085.4 587.299 1088.33 561.954C1090.77 540.858 1083.01 516.017 1101.26 501.796C1119.25 487.776 1146.86 498.758 1171.07 497.464Z" fill="#33FFA9" fill-opacity="0.1"/>
</g>
</g>
<defs>
<filter id="filter0_f_494_230" x="1547" y="194" width="671.073" height="746.118" filterUnits="userSpaceOnUse" color-interpolation-filters="sRGB">
<feFlood flood-opacity="0" result="BackgroundImageFix"/>
<feBlend mode="normal" in="SourceGraphic" in2="BackgroundImageFix" result="shape"/>
<feGaussianBlur stdDeviation="100" result="effect1_foregroundBlur_494_230"/>
</filter>
<filter id="filter1_f_494_230" x="-317" y="-257" width="715" height="677" filterUnits="userSpaceOnUse" color-interpolation-filters="sRGB">
<feFlood flood-opacity="0" result="BackgroundImageFix"/>
<feBlend mode="normal" in="SourceGraphic" in2="BackgroundImageFix" result="shape"/>
<feGaussianBlur stdDeviation="100" result="effect1_foregroundBlur_494_230"/>
</filter>
<filter id="filter2_f_494_230" x="877" y="287" width="581" height="559" filterUnits="userSpaceOnUse" color-interpolation-filters="sRGB">
<feFlood flood-opacity="0" result="BackgroundImageFix"/>
<feBlend mode="normal" in="SourceGraphic" in2="BackgroundImageFix" result="shape"/>
<feGaussianBlur stdDeviation="100" result="effect1_foregroundBlur_494_230"/>
</filter>
<clipPath id="clip0_494_230">
<rect width="1920" height="664" fill="white"/>
</clipPath>
</defs>
</svg>
