<svg width="49" height="39" viewBox="0 0 49 39" fill="none" xmlns="http://www.w3.org/2000/svg">
<path id="Vector" d="M10.5243 0.797546C7.79326 0.797546 5.77232 3.18794 5.86281 5.78025C5.94975 8.27067 5.83682 11.4964 5.02482 14.1269C4.21038 16.765 2.8328 18.4361 0.582825 18.6508V21.0731C2.8328 21.2878 4.21038 22.9589 5.02482 25.5972C5.83682 28.2277 5.94975 31.4531 5.86281 33.9437C5.77232 36.5356 7.79326 38.9264 10.5247 38.9264H38.5088C41.24 38.9264 43.2604 36.536 43.1699 33.9437C43.0832 31.4533 43.1959 28.2277 44.0079 25.5972C44.8229 22.9591 46.1968 21.2876 48.4467 21.0731V18.6508C46.1968 18.4361 44.8229 16.765 44.0081 14.1269C43.1959 11.4968 43.0832 8.27086 43.1699 5.78025C43.2604 3.18831 41.24 0.797546 38.5088 0.797546H10.5239H10.5243ZM33.0331 24.2682C33.0331 27.8378 30.3706 30.0026 25.9522 30.0026H18.4305C18.2153 30.0025 18.009 29.917 17.8569 29.7649C17.7048 29.6128 17.6194 29.4064 17.6194 29.1913V10.5326C17.6194 10.4261 17.6403 10.3206 17.6811 10.2221C17.7218 10.1237 17.7816 10.0342 17.8569 9.95885C17.9323 9.8835 18.0217 9.82373 18.1201 9.78294C18.2186 9.74216 18.3241 9.72117 18.4306 9.72117H25.9092C29.5934 9.72117 32.0113 11.7171 32.0113 14.7811C32.0113 16.9318 30.3846 18.8572 28.3125 19.1943V19.3067C31.1336 19.6161 33.0331 21.5697 33.0331 24.2682ZM25.1318 12.2929H20.8433V18.3507H24.4555C27.2477 18.3507 28.7876 17.2263 28.7876 15.2164C28.7876 13.333 27.4633 12.2929 25.1318 12.2929ZM20.8433 20.7544V27.4301H25.2898C28.1967 27.4301 29.737 26.2636 29.737 24.0712C29.737 21.8784 28.1539 20.754 25.1028 20.754H20.8433V20.7544Z" fill="#7E13F8"/>
</svg>
