<svg width="35" height="39" viewBox="0 0 35 39" fill="none" xmlns="http://www.w3.org/2000/svg">
<g id="Group 32">
<path id="Vector" d="M3.57486 35.1146L0.51535 0.797546H34.1353L31.0727 35.1095L17.3049 38.9264L3.57486 35.1146Z" fill="#1572B6"/>
<path id="Vector_2" d="M17.3256 36.009L28.4507 32.9245L31.0681 3.60327H17.3256V36.009Z" fill="#33A9DC"/>
<path id="Vector_3" d="M17.3256 16.0364H22.895L23.2796 11.7265H17.3256V7.51758H27.8796L27.7785 8.64686L26.7439 20.2452H17.3256V16.0364Z" fill="white"/>
<path id="Vector_4" d="M17.3505 26.9671L17.3319 26.9726L12.6447 25.707L12.3449 22.3502H8.12051L8.70996 28.9588L17.3313 31.3516L17.3505 31.3461V26.9671Z" fill="#EBEBEB"/>
<path id="Vector_5" d="M22.5371 20.0672L22.0301 25.7036L17.3359 26.9707V31.3497L25.9642 28.9585L26.0275 28.2473L26.7597 20.0672H22.5371Z" fill="white"/>
<path id="Vector_6" d="M17.3399 7.51758V11.7265H7.17356L7.08927 10.7807L6.89755 8.64686L6.79683 7.51758H17.3399ZM17.3256 16.037V20.2459H12.6974L12.6131 19.3001L12.421 17.1663L12.3206 16.037H17.3256Z" fill="#EBEBEB"/>
</g>
</svg>
