<svg width="254" height="200" viewBox="0 0 254 200" fill="none" xmlns="http://www.w3.org/2000/svg">
<g clip-path="url(#clip0_689_65)">
<path d="M153.067 88.2386H94.984C93.3747 88.2368 91.8318 87.5967 90.6939 86.4587C89.5559 85.3208 88.9159 83.7779 88.9141 82.1686V6.36307C88.9159 4.7538 89.556 3.21096 90.6939 2.07303C91.8319 0.935108 93.3747 0.295026 94.984 0.293213H153.067C154.676 0.295027 156.219 0.935108 157.357 2.07303C158.495 3.21096 159.135 4.7538 159.137 6.36307V82.1686C159.135 83.7779 158.495 85.3208 157.357 86.4587C156.219 87.5967 154.676 88.2368 153.067 88.2386Z" fill="#F0F0F0"/>
<path d="M153.067 88.5315H94.9836C93.2966 88.5296 91.6793 87.8586 90.4864 86.6657C89.2935 85.4728 88.6225 83.8554 88.6206 82.1684V6.36301C88.6225 4.67603 89.2935 3.05869 90.4864 1.86582C91.6793 0.672937 93.2966 0.00192961 94.9836 0H153.067C154.754 0.00190012 156.371 0.672892 157.564 1.86577C158.757 3.05865 159.428 4.67601 159.43 6.36301V82.1684C159.428 83.8554 158.757 85.4728 157.564 86.6657C156.371 87.8586 154.754 88.5296 153.067 88.5315ZM94.9836 0.586302C93.4521 0.588028 91.9837 1.1972 90.9008 2.28017C89.8178 3.36314 89.2086 4.83146 89.2069 6.36301V82.1684C89.2086 83.6999 89.8178 85.1683 90.9007 86.2513C91.9837 87.3343 93.452 87.9435 94.9836 87.9452H153.067C154.598 87.9435 156.067 87.3343 157.15 86.2513C158.233 85.1683 158.842 83.7 158.843 82.1684V6.36301C158.842 4.83144 158.233 3.3631 157.15 2.28013C156.067 1.19716 154.598 0.588001 153.067 0.586302H94.9836Z" fill="#46CC8F"/>
<path d="M247.427 88.2386H189.344C187.735 88.2368 186.192 87.5967 185.054 86.4587C183.916 85.3208 183.276 83.7779 183.274 82.1686V6.36307C183.276 4.7538 183.916 3.21096 185.054 2.07303C186.192 0.935108 187.735 0.295026 189.344 0.293213H247.427C249.036 0.295026 250.579 0.935108 251.717 2.07303C252.855 3.21096 253.495 4.7538 253.497 6.36307V82.1686C253.495 83.7779 252.855 85.3208 251.717 86.4587C250.579 87.5967 249.036 88.2368 247.427 88.2386Z" fill="#F0F0F0"/>
<path d="M122.998 97.6204C128.795 97.6204 133.496 92.9202 133.496 87.1223C133.496 81.3244 128.795 76.6243 122.998 76.6243C117.2 76.6243 112.5 81.3244 112.5 87.1223C112.5 92.9202 117.2 97.6204 122.998 97.6204Z" fill="#46CC8F"/>
<path d="M121.565 92.586C121.384 92.586 121.205 92.5438 121.043 92.4627C120.881 92.3816 120.74 92.2639 120.631 92.1188L117.767 88.3001C117.675 88.1774 117.608 88.0378 117.57 87.8892C117.532 87.7407 117.524 87.5861 117.545 87.4343C117.567 87.2825 117.619 87.1364 117.697 87.0045C117.775 86.8725 117.878 86.7572 118.001 86.6652C118.123 86.5732 118.263 86.5063 118.412 86.4682C118.56 86.4302 118.715 86.4218 118.867 86.4435C119.018 86.4651 119.164 86.5165 119.296 86.5947C119.428 86.6728 119.544 86.7762 119.636 86.8988L121.509 89.397L126.322 82.1784C126.494 81.9217 126.761 81.7438 127.064 81.6837C127.367 81.6236 127.682 81.6861 127.939 81.8575C128.196 82.029 128.375 82.2954 128.436 82.5984C128.497 82.9013 128.436 83.2162 128.265 83.4739L122.537 92.066C122.433 92.2214 122.294 92.3497 122.131 92.4401C121.967 92.5305 121.785 92.5804 121.598 92.5857C121.587 92.5858 121.576 92.586 121.565 92.586Z" fill="white"/>
<path d="M113.889 128.779H2.49179C1.83116 128.778 1.1978 128.515 0.730668 128.048C0.263533 127.581 0.000761901 126.948 0 126.287V25.443C0.000737123 24.7823 0.263501 24.149 0.730642 23.6818C1.19778 23.2147 1.83115 22.9519 2.49179 22.9512H113.889C114.55 22.9519 115.183 23.2147 115.65 23.6818C116.118 24.1489 116.38 24.7823 116.381 25.443V126.287C116.38 126.948 116.118 127.581 115.65 128.048C115.183 128.515 114.55 128.778 113.889 128.779Z" fill="#3F3D56"/>
<path d="M111.544 126.434H4.837C4.17637 126.433 3.54302 126.17 3.07588 125.703C2.60875 125.236 2.34598 124.602 2.34521 123.942V27.7882C2.34595 27.1275 2.60872 26.4942 3.07586 26.027C3.543 25.5599 4.17636 25.2971 4.837 25.2964H111.544C112.205 25.2971 112.838 25.5599 113.305 26.027C113.772 26.4942 114.035 27.1275 114.036 27.7882V123.942C114.035 124.602 113.772 125.236 113.305 125.703C112.838 126.17 112.205 126.433 111.544 126.434Z" fill="white"/>
<path d="M10.2586 35.7425C22.8164 35.5242 35.3756 35.4928 47.9361 35.6484C60.4948 35.805 73.0492 36.1493 85.5995 36.6815C92.642 36.9802 99.6816 37.338 106.718 37.7549C107.284 37.7884 107.282 36.9088 106.718 36.8754C94.1806 36.1335 81.6337 35.5784 69.0776 35.21C56.5233 34.8426 43.9654 34.6631 31.4039 34.6714C24.3551 34.6761 17.3067 34.74 10.2586 34.8631C9.69333 34.8729 9.69155 35.7524 10.2586 35.7425Z" fill="#3F3D56"/>
<path d="M97.7745 30.2281L103.266 29.8194C103.827 29.7776 103.831 28.8979 103.266 28.9399L97.7745 29.3486C97.2135 29.3904 97.209 30.2702 97.7745 30.2281Z" fill="#3F3D56"/>
<path d="M97.7745 35.5047L103.266 35.096C103.827 35.0543 103.831 34.1745 103.266 34.2166L97.7745 34.6252C97.2135 34.667 97.209 35.5468 97.7745 35.5047Z" fill="#3F3D56"/>
<path d="M97.3612 33.095L105.168 33.8043C105.732 33.8555 105.728 32.9757 105.168 32.9248L97.3612 32.2155C96.7978 32.1643 96.8013 33.0441 97.3612 33.095Z" fill="#3F3D56"/>
<path d="M13.508 29.0452C13.1261 29.0428 12.752 29.1529 12.4323 29.3617C12.1126 29.5705 11.8614 29.8688 11.7101 30.2194C11.5408 30.5626 11.4885 30.9517 11.5613 31.3274C11.634 31.703 11.8278 32.0445 12.113 32.2996C12.3811 32.5277 12.7027 32.6841 13.0477 32.7542C13.3926 32.8242 13.7497 32.8057 14.0856 32.7003C14.4291 32.5804 14.7269 32.3569 14.9381 32.0606C15.1494 31.7644 15.2636 31.41 15.265 31.0462C15.2804 30.6425 15.171 30.2439 14.9519 29.9046C14.7327 29.5653 14.4143 29.3018 14.0401 29.1498C13.9277 29.1192 13.8077 29.1344 13.7064 29.1919C13.605 29.2494 13.5306 29.3447 13.4992 29.4569C13.4714 29.5692 13.4878 29.6879 13.545 29.7885C13.6021 29.8892 13.6956 29.9641 13.8063 29.9978C13.8829 30.0274 13.7363 29.9601 13.8078 29.9991C13.8373 30.0151 13.8672 30.0296 13.8961 30.0467C13.9207 30.0613 13.9442 30.0772 13.9681 30.0928C14.0502 30.1464 13.928 30.0535 13.9805 30.1016C14.026 30.1434 14.0711 30.1842 14.1124 30.2302C14.1281 30.2477 14.1893 30.2961 14.1417 30.2623C14.1053 30.2363 14.1277 30.2424 14.1417 30.2632C14.1524 30.279 14.1636 30.2944 14.1742 30.3103C14.2084 30.3622 14.2396 30.416 14.2675 30.4716C14.274 30.4845 14.2799 30.4976 14.2864 30.5104C14.2988 30.5344 14.3166 30.5407 14.2877 30.5107C14.26 30.482 14.2776 30.4839 14.2875 30.5115C14.294 30.5297 14.3011 30.5476 14.3074 30.5658C14.3281 30.6252 14.3454 30.6856 14.3593 30.7468C14.3657 30.7751 14.3709 30.8036 14.3764 30.8321C14.3961 30.933 14.3736 30.7693 14.3783 30.8443C14.3823 30.9069 14.3869 30.9689 14.3858 31.0318C14.3853 31.0605 14.3841 31.0893 14.3821 31.118C14.3811 31.1323 14.3795 31.1466 14.3785 31.1609C14.374 31.2299 14.3738 31.1357 14.3835 31.1292C14.3634 31.1878 14.35 31.2485 14.3437 31.3101C14.3359 31.3374 14.3265 31.3642 14.3177 31.3912C14.2872 31.4856 14.3465 31.3398 14.3139 31.4043C14.287 31.4597 14.257 31.5135 14.224 31.5654C14.2097 31.5872 14.1557 31.6363 14.1998 31.6021C14.2478 31.565 14.1747 31.6289 14.1591 31.6454C14.1391 31.6665 14.1183 31.6869 14.0968 31.7065C14.083 31.72 14.0684 31.7327 14.0532 31.7444C14.0504 31.743 14.1266 31.6935 14.0855 31.7197C14.0333 31.7531 13.9838 31.7887 13.9287 31.8177C13.9223 31.8211 13.8519 31.8537 13.8522 31.8549C13.8492 31.843 13.9427 31.8219 13.8785 31.8427C13.865 31.847 13.8518 31.8523 13.8383 31.8568C13.7799 31.8765 13.7202 31.8924 13.6597 31.9044C13.6459 31.9072 13.6312 31.9086 13.6176 31.9121C13.5721 31.9238 13.661 31.9052 13.6637 31.9067C13.6301 31.9053 13.5964 31.9083 13.5636 31.9156C13.5012 31.9192 13.4387 31.9192 13.3763 31.9156C13.3619 31.9147 13.3474 31.9133 13.333 31.9125C13.2995 31.9105 13.2749 31.8864 13.3195 31.9126C13.3539 31.9328 13.351 31.9181 13.3206 31.9124C13.3063 31.9098 13.292 31.9076 13.2777 31.9049C13.216 31.8933 13.1549 31.8784 13.0948 31.8601C13.0625 31.8502 13.0308 31.8388 12.9989 31.8276C12.985 31.8236 12.9714 31.8184 12.9584 31.8121C12.9582 31.8084 13.0407 31.8514 12.9971 31.828C12.9422 31.7984 12.8854 31.7736 12.8318 31.7412C12.8032 31.7239 12.7757 31.7052 12.7478 31.6867C12.7356 31.6793 12.724 31.671 12.713 31.6618C12.714 31.658 12.7812 31.7204 12.7459 31.6867C12.7013 31.6442 12.6535 31.6061 12.6112 31.5608C12.6015 31.5504 12.5924 31.5396 12.5828 31.5292L12.5734 31.5185C12.5496 31.4894 12.5491 31.4895 12.5721 31.5189C12.5954 31.5258 12.5943 31.5514 12.5722 31.5182C12.5643 31.5063 12.556 31.4948 12.5481 31.483C12.5124 31.4321 12.4819 31.3777 12.4572 31.3207C12.4594 31.319 12.4953 31.4265 12.4678 31.3454C12.4626 31.33 12.4568 31.315 12.4517 31.2996C12.4416 31.2691 12.4327 31.2383 12.425 31.2072C12.4174 31.1763 12.4135 31.1445 12.4058 31.1138C12.3929 31.062 12.4134 31.1547 12.4111 31.1523C12.4037 31.1451 12.4068 31.1002 12.4063 31.0894C12.4028 31.0204 12.4106 30.9535 12.4119 30.8849C12.4128 30.8318 12.4075 30.9263 12.4064 30.9235C12.4066 30.9076 12.4094 30.8918 12.4147 30.8768C12.4227 30.8406 12.4301 30.8045 12.4398 30.7687C12.451 30.7278 12.4638 30.6873 12.4784 30.6474C12.4838 30.6324 12.4904 30.6177 12.4955 30.6026C12.514 30.5474 12.4588 30.6693 12.4892 30.6195C12.5311 30.551 12.5622 30.4769 12.6066 30.4092C12.6172 30.3932 12.6812 30.3038 12.6472 30.349C12.6134 30.3939 12.6819 30.3087 12.6949 30.2943C12.7489 30.2342 12.8123 30.1849 12.8681 30.1274C12.9012 30.0933 12.8451 30.1442 12.8418 30.1465C12.8591 30.1342 12.876 30.1213 12.8935 30.1093C12.924 30.0882 12.9553 30.0683 12.9873 30.0496C13.0234 30.0284 13.0642 30.0127 13.0992 29.9903C13.1405 29.9639 13.0676 30.0019 13.0663 30.0027C13.0851 29.9934 13.1049 29.9858 13.1252 29.9803C13.1592 29.9682 13.3073 29.9043 13.3384 29.9243C13.337 29.9234 13.2259 29.9332 13.3157 29.9274C13.3369 29.9261 13.358 29.924 13.3793 29.9231C13.4222 29.9214 13.4651 29.9224 13.508 29.9247C13.6244 29.9239 13.7358 29.8773 13.8181 29.795C13.9004 29.7127 13.947 29.6013 13.9477 29.4849C13.9452 29.3691 13.8981 29.2587 13.8162 29.1767C13.7342 29.0948 13.6238 29.0477 13.508 29.0452Z" fill="#3F3D56"/>
<path d="M19.6643 29.0452C19.2824 29.0428 18.9083 29.1529 18.5886 29.3617C18.2688 29.5705 18.0177 29.8688 17.8663 30.2194C17.697 30.5626 17.6447 30.9517 17.7175 31.3274C17.7903 31.703 17.9841 32.0445 18.2693 32.2996C18.5374 32.5277 18.859 32.6841 19.2039 32.7542C19.5489 32.8242 19.906 32.8057 20.2418 32.7003C20.5853 32.5804 20.8832 32.3569 21.0944 32.0606C21.3056 31.7644 21.4198 31.41 21.4213 31.0462C21.4366 30.6425 21.3273 30.2439 21.1081 29.9046C20.8889 29.5653 20.5706 29.3018 20.1963 29.1498C20.0839 29.1192 19.9639 29.1344 19.8626 29.1919C19.7613 29.2494 19.6868 29.3447 19.6554 29.4569C19.6277 29.5692 19.6441 29.6879 19.7012 29.7885C19.7583 29.8892 19.8519 29.9641 19.9625 29.9978C20.0392 30.0274 19.8925 29.9601 19.9641 29.9991C19.9935 30.0151 20.0235 30.0296 20.0524 30.0467C20.077 30.0613 20.1005 30.0772 20.1244 30.0928C20.2064 30.1464 20.0843 30.0535 20.1368 30.1016C20.1823 30.1434 20.2273 30.1842 20.2687 30.2302C20.2843 30.2477 20.3456 30.2961 20.298 30.2623C20.2616 30.2363 20.2839 30.2424 20.298 30.2632C20.3086 30.279 20.3199 30.2944 20.3304 30.3103C20.3647 30.3622 20.3959 30.416 20.4237 30.4716C20.4302 30.4845 20.4361 30.4976 20.4427 30.5104C20.455 30.5344 20.4729 30.5407 20.4439 30.5107C20.4162 30.482 20.4339 30.4839 20.4437 30.5115C20.4503 30.5297 20.4574 30.5476 20.4637 30.5658C20.4843 30.6252 20.5016 30.6856 20.5155 30.7468C20.522 30.7751 20.5272 30.8036 20.5327 30.8321C20.5523 30.933 20.5298 30.7693 20.5346 30.8443C20.5385 30.9069 20.5432 30.9689 20.5421 31.0318C20.5416 31.0605 20.5403 31.0893 20.5383 31.118C20.5373 31.1323 20.5357 31.1466 20.5348 31.1609C20.5302 31.2299 20.5301 31.1357 20.5397 31.1292C20.5196 31.1878 20.5063 31.2485 20.5 31.3101C20.4921 31.3374 20.4828 31.3642 20.474 31.3912C20.4434 31.4856 20.5027 31.3398 20.4701 31.4043C20.4433 31.4597 20.4133 31.5135 20.3803 31.5654C20.3659 31.5872 20.3119 31.6363 20.3561 31.6021C20.404 31.565 20.331 31.6289 20.3154 31.6454C20.2953 31.6665 20.2746 31.6869 20.253 31.7065C20.2392 31.72 20.2247 31.7327 20.2094 31.7444C20.2066 31.743 20.2829 31.6935 20.2418 31.7197C20.1895 31.7531 20.14 31.7887 20.085 31.8177C20.0786 31.8211 20.0082 31.8537 20.0085 31.8549C20.0054 31.843 20.099 31.8219 20.0347 31.8427C20.0213 31.847 20.008 31.8523 19.9946 31.8568C19.9361 31.8765 19.8765 31.8924 19.816 31.9044C19.8021 31.9072 19.7875 31.9086 19.7738 31.9121C19.7284 31.9238 19.8173 31.9052 19.8199 31.9067C19.7863 31.9053 19.7527 31.9083 19.7199 31.9156C19.6575 31.9192 19.5949 31.9192 19.5325 31.9156C19.5181 31.9147 19.5037 31.9133 19.4893 31.9125C19.4558 31.9105 19.4312 31.8864 19.4758 31.9126C19.5102 31.9328 19.5073 31.9181 19.4768 31.9124C19.4626 31.9098 19.4482 31.9076 19.434 31.9049C19.3722 31.8933 19.3112 31.8784 19.2511 31.8601C19.2187 31.8502 19.187 31.8388 19.1551 31.8276C19.1412 31.8236 19.1277 31.8184 19.1147 31.8121C19.1145 31.8084 19.1969 31.8514 19.1534 31.828C19.0985 31.7984 19.0417 31.7736 18.988 31.7412C18.9594 31.7239 18.9319 31.7052 18.9041 31.6867C18.8918 31.6793 18.8802 31.671 18.8693 31.6618C18.8702 31.658 18.9375 31.7204 18.9022 31.6867C18.8575 31.6442 18.8097 31.6061 18.7675 31.5608C18.7578 31.5504 18.7486 31.5396 18.739 31.5292L18.7297 31.5185C18.7058 31.4894 18.7054 31.4895 18.7283 31.5189C18.7516 31.5258 18.7506 31.5514 18.7285 31.5182C18.7206 31.5063 18.7122 31.4948 18.7044 31.483C18.6686 31.4321 18.6382 31.3777 18.6135 31.3207C18.6156 31.319 18.6516 31.4265 18.6241 31.3454C18.6189 31.33 18.613 31.315 18.6079 31.2996C18.5978 31.2691 18.5889 31.2383 18.5813 31.2072C18.5737 31.1763 18.5698 31.1445 18.5621 31.1138C18.5492 31.062 18.5696 31.1547 18.5673 31.1523C18.56 31.1451 18.5631 31.1002 18.5625 31.0894C18.559 31.0204 18.5669 30.9535 18.5681 30.8849C18.5691 30.8318 18.5637 30.9263 18.5626 30.9235C18.5629 30.9076 18.5657 30.8918 18.571 30.8768C18.5789 30.8406 18.5863 30.8045 18.5961 30.7687C18.6072 30.7278 18.6201 30.6873 18.6346 30.6474C18.64 30.6324 18.6467 30.6177 18.6517 30.6026C18.6702 30.5474 18.6151 30.6693 18.6455 30.6195C18.6873 30.551 18.7185 30.4769 18.7629 30.4092C18.7734 30.3932 18.8374 30.3038 18.8034 30.349C18.7696 30.3939 18.8382 30.3087 18.8512 30.2943C18.9051 30.2342 18.9686 30.1849 19.0244 30.1274C19.0575 30.0933 19.0013 30.1442 18.998 30.1465C19.0153 30.1342 19.0322 30.1213 19.0497 30.1093C19.0803 30.0882 19.1116 30.0683 19.1436 30.0496C19.1797 30.0284 19.2205 30.0127 19.2554 29.9903C19.2967 29.9639 19.2238 30.0019 19.2225 30.0027C19.2414 29.9934 19.2611 29.9858 19.2814 29.9803C19.3155 29.9682 19.4636 29.9043 19.4946 29.9243C19.4932 29.9234 19.3822 29.9332 19.4719 29.9274C19.4932 29.9261 19.5143 29.924 19.5355 29.9231C19.5785 29.9214 19.6213 29.9224 19.6643 29.9247C19.7806 29.9239 19.892 29.8773 19.9743 29.795C20.0566 29.7127 20.1032 29.6013 20.104 29.4849C20.1015 29.3691 20.0544 29.2587 19.9724 29.1767C19.8905 29.0948 19.7801 29.0477 19.6643 29.0452Z" fill="#3F3D56"/>
<path d="M25.8205 29.0452C25.4386 29.0428 25.0645 29.1529 24.7448 29.3617C24.4251 29.5705 24.1739 29.8688 24.0226 30.2194C23.8533 30.5626 23.801 30.9517 23.8738 31.3274C23.9465 31.703 24.1403 32.0445 24.4255 32.2996C24.6936 32.5277 25.0152 32.6841 25.3602 32.7542C25.7051 32.8242 26.0622 32.8057 26.3981 32.7003C26.7416 32.5804 27.0394 32.3569 27.2506 32.0606C27.4619 31.7644 27.5761 31.41 27.5775 31.0462C27.5929 30.6425 27.4835 30.2439 27.2644 29.9046C27.0452 29.5653 26.7268 29.3018 26.3526 29.1498C26.2401 29.1192 26.1202 29.1344 26.0189 29.1919C25.9175 29.2494 25.8431 29.3447 25.8117 29.4569C25.7839 29.5692 25.8003 29.6879 25.8575 29.7885C25.9146 29.8892 26.0081 29.9641 26.1188 29.9978C26.1954 30.0274 26.0488 29.9601 26.1204 29.9991C26.1498 30.0151 26.1797 30.0296 26.2086 30.0467C26.2332 30.0613 26.2567 30.0772 26.2806 30.0928C26.3627 30.1464 26.2405 30.0535 26.293 30.1016C26.3385 30.1434 26.3836 30.1842 26.4249 30.2302C26.4406 30.2477 26.5018 30.2961 26.4542 30.2623C26.4178 30.2363 26.4402 30.2424 26.4542 30.2632C26.4649 30.279 26.4761 30.2944 26.4866 30.3103C26.5209 30.3622 26.5521 30.416 26.58 30.4716C26.5865 30.4845 26.5924 30.4976 26.5989 30.5104C26.6112 30.5344 26.6291 30.5407 26.6001 30.5107C26.5725 30.482 26.5901 30.4839 26.6 30.5115C26.6065 30.5297 26.6136 30.5476 26.6199 30.5658C26.6405 30.6252 26.6579 30.6856 26.6718 30.7468C26.6782 30.7751 26.6834 30.8036 26.6889 30.8321C26.7086 30.933 26.6861 30.7693 26.6908 30.8443C26.6948 30.9069 26.6994 30.9689 26.6983 31.0318C26.6978 31.0605 26.6966 31.0893 26.6946 31.118C26.6935 31.1323 26.692 31.1466 26.691 31.1609C26.6864 31.2299 26.6863 31.1357 26.696 31.1292C26.6759 31.1878 26.6625 31.2485 26.6562 31.3101C26.6483 31.3374 26.639 31.3642 26.6302 31.3912C26.5996 31.4856 26.659 31.3398 26.6263 31.4043C26.5995 31.4597 26.5695 31.5135 26.5365 31.5654C26.5222 31.5872 26.4682 31.6363 26.5123 31.6021C26.5603 31.565 26.4872 31.6289 26.4716 31.6454C26.4516 31.6665 26.4308 31.6869 26.4092 31.7065C26.3955 31.72 26.3809 31.7327 26.3656 31.7444C26.3628 31.743 26.4391 31.6935 26.398 31.7197C26.3457 31.7531 26.2963 31.7887 26.2412 31.8177C26.2348 31.8211 26.1644 31.8537 26.1647 31.8549C26.1617 31.843 26.2552 31.8219 26.191 31.8427C26.1775 31.847 26.1643 31.8523 26.1508 31.8568C26.0924 31.8765 26.0327 31.8924 25.9722 31.9044C25.9584 31.9072 25.9437 31.9086 25.93 31.9121C25.8846 31.9238 25.9735 31.9052 25.9762 31.9067C25.9426 31.9053 25.9089 31.9083 25.8761 31.9156C25.8137 31.9192 25.7512 31.9192 25.6888 31.9156C25.6743 31.9147 25.6599 31.9133 25.6455 31.9125C25.612 31.9105 25.5874 31.8864 25.632 31.9126C25.6664 31.9328 25.6635 31.9181 25.6331 31.9124C25.6188 31.9098 25.6045 31.9076 25.5902 31.9049C25.5285 31.8933 25.4674 31.8784 25.4073 31.8601C25.375 31.8502 25.3433 31.8388 25.3114 31.8276C25.2975 31.8236 25.2839 31.8184 25.2709 31.8121C25.2707 31.8084 25.3531 31.8514 25.3096 31.828C25.2547 31.7984 25.1979 31.7736 25.1443 31.7412C25.1156 31.7239 25.0881 31.7052 25.0603 31.6867C25.0481 31.6793 25.0364 31.671 25.0255 31.6618C25.0264 31.658 25.0937 31.7204 25.0584 31.6867C25.0137 31.6442 24.966 31.6061 24.9237 31.5608C24.914 31.5504 24.9049 31.5396 24.8952 31.5292L24.8859 31.5185C24.8621 31.4894 24.8616 31.4895 24.8846 31.5189C24.9079 31.5258 24.9068 31.5514 24.8847 31.5182C24.8768 31.5063 24.8685 31.4948 24.8606 31.483C24.8249 31.4321 24.7944 31.3777 24.7697 31.3207C24.7718 31.319 24.8078 31.4265 24.7803 31.3454C24.7751 31.33 24.7693 31.315 24.7642 31.2996C24.7541 31.2691 24.7452 31.2383 24.7375 31.2072C24.7299 31.1763 24.726 31.1445 24.7183 31.1138C24.7054 31.062 24.7259 31.1547 24.7235 31.1523C24.7162 31.1451 24.7193 31.1002 24.7188 31.0894C24.7153 31.0204 24.7231 30.9535 24.7244 30.8849C24.7253 30.8318 24.72 30.9263 24.7189 30.9235C24.7191 30.9076 24.7219 30.8918 24.7272 30.8768C24.7352 30.8406 24.7426 30.8045 24.7523 30.7687C24.7635 30.7278 24.7763 30.6873 24.7908 30.6474C24.7963 30.6324 24.8029 30.6177 24.808 30.6026C24.8265 30.5474 24.7713 30.6693 24.8017 30.6195C24.8436 30.551 24.8747 30.4769 24.9191 30.4092C24.9297 30.3932 24.9937 30.3038 24.9597 30.349C24.9259 30.3939 24.9944 30.3087 25.0074 30.2943C25.0614 30.2342 25.1248 30.1849 25.1806 30.1274C25.2137 30.0933 25.1576 30.1442 25.1543 30.1465C25.1716 30.1342 25.1885 30.1213 25.206 30.1093C25.2365 30.0882 25.2678 30.0683 25.2998 30.0496C25.3359 30.0284 25.3767 30.0127 25.4117 29.9903C25.453 29.9639 25.3801 30.0019 25.3788 30.0027C25.3976 29.9934 25.4174 29.9858 25.4377 29.9803C25.4717 29.9682 25.6198 29.9043 25.6509 29.9243C25.6495 29.9234 25.5384 29.9332 25.6282 29.9274C25.6494 29.9261 25.6705 29.924 25.6918 29.9231C25.7347 29.9214 25.7776 29.9224 25.8205 29.9247C25.9369 29.9239 26.0483 29.8773 26.1306 29.795C26.2129 29.7127 26.2595 29.6013 26.2602 29.4849C26.2577 29.3691 26.2106 29.2587 26.1287 29.1767C26.0468 29.0948 25.9363 29.0477 25.8205 29.0452Z" fill="#3F3D56"/>
<path d="M12.9729 52.1404L13.365 67.1511L13.7572 82.1618C13.8066 84.0559 13.5391 86.6393 15.4603 87.7488C16.2617 88.2116 17.2199 88.313 18.1282 88.3383C19.3339 88.3718 20.5435 88.3469 21.7497 88.3482L36.7737 88.3643C38.7477 88.3664 40.9158 88.3088 42.3301 86.7189C43.5107 85.3917 43.8452 83.5519 43.9636 81.8352C44.1198 79.5694 44.0448 77.2754 44.0651 75.0052L44.1326 67.4614L44.2 59.9175C44.2205 57.6257 44.3288 55.3153 44.2283 53.025C44.1517 51.2775 43.8562 49.4114 42.6846 48.0381C41.35 46.4737 39.2396 46.2625 37.3148 46.2009C32.3367 46.0416 27.3578 45.907 22.3794 45.7602C21.234 45.7264 20.0854 45.6649 18.9394 45.6801C17.9202 45.6604 16.9053 45.8158 15.9388 46.1397C14.3292 46.7423 13.0718 48.1879 13.1278 49.9808C13.1314 50.3563 13.2143 50.7268 13.371 51.0681C13.5277 51.4094 13.7548 51.7137 14.0372 51.9612C14.4668 52.3246 15.092 51.7055 14.6591 51.3393C13.4858 50.3468 14.054 48.487 15.0797 47.6061C16.5657 46.3298 18.8953 46.5369 20.7073 46.5903L34.8103 47.0063C35.904 47.0385 37.0008 47.0494 38.0932 47.1137C39.0684 47.1711 40.087 47.2978 40.9598 47.7674C42.4691 48.5794 43.0582 50.2456 43.2565 51.8571C43.506 53.8846 43.3558 55.9767 43.3376 58.0133L43.2734 65.1909L43.1463 79.3997C43.1309 81.1279 43.1576 82.9117 42.5761 84.5641C42.3262 85.3307 41.8685 86.0129 41.2541 86.5349C40.4824 87.095 39.5603 87.4103 38.6073 87.4399C37.5369 87.5263 36.4541 87.4845 35.3812 87.4833L31.7168 87.4794L24.6812 87.4719L21.0168 87.468C19.9461 87.4668 18.8676 87.5044 17.7981 87.4456C16.9774 87.4004 16.0615 87.2585 15.4567 86.648C14.7793 85.9641 14.7165 84.9079 14.6854 84.0009C14.3616 74.5557 14.1909 65.1027 13.9441 55.6551L13.8523 52.1404C13.8375 51.5756 12.958 51.5734 12.9729 52.1404Z" fill="#3F3D56"/>
<path d="M68.6716 52.1404L69.0637 67.1511L69.4559 82.1618C69.5054 84.0559 69.2378 86.6393 71.159 87.7488C71.9604 88.2116 72.9186 88.313 73.8269 88.3383C75.0327 88.3718 76.2423 88.3469 77.4484 88.3482L92.4724 88.3643C94.4464 88.3664 96.6146 88.3088 98.0289 86.7189C99.2094 85.3917 99.5439 83.5519 99.6623 81.8352C99.8185 79.5694 99.7435 77.2754 99.7638 75.0052L99.8313 67.4614L99.8987 59.9175C99.9192 57.6257 100.028 55.3153 99.9271 53.025C99.8504 51.2775 99.555 49.4114 98.3834 48.0381C97.0487 46.4737 94.9383 46.2625 93.0135 46.2009C88.0355 46.0416 83.0565 45.907 78.0781 45.7602C76.9328 45.7264 75.7841 45.6649 74.6381 45.6801C73.619 45.6604 72.604 45.8158 71.6375 46.1397C70.0279 46.7423 68.7705 48.1879 68.8265 49.9808C68.8301 50.3563 68.913 50.7268 69.0697 51.0681C69.2264 51.4094 69.4535 51.7137 69.736 51.9612C70.1656 52.3246 70.7907 51.7055 70.3578 51.3393C69.1846 50.3468 69.7528 48.487 70.7784 47.6061C72.2644 46.3298 74.594 46.5369 76.4061 46.5903L90.509 47.0063C91.6027 47.0385 92.6995 47.0494 93.7919 47.1137C94.7671 47.1711 95.7857 47.2978 96.6585 47.7674C98.1678 48.5794 98.7569 50.2456 98.9552 51.8571C99.2047 53.8846 99.0545 55.9767 99.0363 58.0133L98.9721 65.1909L98.8451 79.3997C98.8296 81.1279 98.8563 82.9117 98.2748 84.5641C98.0249 85.3307 97.5673 86.0129 96.9528 86.5349C96.1812 87.095 95.2591 87.4103 94.3061 87.4399C93.2356 87.5263 92.1529 87.4845 91.08 87.4833L87.4156 87.4794L80.3799 87.4719L76.7156 87.468C75.6448 87.4668 74.5663 87.5044 73.4969 87.4456C72.6761 87.4004 71.7602 87.2585 71.1555 86.648C70.4781 85.9641 70.4152 84.9079 70.3841 84.0009C70.0603 74.5557 69.8897 65.1027 69.6428 55.6551L69.551 52.1404C69.5363 51.5756 68.6568 51.5734 68.6716 52.1404Z" fill="#3F3D56"/>
<path d="M28.1529 91.6137C27.8455 91.3178 27.4671 91.106 27.0541 90.9986C26.6412 90.8912 26.2075 90.8918 25.7949 91.0003C25.3849 91.1128 25.0049 91.3148 24.6823 91.5917C24.3597 91.8686 24.1026 92.2137 23.9294 92.602C23.0985 94.3715 23.8429 96.434 24.9909 97.879C26.0577 99.2218 27.7909 100.107 29.4793 99.4018C30.2485 99.0721 30.8949 98.5093 31.3271 97.7926C31.7593 97.076 31.9557 96.2417 31.8884 95.4075C31.6756 93.4427 30.0789 91.8514 28.2039 91.3715C27.6554 91.2311 27.4213 92.0791 27.9701 92.2196C28.6219 92.3775 29.2252 92.6922 29.7277 93.1364C30.2301 93.5805 30.6164 94.1407 30.853 94.7682C31.0606 95.3821 31.0695 96.0458 30.8786 96.6651C30.6877 97.2844 30.3066 97.8278 29.7894 98.2182C27.1688 100.231 24.1713 96.383 24.4651 93.8655C24.4965 93.4941 24.6129 93.1348 24.8053 92.8155C24.9977 92.4963 25.2609 92.2256 25.5747 92.0243C25.8802 91.8445 26.2354 91.768 26.5878 91.8061C26.9402 91.8441 27.271 91.9947 27.531 92.2356C27.6144 92.3135 27.7248 92.356 27.8389 92.354C27.953 92.3521 28.0619 92.3059 28.1425 92.2252C28.2232 92.1445 28.2694 92.0357 28.2713 91.9216C28.2733 91.8075 28.2308 91.6971 28.1529 91.6137Z" fill="#3F3D56"/>
<path d="M81.8806 61.0925C80.8543 60.7395 79.663 60.389 78.601 60.8028C77.5992 61.1931 77.0474 62.1488 76.9389 63.186C76.8179 64.3427 77.3098 65.4459 77.831 66.4474C78.4581 67.652 79.1048 68.8468 79.742 70.046L81.9463 74.1941C81.9964 74.2752 82.0715 74.338 82.1602 74.373C82.2489 74.4081 82.3466 74.4135 82.4387 74.3886C82.5308 74.3636 82.6123 74.3096 82.6712 74.2346C82.7302 74.1596 82.7633 74.0675 82.7657 73.9722C82.6411 72.5813 82.8619 71.1812 83.4083 69.8961C83.972 68.5972 84.8931 67.5002 85.5479 66.2513C86.1507 65.1016 86.5525 63.7824 86.2332 62.4865C85.9749 61.4384 85.2127 60.4186 84.1142 60.1746C83.5592 60.0341 82.9722 60.0963 82.4589 60.3499C81.9455 60.6035 81.5395 61.0319 81.3138 61.558C81.1063 62.0848 81.9565 62.3133 82.1618 61.7918C82.4544 61.0492 83.4783 60.8215 84.1608 61.1057C85.0499 61.476 85.4717 62.5388 85.4707 63.4421C85.4693 64.677 84.8366 65.8054 84.1947 66.8197C83.5464 67.8442 82.8648 68.835 82.4339 69.9768C81.9585 71.2518 81.7715 72.6163 81.8862 73.9722L82.7056 73.7502C81.2744 71.0568 79.7644 68.3904 78.4133 65.6559C77.8937 64.6044 77.4263 63.1861 78.2229 62.1371C79.0396 61.0617 80.5984 61.5799 81.6468 61.9405C82.1831 62.1249 82.4135 61.2758 81.8806 61.0925Z" fill="#3F3D56"/>
<path d="M25.9072 94.0707L27.2021 96.5825C27.247 96.6554 27.3121 96.7139 27.3894 96.7507C27.4667 96.7876 27.5531 96.8013 27.638 96.7902C27.7229 96.7791 27.8029 96.7436 27.8681 96.6881C27.9334 96.6327 27.9812 96.5595 28.0058 96.4774C28.3432 94.7387 29.1515 93.1259 30.3425 91.8149C30.7235 91.3977 30.1033 90.7741 29.7206 91.1931C28.4212 92.611 27.5349 94.3577 27.1578 96.2436L27.9615 96.1386L26.6666 93.6269C26.4071 93.1237 25.648 93.568 25.9072 94.0707Z" fill="#3F3D56"/>
<path d="M40.5962 82.4756L30.3643 91.513C30.3066 91.564 30.2315 91.5908 30.1546 91.5881C30.0777 91.5854 30.0048 91.5533 29.9509 91.4984C29.897 91.4435 29.8661 91.37 29.8648 91.293C29.8634 91.2161 29.8917 91.1416 29.9436 91.0848L39.4772 80.6758L40.5962 82.4756Z" fill="#3F3D56"/>
<path d="M54.2368 192.46H58.2583L60.1722 176.948H54.2368V192.46Z" fill="#FFB6B6"/>
<path d="M52.1143 199.428H54.9983L55.5131 196.705L56.8315 199.428H64.4807C64.8473 199.428 65.2044 199.311 65.4997 199.094C65.7951 198.876 66.0132 198.57 66.1223 198.22C66.2314 197.87 66.2258 197.495 66.1062 197.148C65.9867 196.801 65.7594 196.502 65.4577 196.294L59.3493 192.075V189.322L52.9244 189.706L52.1143 199.428Z" fill="#2F2E41"/>
<path d="M88.6836 192.46H92.705L94.619 176.948H88.6836V192.46Z" fill="#FFB6B6"/>
<path d="M86.561 199.428H89.4451L89.9598 196.705L91.2783 199.428H98.9274C99.2941 199.428 99.6512 199.311 99.9465 199.094C100.242 198.876 100.46 198.57 100.569 198.22C100.678 197.87 100.673 197.495 100.553 197.148C100.433 196.801 100.206 196.502 99.9045 196.294L93.7961 192.075V189.322L87.3712 189.706L86.561 199.428Z" fill="#2F2E41"/>
<path d="M77.0604 110.238L56.6642 107.972C56.6642 107.972 47.5992 119.756 50.9986 129.955V141.311L53.4915 185.704L59.7236 186.044L61.5366 165.875L63.2363 157.829L64.668 127.178L71.9614 135.96L72.6413 139.359L74.9075 140.946L79.1001 146.707L87.7118 182.078L95.3011 182.192C95.3011 182.192 91.2245 145.478 90.7713 145.478C90.318 145.478 78.9868 120.776 78.9868 120.776V119.469L78.5335 116.924C78.5335 116.924 79.6666 116.017 79.2134 115.564C78.7601 115.111 78.3069 113.751 78.3069 113.751L77.0604 110.238Z" fill="#2F2E41"/>
<path d="M69.6951 78.6241L73.7743 83.1566L79.4399 85.1962L76.2672 103.779L77.3195 109.123L78.8734 114.997C72.8861 118.309 65.774 113.735 59.2402 111.704L52.8115 114.544L53.1515 106.726L53.3258 87.0264C53.3325 86.2698 53.4946 85.5226 53.8021 84.8313C54.1096 84.14 54.556 83.5192 55.1134 83.0076C55.6708 82.4959 56.3275 82.1044 57.0425 81.8571C57.7576 81.6098 58.5159 81.5122 59.2703 81.5702L63.5762 78.3975L69.6951 78.6241Z" fill="#46CC8F"/>
<path d="M32.6898 86.9369C32.722 87.2732 32.8275 87.5983 32.9989 87.8894C33.1704 88.1804 33.4035 88.4304 33.682 88.6216C33.9605 88.8128 34.2775 88.9406 34.6107 88.9961C34.9439 89.0515 35.2852 89.0332 35.6106 88.9425L40.2874 95.6917L41.8774 91.732L37.1925 85.9299C37.0038 85.3934 36.6249 84.9447 36.1275 84.6689C35.6301 84.3931 35.0489 84.3093 34.4939 84.4335C33.9388 84.5576 33.4486 84.881 33.1161 85.3424C32.7836 85.8038 32.6319 86.3711 32.6898 86.9369Z" fill="#FFB8B8"/>
<path d="M57.1772 81.667C57.1772 81.667 51.0899 81.3972 51.7715 93.4946L49.1819 98.8088L43.9733 93.9478L43.9498 92.4005L39.545 87.4771L36.0093 91.3857L38.3628 94.9839L38.8165 96.9936L40.2498 97.8691L43.9898 103.587L45.7198 105.29C45.7198 105.29 47.9145 107.477 50.3968 107.147C51.0591 107.061 51.7037 106.872 52.3071 106.586C53.488 106.023 54.6546 105.016 55.6355 103.309C57.6911 99.786 59.534 96.1426 61.1543 92.3989L57.1772 81.667Z" fill="#46CC8F"/>
<path d="M83.826 68.0095C83.7331 68.3343 83.7125 68.6755 83.7656 69.009C83.8188 69.3426 83.9445 69.6605 84.1338 69.9403C84.3232 70.22 84.5715 70.4549 84.8614 70.6283C85.1513 70.8017 85.4757 70.9094 85.8118 70.9438L87.6982 78.9354L90.6254 75.8308L88.3852 68.7178C88.4057 68.1495 88.217 67.5933 87.8548 67.1548C87.4927 66.7163 86.9822 66.4259 86.4202 66.3386C85.8582 66.2513 85.2837 66.3731 84.8056 66.6811C84.3275 66.9891 83.9789 67.4617 83.826 68.0095Z" fill="#FFB8B8"/>
<path d="M70.8706 84.1189C70.8706 84.1189 74.0893 78.9451 83.6829 86.3462L89.5303 87.2143L88.4651 80.1699L87.2021 79.2757L85.631 72.859L90.8538 72.1521L92.4915 76.1276L93.8927 77.6379L93.8046 79.3152L96.407 85.6327L96.8336 88.0224C96.8336 88.0224 97.3969 91.069 95.7218 92.9304C95.2764 93.428 94.7556 93.8525 94.1784 94.1885C93.0472 94.8448 91.5564 95.2374 89.5945 95.082C85.526 94.7857 81.4789 94.2462 77.4748 93.4664L70.8706 84.1189Z" fill="#46CC8F"/>
<path d="M70.4166 76.7346C74.2207 74.6551 75.6188 69.8854 73.5393 66.0813C71.4598 62.2772 66.6902 60.8791 62.886 62.9586C59.0819 65.0381 57.6838 69.8077 59.7633 73.6119C61.8428 77.416 66.6125 78.8141 70.4166 76.7346Z" fill="#FFB6B6"/>
<path d="M76.9795 67.138C76.9561 67.1468 76.9356 67.1556 76.9121 67.1644C76.8673 67.1841 76.8213 67.2007 76.7743 67.2143C76.4747 67.3234 76.1624 67.3943 75.845 67.4253C75.7097 67.4396 75.5737 67.4465 75.4376 67.4459C75.263 67.446 75.0887 67.4343 74.9158 67.4107C74.7234 67.3866 74.5332 67.3474 74.347 67.2934C74.2587 67.2695 74.1716 67.2411 74.0861 67.2084C73.5039 66.9999 72.978 66.6592 72.5497 66.2131C72.1214 65.767 71.8024 65.2277 71.6178 64.6375V64.6345C71.5981 64.5768 71.5815 64.5181 71.568 64.4586C71.4817 64.1285 71.4383 63.7885 71.439 63.4473V63.4414C71.4389 62.6092 71.7004 61.798 72.1865 61.1226C72.4797 60.7092 72.8173 60.6409 72.6292 60.1669C72.0292 58.655 74.5027 57.4265 75.9594 58.0943C76.012 58.0894 76.0648 58.0875 76.1177 58.0885C77.0997 58.0885 77.4603 59.5396 78.0437 60.3575L78.0267 60.3629C77.8783 60.4145 77.7498 60.5111 77.659 60.6393C77.5682 60.7675 77.5197 60.9208 77.5204 61.0779C77.5211 61.235 77.5708 61.3879 77.6626 61.5153C77.7545 61.6428 77.8839 61.7383 78.0327 61.7886C78.4222 61.9166 78.8157 62.0297 79.2134 62.1281C80.5217 63.6812 79.0059 68.2116 76.9795 67.138Z" fill="#2F2E41"/>
<path d="M76.2466 71.292C75.8098 72.9425 75.0066 74.5519 73.6786 75.6219C72.3477 76.6919 66.0948 79.2188 65.5729 77.0407C65.9218 78.5622 65.7078 79.1426 65.1391 79.6849C65.0423 79.553 64.9397 79.427 64.8342 79.3039C64.4455 78.8537 63.9787 78.4773 63.4564 78.1928C63.4405 79.1112 63.5043 80.0293 63.6469 80.9367C63.4126 81.1518 63.1895 81.3788 62.9786 81.6168C61.976 78.6032 59.7708 74.9912 61.3809 72.2536C62.0199 71.1671 61.4897 71.0167 60.9265 70.8904C59.9433 70.6699 59.4109 66.6309 59.1793 65.6489C58.892 64.4176 58.7806 63.0017 59.5457 61.9933C60.3109 60.9848 62.2398 60.9467 62.6268 62.1516L63.4417 61.0493C64.4971 58.7422 67.282 59.2113 69.8002 59.5161C72.3184 59.8181 74.5375 61.5946 75.6661 63.8665C76.7918 66.1384 76.8944 68.8383 76.2466 71.292Z" fill="#2F2E41"/>
<path d="M72.3023 60.7311C72.2453 62.1238 72.5989 63.5025 73.319 64.6959C74.0392 65.8893 75.0942 66.8447 76.3529 67.4434C76.8641 67.6766 77.3116 66.9189 76.7968 66.6841C75.6721 66.1618 74.728 65.3171 74.0843 64.2571C73.4407 63.1972 73.1265 61.9699 73.1818 60.7311C73.2125 60.1656 72.333 60.1673 72.3023 60.7311Z" fill="#FF6584"/>
<path d="M37.7866 194.144C37.6301 194.151 37.4753 194.11 37.3429 194.026C37.2106 193.943 37.1072 193.82 37.0468 193.676C36.9864 193.531 36.9718 193.372 37.0051 193.219C37.0384 193.066 37.118 192.927 37.233 192.82L37.2853 192.612C37.2784 192.595 37.2715 192.579 37.2645 192.562C36.5613 190.885 32.074 195.56 31.88 197.136C31.7946 197.832 31.8306 198.538 31.9866 199.223C30.5331 196.052 29.7783 192.606 29.7734 189.118C29.7731 188.243 29.8217 187.368 29.9191 186.498C29.9995 185.785 30.1111 185.077 30.2539 184.374C31.0329 180.56 32.7056 176.985 35.1345 173.943C36.5236 174.021 37.741 173.809 37.8585 171.117C37.8794 170.638 38.2346 170.224 38.3129 169.752C38.1803 169.769 38.0455 169.78 37.9129 169.789C37.8716 169.791 37.8281 169.793 37.7868 169.795L37.7712 169.796C37.6255 169.803 37.4809 169.767 37.355 169.693C37.2291 169.62 37.1272 169.511 37.0615 169.381C36.9958 169.251 36.9692 169.104 36.9848 168.959C37.0005 168.814 37.0577 168.677 37.1497 168.563C37.2069 168.493 37.2642 168.422 37.3215 168.352C37.4085 168.243 37.4976 168.137 37.5846 168.028C37.5946 168.018 37.6041 168.007 37.6129 167.995C37.7129 167.871 37.8129 167.75 37.9129 167.626C37.7303 167.342 37.4848 167.105 37.1955 166.932C36.1932 166.345 34.8106 166.752 34.0866 167.658C33.3605 168.565 33.2236 169.837 33.4757 170.969C33.7237 171.933 34.134 172.848 34.6888 173.674C34.6345 173.743 34.578 173.811 34.5236 173.88C33.5301 175.158 32.6642 176.53 31.9382 177.976C32.1436 176.372 29.6321 170.578 28.6609 169.351C27.4943 167.877 25.102 168.521 24.8965 170.389C24.8945 170.407 24.8925 170.425 24.8906 170.443C25.0349 170.525 25.1761 170.611 25.3143 170.702C25.4879 170.818 25.6224 170.984 25.7001 171.178C25.7779 171.372 25.7954 171.584 25.7502 171.788C25.7051 171.992 25.5994 172.177 25.4471 172.32C25.2948 172.463 25.1029 172.556 24.8965 172.588L24.8754 172.591C22.9444 175.348 29.1348 182.525 30.6843 180.913C29.955 182.98 29.4975 185.133 29.3234 187.318C29.2248 188.607 29.2307 189.902 29.3408 191.19L29.3343 191.144C28.99 188.339 23.0836 184.168 21.3588 184.515C20.3652 184.715 19.3866 184.67 19.5374 185.672C19.5398 185.688 19.5423 185.704 19.5448 185.72C19.8125 185.829 20.0731 185.955 20.3252 186.096C20.4695 186.177 20.6107 186.264 20.7489 186.355C20.9225 186.471 21.057 186.637 21.1347 186.831C21.2125 187.024 21.23 187.237 21.1849 187.441C21.1397 187.645 21.034 187.83 20.8817 187.973C20.7294 188.116 20.5375 188.209 20.3311 188.241L20.31 188.244C20.2948 188.246 20.2817 188.248 20.2665 188.251C19.3875 191.275 25.9061 196.156 29.8691 194.603H29.8713C30.264 196.31 30.833 197.971 31.5691 199.56H37.6346C37.6563 199.492 37.6759 199.423 37.6955 199.355C37.134 199.391 36.5704 199.357 36.0171 199.255C36.4672 198.703 36.9172 198.147 37.3672 197.594C37.3772 197.584 37.3867 197.573 37.3955 197.562C37.6237 197.279 37.8542 196.999 38.0824 196.716L38.0826 196.716C38.0947 195.849 37.9951 194.985 37.7866 194.144ZM30.8409 180.481L30.844 180.476L30.8409 180.485V180.481ZM29.4973 192.592L29.4452 192.475C29.4473 192.39 29.4473 192.305 29.4452 192.218C29.4452 192.194 29.4408 192.17 29.4408 192.146C29.4604 192.296 29.4778 192.446 29.4995 192.596L29.4973 192.592Z" fill="#46CC8F"/>
<path d="M105.204 199.414H19.5688V200H105.204V199.414Z" fill="#CCCCCC"/>
<path d="M218.368 39.6618L218.361 39.6681C217.693 38.9886 216.789 38.5922 215.837 38.5608C214.884 38.5295 213.956 38.8657 213.245 39.4999C212.534 40.134 212.094 41.0174 212.016 41.9671C211.939 42.9168 212.229 43.86 212.828 44.6013L212.821 44.6075L217.767 50.1547L223.314 45.209C223.678 44.8844 223.976 44.4911 224.188 44.0515C224.401 43.612 224.525 43.1349 224.553 42.6475C224.581 42.16 224.513 41.6718 224.352 41.2108C224.192 40.7497 223.942 40.3248 223.617 39.9603C223.292 39.5959 222.898 39.2991 222.459 39.0868C222.019 38.8746 221.542 38.7511 221.054 38.7233C220.567 38.6956 220.079 38.7642 219.618 38.9253C219.157 39.0863 218.732 39.3366 218.368 39.6618Z" fill="#46CC8F"/>
</g>
<defs>
<clipPath id="clip0_689_65">
<rect width="253.497" height="200" fill="white"/>
</clipPath>
</defs>
</svg>
