<svg width="27" height="40" viewBox="0 0 27 40" fill="none" xmlns="http://www.w3.org/2000/svg">
<g id="Group 18">
<path id="Vector" d="M7.08741 39.273C10.6367 39.273 13.5 36.4097 13.5 32.8605V26.4479H7.08741C3.53813 26.4479 0.674835 29.3112 0.674835 32.8605C0.674835 36.4097 3.53813 39.273 7.08741 39.273Z" fill="#0ACF83"/>
<path id="Vector_2" d="M0.674835 20.0353C0.674835 16.486 3.53813 13.6227 7.08741 13.6227H13.5V26.4479H7.08741C3.53813 26.4479 0.674835 23.5846 0.674835 20.0353Z" fill="#A259FF"/>
<path id="Vector_3" d="M0.674835 7.21012C0.674835 3.66084 3.53813 0.797546 7.08741 0.797546H13.5V13.6227H7.08741C3.53813 13.6227 0.674835 10.7594 0.674835 7.21012Z" fill="#F24E1E"/>
<path id="Vector_4" d="M13.5 0.797546H19.9126C23.4619 0.797546 26.3252 3.66084 26.3252 7.21012C26.3252 10.7594 23.4619 13.6227 19.9126 13.6227H13.5V0.797546Z" fill="#FF7262"/>
<path id="Vector_5" d="M26.3252 20.0353C26.3252 23.5846 23.4619 26.4479 19.9126 26.4479C16.3633 26.4479 13.5 23.5846 13.5 20.0353C13.5 16.486 16.3633 13.6227 19.9126 13.6227C23.4619 13.6227 26.3252 16.486 26.3252 20.0353Z" fill="#1ABCFE"/>
</g>
</svg>
