<svg width="300" height="250" viewBox="0 0 300 250" fill="none" xmlns="http://www.w3.org/2000/svg">
<g clip-path="url(#clip0_691_82)">
<path d="M193.845 136.845V187.398L202.286 201.178L202.928 202.227H236.234L236.907 136.845H193.845Z" fill="#E6E6E6"/>
<path opacity="0.1" d="M193.845 136.845V187.398L202.286 201.178L202.804 136.845H193.845Z" fill="black"/>
<path d="M113.439 135.497V186.05L104.998 199.83L104.356 200.878H71.0499L70.377 135.497H113.439Z" fill="#E6E6E6"/>
<path opacity="0.1" d="M113.439 135.497V186.05L104.998 199.83L104.48 135.497H113.439Z" fill="black"/>
<path d="M247 134.486V137.519H66.0034V133.138L82.8246 124.375H232.197L247 134.486Z" fill="#E6E6E6"/>
<path opacity="0.1" d="M247 134.486V137.519H66.0034V133.138L247 134.486Z" fill="black"/>
<path d="M91.9083 149.652H83.834L80.4697 147.292H95.6089L91.9083 149.652Z" fill="#3F3D56"/>
<path d="M91.9083 159.425H83.834L80.4697 157.066H95.6089L91.9083 159.425Z" fill="#3F3D56"/>
<path d="M91.9083 173.243H83.834L80.4697 170.884H95.6089L91.9083 173.243Z" fill="#3F3D56"/>
<path d="M91.9083 187.061H83.834L80.4697 184.702H95.6089L91.9083 187.061Z" fill="#3F3D56"/>
<path d="M215.376 151H223.45L226.814 148.641H211.675L215.376 151Z" fill="#3F3D56"/>
<path d="M215.376 160.773H223.45L226.814 158.414H211.675L215.376 160.773Z" fill="#3F3D56"/>
<path d="M215.376 174.591H223.45L226.814 172.232H211.675L215.376 174.591Z" fill="#3F3D56"/>
<path d="M215.376 188.409H223.45L226.814 186.05H211.675L215.376 188.409Z" fill="#3F3D56"/>
<path d="M220.874 65.9163H152.901C152.563 65.9162 152.229 65.9828 151.917 66.1122C151.605 66.2416 151.322 66.4313 151.083 66.6704C150.844 66.9096 150.655 67.1935 150.526 67.5059C150.397 67.8184 150.33 68.1533 150.33 68.4915V114.361C150.33 114.699 150.397 115.034 150.526 115.346C150.655 115.659 150.844 115.943 151.083 116.182C151.322 116.421 151.605 116.611 151.917 116.74C152.229 116.87 152.563 116.936 152.901 116.936H178.704L177.737 123.119C177.737 123.119 172.213 126.059 176.097 126.146C179.982 126.232 198.282 126.146 198.282 126.146C198.282 126.146 201.821 126.146 196.21 123.033L195.301 116.936H220.874C221.212 116.936 221.546 116.87 221.858 116.74C222.17 116.611 222.453 116.421 222.692 116.182C222.931 115.943 223.12 115.659 223.249 115.346C223.379 115.034 223.445 114.699 223.445 114.361V68.4915C223.445 68.1533 223.379 67.8184 223.249 67.5059C223.12 67.1935 222.931 66.9096 222.692 66.6704C222.453 66.4313 222.17 66.2416 221.858 66.1122C221.546 65.9828 221.212 65.9162 220.874 65.9163Z" fill="#3F3D56"/>
<path d="M220.985 68.6404H152.791V106.862H220.985V68.6404Z" fill="#F2F2F2"/>
<path d="M186.888 67.8621C187.126 67.8621 187.319 67.6685 187.319 67.4297C187.319 67.1909 187.126 66.9973 186.888 66.9973C186.649 66.9973 186.456 67.1909 186.456 67.4297C186.456 67.6685 186.649 67.8621 186.888 67.8621Z" fill="#F2F2F2"/>
<path d="M186.888 115.077C187.793 115.077 188.528 114.341 188.528 113.434C188.528 112.527 187.793 111.791 186.888 111.791C185.982 111.791 185.248 112.527 185.248 113.434C185.248 114.341 185.982 115.077 186.888 115.077Z" fill="#F2F2F2"/>
<path d="M184.332 130.815V131.68H137.891V130.988L137.954 130.815L139.099 127.702H183.382L184.332 130.815Z" fill="#3F3D56"/>
<path d="M202.204 129.969C202.12 130.331 201.8 130.713 201.078 131.075C198.489 132.372 193.223 130.729 193.223 130.729C193.223 130.729 189.166 130.037 189.166 128.221C189.28 128.143 189.399 128.072 189.522 128.009C190.61 127.432 194.22 126.008 200.621 128.07C201.093 128.218 201.514 128.494 201.838 128.868C201.982 129.01 202.09 129.183 202.153 129.374C202.217 129.566 202.234 129.769 202.204 129.969Z" fill="#3F3D56"/>
<path opacity="0.1" d="M202.204 129.969C199.034 131.185 196.209 131.276 193.309 129.259C192.213 128.447 190.885 128.009 189.521 128.009C190.61 127.432 194.22 126.008 200.621 128.07C201.093 128.218 201.514 128.494 201.838 128.868C201.981 129.01 202.089 129.183 202.153 129.374C202.217 129.566 202.234 129.769 202.204 129.969Z" fill="black"/>
<path d="M198.23 129.259C198.849 129.259 199.352 129.104 199.352 128.913C199.352 128.722 198.849 128.567 198.23 128.567C197.61 128.567 197.107 128.722 197.107 128.913C197.107 129.104 197.61 129.259 198.23 129.259Z" fill="#F2F2F2"/>
<path opacity="0.1" d="M184.332 130.815V131.68H137.891V130.988L137.954 130.815H184.332Z" fill="black"/>
<path d="M78.8223 33C78.3509 32.9613 77.879 33.0669 77.4689 33.3029C77.0663 33.5791 76.8125 34.063 76.5535 34.5133C75.5631 36.2555 74.2223 37.7727 72.6161 38.9688C71.4461 39.8274 69.9587 40.8979 70.1589 42.4809C70.2645 43.0037 70.4573 43.5049 70.7291 43.9635C71.8084 46.1461 74.7537 47.8327 74.464 50.3232C75.5363 48.5249 74.102 47.6357 75.1743 45.8374C75.685 44.981 76.5721 44.0142 77.3431 44.5521C77.6012 44.7321 77.7707 45.0551 78.0395 45.2131C78.6809 45.5902 79.3632 44.8694 79.931 44.3588C81.8887 42.5983 84.6728 43.0595 87.1089 43.608C88.2591 43.867 89.5223 44.2068 90.2022 45.3079C91.0961 46.7557 89.3529 48.3194 88.9125 49.9563C88.8765 50.0958 88.8748 50.2419 88.9075 50.3822C88.9402 50.5225 89.0064 50.6527 89.1003 50.7618C89.1942 50.8709 89.3131 50.9556 89.4468 51.0086C89.5805 51.0616 89.725 51.0814 89.868 51.0663C90.599 50.9941 91.465 50.9349 91.5082 50.6135C92.4279 50.6463 93.5548 50.542 93.9489 49.5827C94.0693 49.2031 94.133 48.8077 94.1378 48.4095C94.2824 46.798 94.9652 45.3278 95.4175 43.7941C95.8698 42.2603 96.0664 40.4629 95.3031 39.103C95.0307 38.6506 94.6938 38.2404 94.3031 37.8855C89.9716 33.6863 84.2766 32.9938 78.8223 33Z" fill="#2F2E41"/>
<path d="M75.4056 53.4688C75.4056 53.4688 76.3476 61.3329 72.8935 61.962C69.4394 62.5911 76.0336 73.2863 76.0336 73.2863L91.7341 75.1737L87.966 62.5911C87.966 62.5911 85.4539 61.6474 87.024 55.3561C88.594 49.0649 75.4056 53.4688 75.4056 53.4688Z" fill="#FFB8B8"/>
<path d="M65.8286 188.574L67.0848 205.875H73.6788L71.7949 188.574H65.8286Z" fill="#FFB8B8"/>
<path d="M114.186 155.859L115.128 170.329L122.35 167.184L119.524 155.23L114.186 155.859Z" fill="#FFB8B8"/>
<path d="M61.1182 122.516C61.1182 122.516 61.4322 140.76 63.3162 146.737C65.2003 152.714 64.8863 153.028 64.5723 153.972C64.2583 154.916 63.9443 154.287 63.9443 155.859C63.9443 157.432 63.3162 182.283 63.9443 184.485C64.5723 186.687 62.0602 190.461 63.9443 190.776C65.8283 191.091 74.6206 190.776 74.9346 188.889C75.2486 187.001 72.4226 186.372 73.6786 185.114C74.9346 183.856 76.8187 158.061 76.8187 158.061L81.2148 140.131L89.3791 130.694H106.65L111.988 151.456C111.988 151.456 109.79 157.432 111.36 157.432C112.93 157.432 122.35 159.32 122.35 152.399C122.35 145.479 119.21 125.032 118.582 124.403C117.954 123.774 118.896 121.572 117.954 120.628C117.012 119.685 106.022 113.079 101.94 111.821C97.8574 110.562 92.1308 109.065 92.1308 109.065L61.1182 122.516Z" fill="#2F2E41"/>
<path d="M122.35 164.667C122.35 164.667 117.64 163.094 115.442 167.813C113.244 172.531 114.186 173.79 114.186 173.79C114.186 173.79 121.408 176.306 122.664 175.048C123.211 174.5 124.946 174.31 126.732 174.27C129.453 174.209 130.176 170.353 127.607 169.455C127.531 169.429 127.453 169.405 127.374 169.386C124.862 168.757 122.35 164.667 122.35 164.667Z" fill="#2F2E41"/>
<path d="M82.4711 58.6592C87.6738 58.6592 91.8914 54.4342 91.8914 49.2223C91.8914 44.0105 87.6738 39.7854 82.4711 39.7854C77.2684 39.7854 73.0508 44.0105 73.0508 49.2223C73.0508 54.4342 77.2684 58.6592 82.4711 58.6592Z" fill="#FFB8B8"/>
<path d="M70.2248 65.8941C70.2248 65.8941 85.6113 69.0398 89.3794 64.0068C93.1475 58.9737 94.7176 78.1621 94.7176 78.1621L96.6017 98.2942L93.7756 109.304C93.7756 109.304 79.0171 121.257 74.3069 122.201C69.5968 123.145 62.3745 123.774 62.3745 123.774C62.3745 123.774 64.5726 88.8573 64.5726 88.2282C64.5726 87.599 70.2248 65.8941 70.2248 65.8941Z" fill="#46CC8F"/>
<path d="M74.9039 59.9946C74.9039 59.9946 71.4805 58.03 70.5385 59.9174C69.5964 61.8048 60.8042 66.5233 59.8621 66.5233C58.9201 66.5233 61.7462 92.6321 60.4901 95.7777C59.2341 98.9233 53.2679 121.887 56.722 123.774C60.1761 125.661 57.6641 121.887 61.1182 126.605C64.5723 131.323 81.5288 131.323 82.4709 129.436C83.4129 127.549 74.9346 113.393 76.5047 100.182C78.0747 86.9699 80.5868 68.7252 78.3887 66.2087C76.1907 63.6922 74.9039 59.9946 74.9039 59.9946Z" fill="#2F2E41"/>
<path d="M86.2393 62.1194L86.6766 60.6116C86.6766 60.6116 99.7417 64.9505 100.37 67.7816C100.998 70.6127 100.684 90.4302 98.4857 92.003C96.2876 93.5758 93.1475 96.0923 95.3456 99.8671C97.5436 103.642 100.056 107.731 101.94 108.046C103.824 108.36 107.278 110.562 106.336 112.764C105.394 114.966 94.0895 110.877 94.0895 110.877C94.0895 110.877 86.5533 105.215 86.8673 96.4069C87.1813 87.5991 86.2393 62.1194 86.2393 62.1194Z" fill="#2F2E41"/>
<path d="M97.2297 99.2378L89.6934 113.393C89.6934 113.393 78.703 124.717 84.9833 125.976C91.2635 127.234 94.7176 115.595 94.7176 115.595L102.882 103.956L97.2297 99.2378Z" fill="#FFB8B8"/>
<path d="M79.2811 35.4692C78.9014 35.4411 78.5211 35.5149 78.1794 35.6833C77.8705 35.9093 77.6159 36.2016 77.4342 36.5388C76.5967 37.8009 75.5049 38.8735 74.229 39.6879C73.2766 40.2948 72.0658 41.0514 72.2287 42.1703C72.3172 42.5454 72.4746 42.9008 72.6929 43.2182C73.5746 44.7764 73.9255 46.5799 73.6928 48.3557L76.3115 44.5426C76.7272 43.9373 77.4493 43.254 78.077 43.6341C78.2871 43.7614 78.4251 43.9897 78.6439 44.1014C79.166 44.3679 79.7215 43.8584 80.1836 43.4976C81.7773 42.2532 84.0436 42.5792 86.0268 42.9669C86.963 43.15 87.9914 43.3901 88.5449 44.1684C89.4646 45.4618 88.5042 47.3306 89.041 48.8248C89.1913 48.7194 89.3189 48.5849 89.4163 48.4292C89.5137 48.2735 89.5789 48.0998 89.608 47.9183C90.3567 47.9415 91.274 47.8678 91.5948 47.1897C91.6924 46.924 91.7443 46.6436 91.7486 46.3605C91.8663 45.2215 92.4221 44.1824 92.7903 43.0984C93.1585 42.0143 93.3186 40.7439 92.6972 39.7828C92.4699 39.4571 92.1956 39.1671 91.8832 38.9222C88.3571 35.9543 83.7211 35.4648 79.2811 35.4692Z" fill="#2F2E41"/>
<path d="M97.2294 66.5232L100.155 67.3011C100.155 67.3011 106.964 84.7679 105.394 96.7213C103.824 108.675 102.882 106.158 102.882 106.158C102.882 106.158 100.369 100.496 94.7173 101.754L97.2294 66.5232Z" fill="#2F2E41"/>
<path d="M66.2636 203.589C65.5064 204.619 65.6582 206.093 64.9875 207.182C64.4061 208.126 63.3103 208.622 62.5831 209.458C62.351 209.736 62.1441 210.034 61.9649 210.349C61.2903 211.481 60.7419 212.932 61.4063 214.07C61.9408 214.985 63.0643 215.343 64.0946 215.587C65.3969 215.895 66.75 216.142 68.0673 215.906C69.3846 215.671 70.6721 214.863 71.1418 213.608C71.2341 213.292 71.3438 212.982 71.4705 212.678C72.1845 211.27 74.424 211.255 75.1548 209.856C75.6661 208.876 75.1961 207.692 74.7262 206.692L73.291 203.638C72.8148 202.624 70.8841 203.207 69.8776 202.964C68.5649 202.648 67.208 202.299 66.2636 203.589Z" fill="#2F2E41"/>
<path d="M55.7803 105.529L68.9687 125.976C68.9687 125.976 77.133 136.356 79.6451 131.638C82.1571 126.919 70.8528 119.055 70.8528 119.055L62.3745 103.327L55.7803 105.529Z" fill="#FFB8B8"/>
<path d="M62.3743 67.1523L59.8623 66.5232C59.8623 66.5232 54.8381 68.096 53.582 74.7018C52.326 81.3077 53.268 107.731 54.8381 108.046C56.4081 108.36 62.5926 103.445 63.5825 104.487C64.5724 105.529 61.4323 100.182 62.3743 97.3504C63.3163 94.5194 62.3743 67.1523 62.3743 67.1523Z" fill="#2F2E41"/>
<path d="M180.433 81.1936H172.317V83.1509H180.433V81.1936Z" fill="#46CC8F"/>
<path d="M208.538 81.1936H205.683V83.1509H208.538V81.1936Z" fill="#46CC8F"/>
<path d="M214.25 81.1936H211.394V83.1509H214.25V81.1936Z" fill="#46CC8F"/>
<path d="M202.677 81.1936H183.289V83.1509H202.677V81.1936Z" fill="#46CC8F"/>
<path d="M170.213 93.8406H162.097V95.7979H170.213V93.8406Z" fill="#46CC8F"/>
<path d="M198.318 93.8406H195.463V95.7979H198.318V93.8406Z" fill="#46CC8F"/>
<path d="M204.029 93.8406H201.174V95.7979H204.029V93.8406Z" fill="#46CC8F"/>
<path d="M192.457 93.8406H173.069V95.7979H192.457V93.8406Z" fill="#46CC8F"/>
<path d="M203.729 85.5598H195.613V87.5171H203.729V85.5598Z" fill="#46CC8F"/>
<path d="M214.7 85.5598H206.584V87.5171H214.7V85.5598Z" fill="#46CC8F"/>
<path d="M164.953 85.5598H162.097V87.5171H164.953V85.5598Z" fill="#46CC8F"/>
<path d="M170.664 85.5598H167.809V87.5171H170.664V85.5598Z" fill="#46CC8F"/>
<path d="M192.908 85.5598H173.52V87.5171H192.908V85.5598Z" fill="#46CC8F"/>
<path d="M186.896 89.7756H178.78V91.7329H186.896V89.7756Z" fill="#46CC8F"/>
<path d="M175.925 89.7756H167.809V91.7329H175.925V89.7756Z" fill="#46CC8F"/>
<path d="M164.953 89.7756H162.097V91.7329H164.953V89.7756Z" fill="#46CC8F"/>
<path d="M214.7 89.7756H211.845V91.7329H214.7V89.7756Z" fill="#46CC8F"/>
<path d="M208.989 89.7756H189.601V91.7329H208.989V89.7756Z" fill="#46CC8F"/>
</g>
<defs>
<clipPath id="clip0_691_82">
<rect width="194" height="183" fill="white" transform="translate(53 33)"/>
</clipPath>
</defs>
</svg>
