<svg width="39" height="39" viewBox="0 0 39 39" fill="none" xmlns="http://www.w3.org/2000/svg">
<g id="Group">
<path id="Vector" d="M29.628 0.877319H9.37205C4.43659 0.877319 0.435608 4.8783 0.435608 9.81376V30.0697C0.435608 35.0052 4.43659 39.0062 9.37205 39.0062H29.628C34.5635 39.0062 38.5644 35.0052 38.5644 30.0697V9.81376C38.5644 4.8783 34.5635 0.877319 29.628 0.877319Z" fill="#F03C2E"/>
<g id="Clip path group">
<mask id="mask0_490_102" style="mask-type:luminance" maskUnits="userSpaceOnUse" x="4" y="5" width="31" height="30">
<g id="skillIconsGit0">
<path id="Vector_2" d="M4.6059 5.04767H34.394V34.8358H4.6059V5.04767Z" fill="white"/>
</g>
</mask>
<g mask="url(#mask0_490_102)">
<g id="Group_2">
<path id="Vector_3" d="M33.8318 18.6152L20.8264 5.60987C20.5583 5.34142 20.2165 5.15859 19.8444 5.08453C19.4723 5.01048 19.0865 5.04853 18.7361 5.19388C18.5034 5.29032 18.292 5.43168 18.1139 5.60987L15.4144 8.30943L18.84 11.7351C19.6369 11.4558 20.5491 11.6466 21.1839 12.2815C21.4861 12.5843 21.697 12.9659 21.7927 13.3829C21.8883 13.7998 21.8647 14.2352 21.7247 14.6394L25.0266 17.9413C25.8253 17.6657 26.7468 17.8434 27.3845 18.483C27.7038 18.8022 27.9213 19.2091 28.0094 19.652C28.0974 20.0949 28.0521 20.554 27.8791 20.9712C27.6472 21.5304 27.2026 21.9747 26.6432 22.2063C26.0838 22.438 25.4554 22.438 24.896 22.2063C24.6189 22.0915 24.3672 21.9234 24.1553 21.7113C23.485 21.041 23.3194 20.0543 23.6583 19.2286L20.5789 16.1492V24.2526C20.8024 24.3632 21.0067 24.5091 21.1839 24.6846C21.612 25.1127 21.8525 25.6933 21.8525 26.2987C21.8525 26.9041 21.612 27.4848 21.1839 27.9129C20.7558 28.341 20.1752 28.5815 19.5698 28.5815C18.9643 28.5815 18.3837 28.341 17.9556 27.9129C17.6361 27.5937 17.4185 27.187 17.3303 26.7441C17.2421 26.3012 17.2873 25.8421 17.4602 25.425C17.575 25.148 17.7434 24.8964 17.9556 24.6846C18.1762 24.4649 18.4211 24.2982 18.7031 24.1865V16.0077C18.4232 15.8933 18.1691 15.724 17.9556 15.5098C17.6351 15.1896 17.4172 14.7813 17.3297 14.3368C17.2421 13.8923 17.2889 13.4318 17.4641 13.014L14.0851 9.63693L5.16726 18.5454C4.89879 18.8137 4.71594 19.1555 4.64184 19.5278C4.56774 19.9 4.60572 20.2859 4.75097 20.6365C4.8475 20.8693 4.98896 21.0808 5.16726 21.2589L18.1735 34.2632C18.3516 34.4414 18.563 34.5827 18.7956 34.6792C19.2657 34.8738 19.7938 34.8738 20.2639 34.6792C20.4966 34.5827 20.708 34.4414 20.886 34.2632L33.8318 21.338C34.01 21.1599 34.1515 20.9484 34.2479 20.7156C34.3444 20.4828 34.3941 20.2333 34.3942 19.9813C34.3942 19.7293 34.3445 19.4797 34.248 19.2469C34.1515 19.0141 34.0101 18.8026 33.8318 18.6245" fill="white"/>
</g>
</g>
</g>
</g>
</svg>
