<svg width="35" height="39" viewBox="0 0 35 39" fill="none" xmlns="http://www.w3.org/2000/svg">
<g id="Group 31">
<path id="Vector" d="M3.57516 35.1149L0.51532 0.797546H34.1368L31.0729 35.1094L17.3056 38.9264L3.57516 35.1149Z" fill="#E44F26"/>
<path id="Vector_2" d="M17.326 36.0095L28.4515 32.9251L31.0688 3.60406H17.326V36.0095Z" fill="#F1662A"/>
<path id="Vector_3" d="M17.326 16.331H11.7565L11.3725 12.021H17.326V7.81189H6.77252L6.87329 8.94214L7.90685 20.5401H17.326V16.331ZM17.326 27.2617L17.307 27.2671L12.6199 26.0021L12.3203 22.6454H8.09478L8.68441 29.2526L17.307 31.6465L17.326 31.6411V27.2617Z" fill="#EBEBEB"/>
<path id="Vector_4" d="M17.3111 16.331V20.5401H22.4939L22.0064 25.9993L17.3111 27.2658V31.6451L25.9404 29.2526L26.0031 28.5417L26.9917 17.4612L27.0952 16.331H17.3111ZM17.3111 7.81189V12.021H27.4778L27.5623 11.076L27.7543 8.94214L27.855 7.81189H17.3111Z" fill="white"/>
</g>
</svg>
