<svg width="39" height="39" viewBox="0 0 39 39" fill="none" xmlns="http://www.w3.org/2000/svg">
<g id="Group 33">
<path id="Vector" d="M0.435608 0.877289H38.5641V39.0061H0.435608V0.877289Z" fill="#F0DB4F"/>
<path id="Vector_2" d="M35.4437 29.9122C35.1644 28.1728 34.0301 26.7117 30.6703 25.3493C29.5031 24.8129 28.202 24.4289 27.8142 23.5444C27.6766 23.0296 27.6583 22.7397 27.7454 22.4281C27.9955 21.4169 29.2025 21.1016 30.1592 21.3916C30.7754 21.5981 31.3586 22.0729 31.7104 22.8304C33.3558 21.765 33.3524 21.772 34.5013 21.0398C34.0807 20.3877 33.8562 20.0868 33.5809 19.8078C32.5913 18.7025 31.2429 18.1332 29.0865 18.1768L27.9632 18.322C26.8868 18.594 25.861 19.159 25.2594 19.9165C23.4545 21.9645 23.9692 25.5488 26.1656 27.0239C28.3293 28.6479 31.5079 29.0174 31.9139 30.536C32.3089 32.3952 30.5475 32.997 28.7968 32.7832C27.5066 32.5149 26.789 31.8591 26.0133 30.6667C24.5854 31.493 24.5854 31.493 23.1173 32.3373C23.4655 33.0984 23.8313 33.4429 24.4148 34.1023C27.1768 36.9039 34.0883 36.7662 35.3279 32.5258C35.3782 32.3802 35.712 31.4092 35.4437 29.9122ZM21.1634 18.4012H17.5971L17.5825 27.6215C17.5825 29.5824 17.6839 31.38 17.365 31.931C16.8433 33.0147 15.4912 32.8804 14.8751 32.6702C14.248 32.362 13.9291 31.9237 13.5596 31.3042C13.4582 31.1263 13.382 30.9886 13.3564 30.978L10.4568 32.7537C10.939 33.7432 11.6493 34.6021 12.5591 35.1601C13.9181 35.9758 15.7447 36.2259 17.655 35.7873C18.8983 35.4251 19.971 34.6749 20.5327 33.5331C21.3447 32.0361 21.1704 30.2241 21.1631 28.22C21.1814 24.9503 21.1634 21.6813 21.1634 18.4012Z" fill="#323330"/>
</g>
</svg>
