<svg width="39" height="39" viewBox="0 0 39 39" fill="none" xmlns="http://www.w3.org/2000/svg">
<g id="Group">
<path id="Vector" d="M29.628 0.877319H9.37205C4.43659 0.877319 0.435608 4.8783 0.435608 9.81376V30.0697C0.435608 35.0052 4.43659 39.0062 9.37205 39.0062H29.628C34.5635 39.0062 38.5644 35.0052 38.5644 30.0697V9.81376C38.5644 4.8783 34.5635 0.877319 29.628 0.877319Z" fill="url(#paint0_linear_490_74)"/>
<path id="Vector_2" d="M12.2374 11.1155C10.75 13.2927 10.9353 16.1248 12.0685 18.4354L12.1519 18.5999L12.2082 18.7042C12.2186 18.7244 12.2305 18.7444 12.2414 18.7641C12.261 18.8007 12.2807 18.8359 12.2977 18.8719L12.4061 19.0614L12.4679 19.1656L12.5938 19.3661L12.6501 19.4505C12.7064 19.5406 12.77 19.6302 12.8325 19.7185L12.8376 19.7255C12.8474 19.7396 12.8584 19.7536 12.8659 19.7678C12.9198 19.8437 12.9783 19.9187 13.0346 19.993L13.0972 20.074L13.2506 20.2661L13.3091 20.3376C13.379 20.4218 13.4503 20.5049 13.5232 20.5865L13.5276 20.591C13.5305 20.5945 13.5333 20.5966 13.5361 20.6002C13.6067 20.6799 13.6791 20.7578 13.7534 20.8339L13.8233 20.9054L13.9969 21.0789L14.0678 21.1476C14.1459 21.2223 14.2253 21.2958 14.3057 21.368L14.3508 21.4073L14.5668 21.5932L14.6562 21.6659L14.8364 21.8066L14.9327 21.8812L15.2081 22.0825C15.2151 22.0872 15.2212 22.0923 15.2284 22.0971C15.293 22.1422 15.3587 22.1858 15.4245 22.2295L15.5096 22.2871L15.817 22.4786L15.902 22.5274L16.1329 22.659C16.1751 22.6821 16.2182 22.7041 16.2604 22.726L16.4254 22.8105L16.4634 22.8291L16.531 22.8623L16.7927 22.9856L16.8483 23.0138C16.9493 23.0586 17.051 23.1017 17.1534 23.1429L17.2278 23.1729L17.5157 23.2814L17.5517 23.2944C17.6581 23.3319 17.7651 23.3676 17.8727 23.4015L17.9501 23.425C18.0627 23.4588 18.1683 23.4992 18.2815 23.5208C25.4739 24.8598 27.5637 19.1217 27.5637 19.1217C25.809 21.4499 22.6943 22.0635 19.7435 21.3804C19.6317 21.3522 19.5232 21.3193 19.4141 21.2864L19.3319 21.2582C19.2256 21.225 19.12 21.1899 19.0149 21.1532L18.9713 21.1371C18.8776 21.1034 18.7844 21.0681 18.6917 21.0315L18.6129 21C18.5115 20.9593 18.4108 20.9167 18.311 20.8722L18.2508 20.8452L17.9963 20.7241L17.9232 20.6881C17.857 20.6548 17.7913 20.6208 17.726 20.5859L17.5946 20.5155C17.5151 20.472 17.4365 20.427 17.3587 20.3807L17.279 20.3355C17.1755 20.2734 17.0731 20.2096 16.9716 20.1441C16.9434 20.1258 16.9163 20.1065 16.8885 20.0879L16.6697 19.9398L16.5994 19.8892L16.3925 19.7371L16.3006 19.6666L16.114 19.518L16.0307 19.4505L15.7984 19.2535C15.7895 19.2456 15.7801 19.2383 15.7702 19.2317C15.6876 19.1576 15.6062 19.0821 15.526 19.0054L15.4572 18.9379L15.2814 18.7627L15.2129 18.6923C15.1397 18.6163 15.0679 18.539 14.9975 18.4604C14.9941 18.4564 14.9901 18.4528 14.9868 18.4491C14.9123 18.3661 14.8395 18.2815 14.7683 18.1957L14.7111 18.1265L14.5535 17.9285L14.4957 17.8554L14.3142 17.609C12.6758 15.3329 12.0902 12.1938 13.3964 9.61568L12.2374 11.1155ZM16.8544 9.28116C15.779 10.8577 15.8373 12.9674 16.6762 14.6347C16.8165 14.9146 16.9755 15.1848 17.152 15.4434C17.3131 15.6786 17.4918 15.9588 17.7057 16.1473C17.7832 16.2318 17.8642 16.3162 17.947 16.4025C17.9679 16.4241 17.9893 16.4446 18.0106 16.4664C18.091 16.546 18.1732 16.6239 18.2572 16.6997C18.2607 16.7026 18.2638 16.7059 18.2674 16.7087C18.362 16.7928 18.4588 16.8745 18.5577 16.9537L18.623 17.0054C18.7213 17.0828 18.8219 17.1574 18.9242 17.2295C18.9269 17.2318 18.9297 17.234 18.9327 17.2361C18.9777 17.2678 19.0241 17.2979 19.07 17.3283C19.0921 17.343 19.1128 17.3585 19.1348 17.3722C19.2082 17.4203 19.2827 17.4668 19.3581 17.5116L19.3896 17.5302L19.5867 17.6428C19.6098 17.6561 19.6333 17.6676 19.657 17.6799L19.7977 17.7526C19.8049 17.7563 19.8119 17.759 19.8186 17.7624C19.9135 17.8102 20.0089 17.8554 20.1066 17.899C20.1275 17.9083 20.1488 17.9167 20.1702 17.9257C20.2485 17.9597 20.3273 17.9923 20.4068 18.0234L20.508 18.0612C20.58 18.0879 20.6522 18.1135 20.7249 18.1381L20.8228 18.1698C20.9261 18.2027 21.0283 18.2438 21.1361 18.2621C26.6892 19.1991 27.9716 14.8444 27.9716 14.8444C26.816 16.5392 24.5781 17.3484 22.1896 16.7172C22.084 16.689 21.9791 16.658 21.8752 16.6242C21.8433 16.6144 21.8122 16.604 21.7806 16.5961C21.7068 16.5718 21.6335 16.546 21.5608 16.5189L21.4613 16.4813C21.3816 16.4531 21.3028 16.418 21.2249 16.3841C21.2034 16.3748 21.182 16.3664 21.161 16.3566C21.063 16.3137 20.9663 16.268 20.871 16.2194C20.822 16.195 20.7739 16.1694 20.7256 16.1439L20.6418 16.1001C20.5799 16.066 20.5186 16.0308 20.458 15.9945L20.4141 15.9664C20.3391 15.9215 20.265 15.8753 20.1917 15.8278C20.1691 15.8131 20.1472 15.7997 20.1247 15.7823L19.9805 15.6852C19.8787 15.6131 19.7786 15.5385 19.6804 15.4616L19.6128 15.4075C18.5675 14.5669 17.7386 13.4183 17.3448 12.1156C16.9318 10.7643 17.021 9.24824 17.7389 8.01769L16.8544 9.28116ZM20.7367 7.91075C20.1026 8.86114 20.0405 10.0414 20.4833 11.0909C20.9473 12.2049 21.898 13.079 23.0074 13.4932C23.0531 13.5106 23.099 13.526 23.1482 13.5419L23.2091 13.5616C23.2743 13.5824 23.3394 13.6065 23.4067 13.6197C26.4731 14.2229 27.3047 12.017 27.526 11.6924C26.7974 12.7609 25.5731 13.0173 24.0709 12.646C23.9526 12.6164 23.8217 12.5727 23.7048 12.5318C23.5578 12.4786 23.4137 12.4176 23.2733 12.349C23.0059 12.2179 22.7524 12.0603 22.5165 11.8785C21.1693 10.8397 20.3341 8.85831 21.2113 7.24469M13.9648 28.086L13.7572 28.8225L13.9648 28.0863V28.086ZM20.0694 26.3997H19.1178C19.0909 26.4006 19.0649 26.4103 19.0439 26.4273C19.0229 26.4442 19.008 26.4675 19.0014 26.4936L18.3256 29.6207C18.3189 29.6467 18.304 29.6699 18.2831 29.6868C18.2622 29.7037 18.2363 29.7133 18.2094 29.7143H17.5358C16.8691 29.7143 16.9463 29.2535 17.0852 28.622L17.0896 28.6029L17.1703 28.1722L17.2051 27.9948L17.5127 26.4936C17.5156 26.4822 17.5158 26.4702 17.5133 26.4586C17.5107 26.4471 17.5055 26.4363 17.498 26.4271C17.4906 26.418 17.481 26.4107 17.4702 26.4059C17.4594 26.401 17.4477 26.3988 17.4358 26.3994H16.4589C16.432 26.4003 16.4061 26.41 16.3852 26.4269C16.3643 26.4439 16.3494 26.4672 16.3429 26.4933L15.9028 28.5806C15.6608 29.6853 15.725 30.7389 17.0403 30.7718L17.0782 30.7726H19.1424C19.1693 30.7716 19.1952 30.7619 19.2162 30.745C19.2372 30.728 19.2521 30.7047 19.2587 30.6786L20.1488 26.4933C20.1601 26.4417 20.1254 26.3994 20.0728 26.3994L20.0694 26.3997ZM23.8664 29.7254C23.9194 29.7254 23.9508 29.7675 23.9432 29.8193L23.8509 30.2712L23.8664 29.7254Z" fill="white"/>
<path id="Vector_3" d="M21.3205 29.1437C21.3198 29.0941 21.3761 29.0091 21.4289 29.0091L21.3101 29.0071C21.2538 29.546 21.3205 29.1437 21.3205 29.1437ZM23.8663 29.7253C23.9194 29.7253 23.9508 29.7675 23.9432 29.8193L23.8357 30.3446L23.8663 29.7253ZM22.0959 30.8266H22.0514H22.1015H22.0959ZM8.10454 29.1549L8.25244 28.4995L8.08354 29.2484L8.06373 29.3424L8.10484 29.1544L8.10454 29.1549ZM9.87426 26.3889H8.82899C8.80195 26.3899 8.77593 26.3995 8.75479 26.4164C8.73365 26.4333 8.71852 26.4566 8.71163 26.4827L8.51339 27.3554C8.51009 27.3667 8.50957 27.3786 8.51185 27.3902C8.51413 27.4017 8.51916 27.4125 8.5265 27.4217C8.53385 27.4309 8.54329 27.4382 8.55405 27.443C8.56481 27.4478 8.57655 27.4499 8.5883 27.4492H9.64176C9.66869 27.4482 9.69458 27.4385 9.71556 27.4216C9.73655 27.4047 9.75152 27.3815 9.75823 27.3554L9.94977 26.4806C9.96094 26.4293 9.92713 26.387 9.87381 26.387L9.87426 26.3889ZM6.61022 32.5439L7.47229 32.5507C7.21775 32.5507 6.79759 32.546 6.60992 32.5437L6.61022 32.5439Z" fill="white"/>
<path id="Vector_4" d="M9.57136 27.75H8.5176C8.49056 27.751 8.46454 27.7607 8.4434 27.7776C8.42227 27.7945 8.40713 27.8177 8.40024 27.8439L8.10459 29.1546L8.06348 29.3427L7.78198 30.6808C7.76813 30.7432 7.75115 30.805 7.73134 30.8657C7.73134 30.8657 7.5343 31.4514 7.2038 31.4448L6.87583 31.4387C6.84891 31.4394 6.82292 31.4487 6.80164 31.4652C6.78037 31.4817 6.76493 31.5046 6.75757 31.5305L6.53937 32.449C6.53596 32.4602 6.53528 32.4721 6.53741 32.4836C6.53953 32.4952 6.5444 32.5061 6.55159 32.5153C6.55878 32.5246 6.56809 32.532 6.57874 32.537C6.58939 32.5419 6.60107 32.5442 6.6128 32.5437L7.47517 32.5507C8.30179 32.5507 8.73729 32.0926 9.0167 30.775L9.65015 27.8472C9.66147 27.7958 9.62706 27.7535 9.57419 27.7535L9.57136 27.75ZM24.5378 30.7731C24.4849 30.7731 24.4534 30.7309 24.4619 30.6791L25.2544 26.9669L24.5378 30.7731Z" fill="white"/>
<path id="Vector_5" d="M24.4733 30.7262C24.4669 30.7003 24.4706 30.6369 24.4818 30.5853L24.8578 28.8231L24.4615 30.6791C24.4502 30.731 24.4846 30.7731 24.5375 30.7731H24.6338C24.581 30.7731 24.4795 30.752 24.4733 30.7262ZM25.5769 30.752C25.5482 30.7633 25.4812 30.7731 25.4283 30.7731H25.5245C25.5514 30.772 25.5771 30.7623 25.5979 30.7453C25.6188 30.7283 25.6335 30.7049 25.6399 30.6789L25.6591 30.5849C25.6487 30.6366 25.6028 30.7405 25.5747 30.752H25.5769ZM28.9265 27.2155L28.9701 27.3958C28.9823 27.4473 28.9488 27.4891 28.8961 27.4894M25.9409 29.1874L25.9798 29.0004L26.131 28.2924L25.9599 29.0941L25.9409 29.1871V29.1874ZM25.2673 26.9059L25.2344 27.0606L24.8581 28.8231L25.2546 26.967L25.2673 26.9062V26.9059Z" fill="white"/>
<path id="Vector_6" d="M28.9705 27.3957L28.9268 27.2155L28.8622 26.934C28.7765 26.6017 28.5254 26.4095 27.9799 26.4095L25.4686 26.4078C25.4417 26.4087 25.4158 26.4184 25.3949 26.4354C25.3739 26.4523 25.3591 26.4757 25.3527 26.5018L25.3138 26.6857L25.2575 26.9635L24.485 30.582C24.4736 30.6339 24.4701 30.6946 24.4765 30.7228C24.483 30.7509 24.5843 30.7699 24.637 30.7699H25.4309C25.4838 30.7699 25.5505 30.7602 25.5795 30.7487C25.6086 30.7371 25.651 30.6361 25.664 30.5814L25.9653 29.091L26.2876 27.5809C26.2943 27.5548 26.3091 27.5317 26.3301 27.5148C26.351 27.4979 26.3768 27.4882 26.4036 27.4872L28.9015 27.486C28.9542 27.486 28.9877 27.4439 28.9755 27.3923L28.9705 27.3957ZM32.1864 25.7648L31.9941 25.7656H31.1946C31.1653 25.7674 31.1368 25.7754 31.1109 25.7891C31.0849 25.8028 31.0622 25.8218 31.0442 25.845L29.2762 28.4351C29.2465 28.4787 29.2124 28.4723 29.2003 28.4211L29.0701 27.8503C29.0631 27.8242 29.048 27.801 29.0269 27.7841C29.0057 27.7673 28.9798 27.7576 28.9527 27.7566H27.8163C27.7633 27.7566 27.7319 27.798 27.7465 27.849L28.2532 29.6333C28.2678 29.6839 28.2687 29.7675 28.256 29.819L28.0308 30.6826C28.0269 30.6936 28.0258 30.7055 28.0277 30.717C28.0296 30.7286 28.0344 30.7395 28.0417 30.7487C28.0489 30.7579 28.0583 30.7652 28.069 30.7699C28.0798 30.7747 28.0915 30.7766 28.1032 30.7757H29.2292C29.2564 30.7746 29.2825 30.765 29.3041 30.7484C29.3256 30.7317 29.3414 30.7088 29.3492 30.6827L29.5744 29.8193C29.592 29.7585 29.6197 29.7011 29.656 29.6494L32.5293 25.8395C32.5611 25.7972 32.544 25.7629 32.491 25.7634L32.1898 25.7654L32.1864 25.7648ZM23.1561 27.9993C23.1494 28.0556 23.0965 28.0979 23.0435 28.0979H21.6021C21.5523 28.0979 21.527 28.064 21.5346 28.0217L21.5356 28.0142L21.5422 27.9897C21.6829 27.6238 21.9603 27.3835 22.4869 27.3835C23.0802 27.3835 23.1959 27.6735 23.1557 27.9993H23.1561ZM22.7333 26.336C20.8837 26.336 20.4454 27.4588 20.1996 28.5919C19.9536 29.7469 19.9749 30.8272 21.8888 30.8272H22.1922L22.4259 30.8263L23.6438 30.819C23.6705 30.8178 23.6961 30.808 23.7167 30.791C23.7374 30.774 23.752 30.7507 23.7583 30.7247L23.9433 29.8205C23.954 29.7687 23.9194 29.7264 23.8664 29.7264H22.1457C21.4616 29.7264 21.2582 29.5445 21.3329 29.01H24.0836C24.1057 29.0097 24.1272 29.0028 24.1454 28.9902C24.1636 28.9775 24.1775 28.9597 24.1854 28.9391C24.1886 28.9314 24.1908 28.9233 24.1922 28.9151C24.6004 27.3752 24.4833 26.3372 22.7339 26.3372L22.7333 26.336ZM13.9908 27.9932L13.9648 28.0852L13.7572 28.8216L13.5494 29.5575C13.5408 29.5834 13.5245 29.6061 13.5027 29.6226C13.4809 29.6391 13.4546 29.6486 13.4273 29.6498H12.3275C11.4936 29.6498 11.2906 28.9976 11.4936 28.0356C11.6963 27.0517 12.0947 26.4398 12.9154 26.378C14.0369 26.2936 14.2611 27.0824 13.9908 27.9929V27.9932ZM14.7447 29.5935C14.7447 29.5935 15.2627 28.3351 15.381 27.608C15.5414 26.6347 15.0545 25.2234 13.1725 25.2234C11.301 25.2234 10.4886 26.5708 10.1788 28.0387C9.86896 29.5138 10.275 30.8078 12.1352 30.7977L14.9747 30.7873C15.0019 30.7859 15.028 30.7762 15.0496 30.7595C15.0711 30.7427 15.0869 30.7198 15.095 30.6937L15.3342 29.7822C15.338 29.7712 15.3391 29.7594 15.3372 29.7479C15.3354 29.7363 15.3308 29.7254 15.3238 29.7161C15.3167 29.7067 15.3074 29.6993 15.2966 29.6945C15.2859 29.6897 15.2741 29.6877 15.2624 29.6887L14.8044 29.6859C14.7594 29.6856 14.734 29.6567 14.739 29.6184C14.7401 29.6111 14.742 29.6039 14.7447 29.5969V29.5935Z" fill="white"/>
<path id="Vector_7" d="M24.008 28.7516C24.008 28.7683 24.0014 28.7844 23.9896 28.7962C23.9777 28.808 23.9617 28.8147 23.945 28.8147C23.9282 28.8147 23.9122 28.808 23.9004 28.7962C23.8885 28.7844 23.8819 28.7683 23.8819 28.7516C23.8819 28.7349 23.8885 28.7188 23.9004 28.707C23.9122 28.6952 23.9282 28.6885 23.945 28.6885C23.9617 28.6885 23.9777 28.6952 23.9896 28.707C24.0014 28.7188 24.008 28.7349 24.008 28.7516Z" fill="white"/>
</g>
<defs>
<linearGradient id="paint0_linear_490_74" x1="0.435608" y1="0.877319" x2="38.5644" y2="39.0062" gradientUnits="userSpaceOnUse">
<stop stop-color="#FF5C00"/>
<stop offset="1" stop-color="#FF0F00"/>
</linearGradient>
</defs>
</svg>
