<svg width="300" height="250" viewBox="0 0 300 250" fill="none" xmlns="http://www.w3.org/2000/svg">
<g clip-path="url(#clip0_691_42)">
<path d="M245.625 213C261.296 213 274 209.915 274 206.11C274 202.305 261.296 199.22 245.625 199.22C229.954 199.22 217.25 202.305 217.25 206.11C217.25 209.915 229.954 213 245.625 213Z" fill="#3F3D56"/>
<path d="M146.268 60.6312V151.808C146.267 152.894 145.833 153.935 145.062 154.703C144.29 155.471 143.244 155.903 142.152 155.903H104.97C104.43 155.904 103.894 155.798 103.395 155.593C102.895 155.387 102.441 155.086 102.059 154.705C101.677 154.325 101.373 153.873 101.167 153.376C100.96 152.879 100.854 152.346 100.855 151.808V60.6312C100.855 60.0932 100.961 59.5605 101.168 59.0634C101.375 58.5664 101.678 58.1147 102.06 57.7343C102.442 57.3539 102.896 57.0521 103.395 56.8462C103.895 56.6404 104.43 56.5344 104.97 56.5344H110.535V57.2453C110.535 58.1399 110.892 58.9979 111.528 59.6305C112.163 60.2631 113.025 60.6185 113.924 60.6185H132.834C133.732 60.6185 134.594 60.2631 135.23 59.6305C135.865 58.9979 136.222 58.1399 136.222 57.2453V56.5344H142.152C142.693 56.5342 143.228 56.6401 143.727 56.8459C144.227 57.0517 144.681 57.3535 145.063 57.734C145.445 58.1144 145.748 58.5661 145.955 59.0632C146.161 59.5604 146.268 60.0932 146.268 60.6312Z" fill="#46CC8F"/>
<path d="M144.64 71.7729H102.488V92.2116H144.64V71.7729Z" fill="#3F3D56"/>
<path d="M119.46 85.8071C120.563 89.8677 124.343 92.3825 124.343 92.3825C124.343 92.3825 126.333 88.3138 125.23 84.2532C124.126 80.1926 120.347 77.6777 120.347 77.6777C120.347 77.6777 118.356 81.7465 119.46 85.8071Z" fill="white"/>
<path d="M121.081 84.9344C124.109 87.8686 124.479 92.3792 124.479 92.3792C124.479 92.3792 119.94 92.1325 116.912 89.1982C113.884 86.264 113.514 81.7534 113.514 81.7534C113.514 81.7534 118.053 82.0001 121.081 84.9344Z" fill="#46CC8F"/>
<path d="M129.498 85.8071C128.394 89.8677 124.615 92.3825 124.615 92.3825C124.615 92.3825 122.624 88.3138 123.728 84.2532C124.831 80.1926 128.611 77.6777 128.611 77.6777C128.611 77.6777 130.601 81.7465 129.498 85.8071Z" fill="white"/>
<path d="M127.876 84.9344C124.848 87.8686 124.479 92.3792 124.479 92.3792C124.479 92.3792 129.018 92.1325 132.045 89.1982C135.073 86.264 135.443 81.7534 135.443 81.7534C135.443 81.7534 130.904 82.0001 127.876 84.9344Z" fill="#46CC8F"/>
<path d="M140.87 103.657H106.258V105.549H140.87V103.657Z" fill="#F0F0F0"/>
<path d="M140.87 106.705H106.258V108.596H140.87V106.705Z" fill="#F0F0F0"/>
<path d="M140.87 109.752H106.258V111.643H140.87V109.752Z" fill="#F0F0F0"/>
<path d="M140.87 112.799H106.258V114.69H140.87V112.799Z" fill="#F0F0F0"/>
<path d="M130.148 129.099L122.444 123.654L116.975 131.323L124.679 136.768L130.148 129.099Z" fill="#F0F0F0"/>
<path d="M124.609 138.745C124.178 138.745 123.757 138.618 123.398 138.379C123.04 138.141 122.76 137.802 122.595 137.405C122.43 137.009 122.387 136.572 122.471 136.151C122.555 135.73 122.763 135.344 123.068 135.04C123.373 134.736 123.761 134.53 124.184 134.446C124.607 134.362 125.045 134.405 125.444 134.57C125.842 134.734 126.183 135.012 126.422 135.369C126.662 135.726 126.79 136.145 126.79 136.575C126.789 137.15 126.559 137.702 126.15 138.109C125.742 138.516 125.187 138.745 124.609 138.745ZM124.609 134.766C124.25 134.766 123.899 134.872 123.6 135.071C123.301 135.27 123.068 135.552 122.931 135.883C122.793 136.213 122.757 136.577 122.827 136.928C122.898 137.279 123.071 137.601 123.325 137.854C123.579 138.107 123.903 138.279 124.255 138.349C124.607 138.419 124.973 138.383 125.305 138.246C125.637 138.109 125.92 137.877 126.12 137.58C126.32 137.282 126.426 136.933 126.426 136.575C126.426 136.095 126.234 135.635 125.894 135.296C125.553 134.957 125.091 134.767 124.609 134.766Z" fill="#3F3D56"/>
<path d="M71.4127 41.0968V132.273C71.4122 133.359 70.9784 134.401 70.2067 135.169C69.435 135.937 68.3885 136.368 67.2974 136.368H30.1152C29.5747 136.369 29.0393 136.264 28.5397 136.058C28.0401 135.853 27.5862 135.551 27.2039 135.171C26.8216 134.791 26.5184 134.339 26.3119 133.842C26.1053 133.344 25.9993 132.811 26 132.273V41.0968C26 40.5588 26.1064 40.026 26.3132 39.529C26.52 39.0319 26.8231 38.5803 27.2053 38.1999C27.5874 37.8194 28.0411 37.5177 28.5404 37.3118C29.0397 37.1059 29.5748 37 30.1152 37H35.6803V37.7108C35.6803 38.6055 36.0373 39.4635 36.6727 40.0961C37.3082 40.7287 38.1701 41.0841 39.0687 41.0841H57.9787C58.8774 41.0841 59.7393 40.7287 60.3747 40.0961C61.0102 39.4635 61.3672 38.6055 61.3672 37.7108V37H67.2974C67.8379 36.9998 68.3731 37.1057 68.8725 37.3115C69.3718 37.5173 69.8256 37.8191 70.2077 38.1995C70.5899 38.58 70.893 39.0317 71.0998 39.5288C71.3065 40.0259 71.4128 40.5587 71.4127 41.0968Z" fill="#F2F2F2"/>
<path d="M66.6963 86.7855H30.3589V54.4092H66.6963V86.7855ZM30.7223 86.4238H66.3329V54.7709H30.7223V86.4238Z" fill="#3F3D56"/>
<path d="M30.6616 54.4551L30.4194 54.7249L66.3935 86.7394L66.6356 86.4697L30.6616 54.4551Z" fill="#3F3D56"/>
<path d="M66.3935 54.4555L30.4189 86.4695L30.6611 86.7392L66.6357 54.7252L66.3935 54.4555Z" fill="#3F3D56"/>
<path d="M66.5145 96.1909H30.5405V96.5527H66.5145V96.1909Z" fill="#3F3D56"/>
<path d="M66.5145 99.4465H30.5405V99.8083H66.5145V99.4465Z" fill="#3F3D56"/>
<path d="M66.5145 102.702H30.5405V103.064H66.5145V102.702Z" fill="#3F3D56"/>
<path d="M48.5275 105.958H30.5405V106.32H48.5275V105.958Z" fill="#3F3D56"/>
<path d="M48.5275 109.214H30.5405V109.576H48.5275V109.214Z" fill="#3F3D56"/>
<path d="M220.941 41.0968V132.273C220.94 133.359 220.507 134.401 219.735 135.169C218.963 135.937 217.917 136.368 216.826 136.368H179.644C179.103 136.369 178.568 136.264 178.068 136.058C177.568 135.853 177.114 135.551 176.732 135.171C176.35 134.791 176.047 134.339 175.84 133.842C175.634 133.344 175.528 132.811 175.528 132.273V41.0968C175.528 40.5588 175.635 40.026 175.842 39.529C176.048 39.0319 176.351 38.5803 176.734 38.1999C177.116 37.8194 177.569 37.5177 178.069 37.3118C178.568 37.1059 179.103 37 179.644 37H185.209V37.7108C185.209 38.6055 185.566 39.4635 186.201 40.0961C186.837 40.7287 187.698 41.0841 188.597 41.0841H207.507C208.406 41.0841 209.268 40.7287 209.903 40.0961C210.539 39.4635 210.895 38.6055 210.896 37.7108V37H216.826C217.366 36.9998 217.901 37.1057 218.401 37.3115C218.9 37.5173 219.354 37.8191 219.736 38.1995C220.118 38.58 220.421 39.0317 220.628 39.5288C220.835 40.0259 220.941 40.5587 220.941 41.0968Z" fill="#F2F2F2"/>
<path d="M216.406 83.7107H180.432V84.0724H216.406V83.7107Z" fill="#3F3D56"/>
<path d="M216.406 93.116H180.432V93.4777H216.406V93.116Z" fill="#3F3D56"/>
<path d="M216.406 102.521H180.432V102.883H216.406V102.521Z" fill="#3F3D56"/>
<path d="M197.459 69.9787C200.721 69.9787 203.366 67.3463 203.366 64.099C203.366 60.8517 200.721 58.2192 197.459 58.2192C194.198 58.2192 191.553 60.8517 191.553 64.099C191.553 67.3463 194.198 69.9787 197.459 69.9787Z" fill="#46CC8F"/>
<path d="M209.865 82.0828H207.322V87.8707H209.865V82.0828Z" fill="#46CC8F"/>
<path d="M187.518 91.3074H184.974V97.0953H187.518V91.3074Z" fill="#46CC8F"/>
<path d="M202.416 100.532H199.873V106.32H202.416V100.532Z" fill="#46CC8F"/>
<path d="M198.235 70.6879C196.797 70.6879 195.392 70.2636 194.197 69.4686C193.002 68.6736 192.071 67.5436 191.52 66.2216C190.97 64.8996 190.827 63.4449 191.107 62.0415C191.387 60.638 192.08 59.3489 193.096 58.3371C194.112 57.3253 195.407 56.6362 196.817 56.357C198.227 56.0779 199.688 56.2212 201.016 56.7688C202.344 57.3163 203.479 58.2437 204.277 59.4334C205.076 60.6232 205.502 62.022 205.502 63.453C205.5 65.3711 204.734 67.2101 203.371 68.5664C202.009 69.9228 200.162 70.6857 198.235 70.6879ZM198.235 56.5798C196.869 56.5798 195.534 56.9829 194.399 57.7381C193.264 58.4933 192.379 59.5668 191.856 60.8227C191.334 62.0786 191.197 63.4606 191.463 64.7938C191.73 66.1271 192.387 67.3518 193.353 68.313C194.318 69.2743 195.549 69.9289 196.888 70.1941C198.227 70.4593 199.615 70.3232 200.877 69.8029C202.138 69.2827 203.217 68.4018 203.975 67.2715C204.734 66.1412 205.139 64.8123 205.139 63.4529C205.137 61.6307 204.409 59.8837 203.114 58.5952C201.82 57.3066 200.065 56.5818 198.235 56.5798Z" fill="#3F3D56"/>
<path d="M76.3216 84.8306L75.9658 85.123L90.5448 102.701L90.9005 102.408L76.3216 84.8306Z" fill="#3F3D56"/>
<path d="M92.4954 104.692C91.2863 103.994 89.6116 103.272 88.2925 103.056L90.4898 102.274L91.6762 100.274C91.6403 101.605 92.0357 103.378 92.4954 104.692Z" fill="#3F3D56"/>
<path d="M170.441 84.829L155.866 102.41L156.222 102.702L170.797 85.1215L170.441 84.829Z" fill="#3F3D56"/>
<path d="M154.269 104.692C154.728 103.378 155.124 101.604 155.088 100.274L156.275 102.274L158.472 103.055C157.153 103.272 155.478 103.994 154.269 104.692Z" fill="#3F3D56"/>
<path d="M260.504 123.778C260.504 123.778 260.504 157.308 255.199 169.48L242.972 196.809C242.972 196.809 235.128 196.35 234.667 193.135L243.895 164.657L249.431 147.892L250.815 121.711L260.504 123.778Z" fill="#2F2E41"/>
<path d="M252.892 124.696L250.815 138.706L252.2 169.48L252.892 186.475C252.892 186.475 255.66 194.053 254.737 194.742L252.892 196.12C252.892 196.12 245.51 195.202 245.279 194.742C245.048 194.283 240.665 159.605 240.665 159.605C240.665 159.605 231.668 131.586 232.129 131.127C232.591 130.668 234.667 123.778 234.667 123.778L252.892 124.696Z" fill="#2F2E41"/>
<path d="M254.506 193.823L255.429 199.106C255.429 199.106 257.967 209.9 255.429 209.9C252.892 209.9 248.278 206.914 248.047 205.077C247.816 203.239 248.508 194.972 248.508 194.972L254.506 193.823Z" fill="#2F2E41"/>
<path d="M242.741 195.661C242.741 195.661 244.587 199.335 245.74 199.795C246.894 200.254 252.146 203.258 249.059 205.201C245.971 207.144 242.741 205.306 242.741 205.306L232.129 199.565C232.129 199.565 233.514 193.823 235.59 193.364C237.666 192.905 242.741 195.661 242.741 195.661Z" fill="#2F2E41"/>
<path d="M240.434 73.0234C245.021 73.0234 248.739 69.3219 248.739 64.7557C248.739 60.1896 245.021 56.488 240.434 56.488C235.848 56.488 232.129 60.1896 232.129 64.7557C232.129 69.3219 235.848 73.0234 240.434 73.0234Z" fill="#FFB8B8"/>
<path d="M247.355 65.4446C247.355 65.4446 248.97 76.0089 250.585 77.3868C252.2 78.7648 247.125 83.5876 244.818 83.3579C242.511 83.1283 239.973 78.0758 239.973 78.0758C239.973 78.0758 240.665 71.4157 239.512 69.5784C238.358 67.7412 247.355 65.4446 247.355 65.4446Z" fill="#FFB8B8"/>
<path d="M245.509 78.9944L249.428 75.3938C250.688 76.9709 252.259 78.2744 254.045 79.2241C257.044 80.8317 248.278 97.3671 248.278 97.3671L234.206 79.9131C234.206 79.9131 238.681 76.9512 240.135 75.7911L245.509 78.9944Z" fill="#3F3D56"/>
<path d="M247.817 93.0037C247.817 93.0037 253.999 82.2742 253.33 78.7971C253.33 78.7971 262.35 81.0615 262.812 84.047C263.273 87.0326 258.428 97.8265 258.428 97.8265C258.428 97.8265 262.35 125.156 260.043 125.385C257.736 125.615 234.667 125.845 234.206 124.697C233.744 123.548 234.667 120.103 233.283 118.955C231.899 117.807 230.284 118.496 230.976 116.658C231.668 114.821 234.667 112.525 233.744 111.147C232.822 109.769 232.591 110.228 232.822 109.309C233.052 108.391 232.36 96.2189 232.36 96.2189C232.36 96.2189 227.516 82.8987 228.669 81.9801C229.823 81.0615 235.873 78.7971 235.873 78.7971L247.817 93.0037Z" fill="#3F3D56"/>
<path d="M266.272 128.83C266.272 128.83 265.58 138.017 261.658 137.557C257.736 137.098 262.35 127.223 262.35 127.223L266.272 128.83Z" fill="#FFB8B8"/>
<path d="M231.899 128.601C231.899 128.601 233.283 134.112 234.898 133.653V127.223L234.206 126.074L231.899 128.601Z" fill="#FFB8B8"/>
<path d="M247.208 65.9451C247.186 65.7072 247.105 65.4786 246.971 65.2802C246.836 65.129 246.661 65.0186 246.466 64.9617C245.952 64.803 245.397 64.8319 244.902 65.0432C244.406 65.2545 244.003 65.6344 243.763 66.1149C243.55 66.5774 243.448 67.1729 242.981 67.3789C242.438 67.6184 241.835 67.1086 241.622 66.5568C241.409 66.0049 241.403 65.3795 241.118 64.8604C240.781 64.2449 240.099 63.8822 239.41 63.7367C238.839 63.6162 238.14 63.5531 237.883 63.0317C237.8 62.8324 237.764 62.6167 237.779 62.4015C237.785 61.6338 237.924 60.873 238.191 60.1527C235.931 59.7034 233.92 61.8991 231.616 61.9345C231.324 61.9514 231.032 61.8945 230.768 61.7691C230.257 61.4972 230.035 60.8945 229.881 60.3381C229.717 59.7472 229.582 59.1493 229.477 58.5445L230.215 58.8815C230.009 58.4901 229.897 58.057 229.886 57.6155C230.267 57.5759 230.652 57.6083 231.02 57.7108L231.074 56.3939C231.644 57.1137 232.781 56.8607 233.639 56.5275C235.295 55.8844 236.942 55.1884 238.68 54.8173C240.417 54.4462 242.28 54.4189 243.923 55.0931C245.65 55.8016 246.981 57.2105 248.154 58.6577C248.804 59.4598 249.432 60.3029 249.783 61.2725C250.222 62.5853 250.217 64.0049 249.769 65.3147C249.391 66.4937 248.688 67.92 247.741 68.737C247.41 67.9024 247.365 66.8378 247.208 65.9451Z" fill="#2F2E41"/>
<path d="M231.437 81.291L228.438 81.98C228.438 81.98 224.978 85.6545 224.747 89.0994C224.517 92.5443 224.517 109.769 224.517 109.769L228.9 124.007C228.9 124.007 228.438 127.223 228.9 127.223C229.361 127.223 229.592 126.534 229.592 127.452C229.592 128.371 228.438 127.452 229.592 128.371L231.899 130.208L235.754 125.119C235.754 125.119 236.051 123.089 235.359 122.629C234.667 122.17 234.667 121.941 234.898 121.252C235.128 120.563 235.59 120.333 235.359 119.874C235.128 119.414 234.436 118.725 234.436 118.266C234.436 117.807 234.436 117.347 234.206 117.118C233.975 116.888 232.36 111.376 232.36 111.376L233.283 93.4629L231.437 81.291Z" fill="#3F3D56"/>
<path d="M260.505 82.4395L262.812 83.5877C262.812 83.5877 266.503 94.6113 266.503 104.257C266.503 113.903 267.195 120.333 267.195 120.333C267.195 120.333 268.348 123.089 267.887 123.089C267.425 123.089 266.964 123.089 267.425 123.778C267.887 124.467 268.118 124.237 267.887 124.926C267.656 125.615 267.425 124.467 267.656 125.615C267.887 126.763 267.656 127.223 267.195 127.223C266.733 127.223 266.733 130.208 266.733 130.208L261.197 128.141C261.197 128.141 262.12 126.993 261.889 126.534C261.749 126.247 261.67 125.934 261.658 125.615C261.658 125.615 262.812 125.386 261.658 124.926C260.505 124.467 260.966 124.467 261.197 123.089C261.428 121.711 262.12 121.941 261.428 121.711C260.735 121.481 256.583 100.123 256.583 100.123L260.505 82.4395Z" fill="#3F3D56"/>
<path d="M245.506 79.7573C245.888 79.7573 246.198 79.4489 246.198 79.0684C246.198 78.6879 245.888 78.3794 245.506 78.3794C245.124 78.3794 244.814 78.6879 244.814 79.0684C244.814 79.4489 245.124 79.7573 245.506 79.7573Z" fill="#2F2E41"/>
<path d="M245.506 82.054C245.888 82.054 246.198 81.7455 246.198 81.365C246.198 80.9845 245.888 80.676 245.506 80.676C245.124 80.676 244.814 80.9845 244.814 81.365C244.814 81.7455 245.124 82.054 245.506 82.054Z" fill="#2F2E41"/>
</g>
<defs>
<clipPath id="clip0_691_42">
<rect width="248" height="176" fill="white" transform="translate(26 37)"/>
</clipPath>
</defs>
</svg>
