<svg width="40" height="39" viewBox="0 0 40 39" fill="none" xmlns="http://www.w3.org/2000/svg">
<g id="Group 30">
<path id="Vector" d="M33.3565 0.797546H7.23463C3.64904 0.797546 0.74234 3.70424 0.74234 7.28984V32.4341C0.74234 36.0197 3.64904 38.9264 7.23463 38.9264H33.3565C36.9421 38.9264 39.8488 36.0197 39.8488 32.4341V7.28984C39.8488 3.70424 36.9421 0.797546 33.3565 0.797546Z" fill="#001E36"/>
<path id="Vector_2" d="M9.54803 27.5358V10.7723C9.54803 10.6501 9.60058 10.5887 9.70553 10.5887L9.87158 10.5882L10.1554 10.5852L10.5498 10.5774L11.8712 10.5494L13.2881 10.5231C13.7864 10.5146 14.2804 10.51 14.7701 10.51C16.0991 10.51 17.2184 10.6762 18.1281 11.0085C18.9487 11.286 19.697 11.7431 20.3187 12.3463C20.8457 12.8693 21.2529 13.5003 21.5123 14.1959C21.7577 14.8729 21.8821 15.5877 21.8797 16.3077C21.8797 17.7071 21.556 18.8614 20.9089 19.7706C20.276 20.6576 19.3932 21.336 18.3731 21.7192L18.2856 21.7513C17.2204 22.1486 16.0408 22.2922 14.7471 22.3012L14.546 22.3018L14.2477 22.3003L14.0972 22.2982L13.9295 22.2942L13.8284 22.2902L13.767 22.287L13.6159 22.2815L13.4312 22.2777L13.1532 22.2757L13.0913 22.2756V27.5096C13.0959 27.5417 13.093 27.5744 13.0827 27.6051C13.0725 27.6359 13.0552 27.6638 13.0323 27.6867C13.0094 27.7097 12.9814 27.7269 12.9507 27.7372C12.9199 27.7474 12.8872 27.7503 12.8551 27.7457H9.7318C9.60914 27.7457 9.54803 27.6761 9.54803 27.5358ZM13.0914 13.7368V19.2043C13.3008 19.2212 13.5108 19.23 13.7208 19.2306H14.5867C15.1836 19.2286 15.7771 19.1397 16.3484 18.9668L16.4624 18.9312C16.9822 18.7768 17.4466 18.4763 17.8004 18.0654C18.1292 17.6776 18.2995 17.1434 18.3112 16.4626L18.312 16.3864C18.3258 15.8789 18.1938 15.3782 17.9315 14.9436C17.6558 14.5232 17.2574 14.198 16.7904 14.0122C16.1805 13.7752 15.5292 13.6637 14.8752 13.6844L14.5425 13.6853L14.3326 13.6871L14.1324 13.6897L13.8497 13.6952L13.6435 13.701L13.5364 13.705L13.3933 13.7117L13.2714 13.7192L13.2019 13.7247L13.1419 13.7305L13.1154 13.7335L13.0914 13.7368ZM32.023 18.2102C31.5653 17.975 31.0799 17.7983 30.5782 17.6844L30.4621 17.6593C29.9101 17.5327 29.3465 17.4629 28.7803 17.4511L28.6389 17.4494C28.3069 17.4404 27.9755 17.4802 27.6551 17.5675C27.4511 17.6129 27.2698 17.729 27.1434 17.8953C27.0579 18.0284 27.0124 18.1832 27.0123 18.3414C27.0171 18.4948 27.0724 18.6423 27.1696 18.761C27.3089 18.9239 27.4763 19.0603 27.6638 19.1638L27.7206 19.1939C28.0947 19.3953 28.4801 19.5749 28.8749 19.7317C29.7553 20.0264 30.5966 20.4272 31.3801 20.9253C31.914 21.2622 32.3558 21.7265 32.6658 22.2765C32.9264 22.7971 33.0569 23.3732 33.0461 23.9553C33.0618 24.7241 32.8421 25.4794 32.4165 26.1198C31.9608 26.7698 31.3279 27.2751 30.5931 27.5756C29.8237 27.9138 28.8787 28.0884 27.7584 28.0998L27.642 28.1004C26.9474 28.1075 26.2539 28.0467 25.5712 27.919L25.4251 27.8906C24.8503 27.7851 24.2907 27.6089 23.7593 27.3658C23.7059 27.3382 23.6607 27.297 23.6285 27.2463C23.5962 27.1955 23.578 27.1372 23.5757 27.0771V24.2178C23.5725 24.19 23.577 24.1619 23.5885 24.1365C23.6001 24.1111 23.6184 24.0893 23.6413 24.0734C23.6639 24.0607 23.6897 24.0551 23.7155 24.0575C23.7413 24.0598 23.7657 24.0699 23.7855 24.0865C24.4132 24.4566 25.0947 24.7266 25.8055 24.8867C26.432 25.0438 27.0747 25.1274 27.7206 25.136C28.3326 25.136 28.7829 25.0572 29.0716 24.8998C29.202 24.8401 29.3123 24.744 29.3891 24.6229C29.466 24.5019 29.5061 24.3611 29.5046 24.2178C29.5046 23.9908 29.3733 23.772 29.1111 23.562C29.0011 23.474 28.8433 23.3782 28.638 23.2748L28.5397 23.2265L28.4349 23.1772L28.3799 23.1521L28.2648 23.1011C28.2448 23.0924 28.2248 23.0837 28.2047 23.0751L28.0795 23.0226L28.0142 22.9958L27.8789 22.9416L27.8086 22.9141L27.663 22.858L27.5107 22.8011C26.687 22.5144 25.9059 22.1172 25.189 21.6205C24.6762 21.2639 24.2539 20.7922 23.956 20.2432C23.698 19.7263 23.5676 19.1551 23.5757 18.5774C23.5742 17.8833 23.7648 17.2023 24.1265 16.6099C24.539 15.9576 25.1311 15.4382 25.8318 15.1146C26.6012 14.7302 27.563 14.5377 28.7174 14.5374C29.3935 14.5319 30.069 14.5802 30.7375 14.6817C31.2215 14.7431 31.6948 14.8711 32.1438 15.0621C32.2161 15.0829 32.2743 15.1362 32.3011 15.2065C32.319 15.2705 32.3277 15.3366 32.3274 15.4032V18.0528C32.3312 18.1155 32.3011 18.1755 32.2487 18.2102C32.2137 18.2276 32.175 18.2367 32.1359 18.2367C32.0967 18.2367 32.058 18.2276 32.023 18.2102Z" fill="#31A8FF"/>
</g>
</svg>
