<svg width="44" height="39" viewBox="0 0 44 39" fill="none" xmlns="http://www.w3.org/2000/svg">
<g id="Group">
<path id="Vector" d="M21.7053 23.8296C23.8525 23.8296 25.5932 22.0889 25.5932 19.9417C25.5932 17.7945 23.8525 16.0538 21.7053 16.0538C19.5581 16.0538 17.8174 17.7945 17.8174 19.9417C17.8174 22.0889 19.5581 23.8296 21.7053 23.8296Z" fill="#61DAFB"/>
<path id="Vector_2" d="M36.4725 13.5301C35.7222 13.2572 34.9378 12.9844 34.1193 12.7457C34.3239 11.9271 34.4944 11.1086 34.6309 10.3242C35.347 5.82244 34.5626 2.65072 32.38 1.42296C31.732 1.04781 31.0158 0.877289 30.1973 0.877289C27.81 0.877289 24.7747 2.65072 21.7053 5.61781C18.6358 2.65072 15.6005 0.877289 13.2132 0.877289C12.3947 0.877289 11.6785 1.04781 11.0305 1.42296C8.84786 2.68483 8.06345 5.85655 8.77965 10.3242C8.91606 11.1086 9.08659 11.9271 9.29121 12.7457C8.47271 12.9844 7.6883 13.2231 6.938 13.5301C2.67494 15.1671 0.355835 17.418 0.355835 19.9417C0.355835 22.4654 2.70905 24.7163 6.938 26.3534C7.6883 26.6262 8.47271 26.899 9.29121 27.1378C9.08659 27.9563 8.91606 28.7748 8.77965 29.5592C8.06345 34.061 8.84786 37.2327 11.0305 38.4605C11.6785 38.8356 12.3947 39.0061 13.2132 39.0061C15.6346 39.0061 18.67 37.2327 21.7053 34.2656C24.7747 37.2327 27.81 39.0061 30.1973 39.0061C31.0158 39.0061 31.732 38.8356 32.38 38.4605C34.5626 37.1986 35.347 34.0269 34.6309 29.5592C34.4944 28.7748 34.3239 27.9563 34.1193 27.1378C34.9378 26.899 35.7222 26.6603 36.4725 26.3534C40.7356 24.7163 43.0547 22.4654 43.0547 19.9417C43.0547 17.418 40.7356 15.1671 36.4725 13.5301ZM31.425 3.12819C32.8233 3.94669 33.3008 6.47043 32.721 10.0514C32.6187 10.7676 32.4482 11.5179 32.2435 12.3023C30.4701 11.893 28.5944 11.6202 26.6163 11.4497C25.4567 9.81267 24.2631 8.34617 23.0694 7.0161C25.5932 4.52647 28.151 2.82125 30.2314 2.82125C30.6747 2.82125 31.084 2.92356 31.425 3.12819ZM27.6053 23.3522C26.9914 24.4435 26.2753 25.5348 25.525 26.6262C24.2631 26.7285 23.0012 26.7626 21.7053 26.7626C20.3752 26.7626 19.1133 26.7285 17.8855 26.6262C17.1352 25.5348 16.4532 24.4435 15.8393 23.3522C15.1913 22.2267 14.5774 21.0672 14.0317 19.9417C14.5774 18.8163 15.1913 17.6567 15.8393 16.5313C16.4532 15.4399 17.1694 14.3486 17.9197 13.2572C19.1815 13.1549 20.4434 13.1208 21.7394 13.1208C23.0694 13.1208 24.3313 13.1549 25.5591 13.2572C26.3094 14.3486 26.9914 15.4399 27.6053 16.5313C28.2533 17.6567 28.8672 18.8163 29.4129 19.9417C28.8331 21.0672 28.2533 22.1926 27.6053 23.3522ZM30.436 22.2267C30.9476 23.4204 31.3568 24.5799 31.732 25.7395C30.5724 26.0123 29.3447 26.2169 28.0487 26.3875C28.4579 25.7395 28.9013 25.0574 29.2764 24.3412C29.6857 23.625 30.0609 22.9088 30.436 22.2267ZM21.7053 31.469C20.8867 30.5823 20.1023 29.6274 19.352 28.6384C20.1364 28.6725 20.9208 28.7066 21.7053 28.7066C22.4897 28.7066 23.2741 28.6725 24.0585 28.6384C23.3082 29.6274 22.5238 30.5823 21.7053 31.469ZM15.3618 26.3534C14.0658 26.1828 12.8381 25.9782 11.6785 25.7054C12.0537 24.5799 12.4629 23.3863 12.9745 22.1926C13.3496 22.8747 13.7248 23.5909 14.1341 24.273C14.5433 25.0233 14.9526 25.6713 15.3618 26.3534ZM12.9745 17.6567C12.4629 16.463 12.0537 15.3035 11.6785 14.1439C12.8381 13.8711 14.0658 13.6665 15.3618 13.496C14.9526 14.1439 14.5092 14.826 14.1341 15.5422C13.7248 16.2584 13.3496 16.9746 12.9745 17.6567ZM21.7053 8.41438C22.5238 9.3011 23.3082 10.256 24.0585 11.2451C23.2741 11.211 22.4897 11.1768 21.7053 11.1768C20.9208 11.1768 20.1364 11.211 19.352 11.2451C20.1023 10.256 20.8867 9.3011 21.7053 8.41438ZM29.2764 15.5763L28.0487 13.5301C29.3447 13.7006 30.5724 13.9052 31.732 14.178C31.3568 15.3035 30.9476 16.4972 30.436 17.6908C30.0609 16.9746 29.6857 16.2584 29.2764 15.5763ZM10.6895 10.0514C10.1097 6.47043 10.5872 3.94669 11.9855 3.12819C12.3265 2.92356 12.7358 2.82125 13.1791 2.82125C15.2254 2.82125 17.7832 4.49237 20.3411 7.0161C19.1474 8.31207 17.9538 9.81267 16.7942 11.4497C14.8161 11.6202 12.9404 11.9271 11.167 12.3023C10.9623 11.5179 10.8259 10.7676 10.6895 10.0514ZM2.26569 19.9417C2.26569 18.3388 4.20964 16.6336 7.62009 15.3717C8.30218 15.0989 9.05248 14.8601 9.80278 14.6555C10.3485 16.3607 11.0305 18.1683 11.8491 19.9758C11.0305 21.7833 10.3143 23.5568 9.80278 25.262C5.09636 23.8978 2.26569 21.8516 2.26569 19.9417ZM11.9855 36.7552C10.5872 35.9367 10.1097 33.413 10.6895 29.832C10.7918 29.1158 10.9623 28.3655 11.167 27.5811C12.9404 27.9904 14.8161 28.2632 16.7942 28.4337C17.9538 30.0707 19.1474 31.5372 20.3411 32.8673C17.8173 35.3569 15.2595 37.0622 13.1791 37.0622C12.7358 37.0622 12.3265 36.9599 11.9855 36.7552ZM32.721 29.832C33.3008 33.413 32.8233 35.9367 31.425 36.7552C31.084 36.9599 30.6747 37.0622 30.2314 37.0622C28.1851 37.0622 25.6273 35.391 23.0694 32.8673C24.2631 31.5713 25.4567 30.0707 26.6163 28.4337C28.5944 28.2632 30.4701 27.9563 32.2435 27.5811C32.4482 28.3655 32.5846 29.1158 32.721 29.832ZM35.7904 24.5117C35.1083 24.7845 34.358 25.0233 33.6077 25.2279C33.062 23.5227 32.38 21.7151 31.5615 19.9076C32.38 18.1001 33.0962 16.3266 33.6077 14.6214C38.3141 15.9856 41.1448 18.0319 41.1448 19.9417C41.1448 21.5446 39.1668 23.2498 35.7904 24.5117Z" fill="#61DAFB"/>
</g>
</svg>
