<svg width="65" height="39" viewBox="0 0 65 39" fill="none" xmlns="http://www.w3.org/2000/svg">
<path id="Vector" d="M32.7327 0.60022C24.259 0.60022 18.9649 4.83532 16.8449 13.309C20.0214 9.0734 23.7298 7.48512 27.9654 8.54414C30.3838 9.14689 32.1121 10.9005 34.0261 12.8438C37.1411 16.005 40.7466 19.6646 48.6206 19.6646C57.0937 19.6646 62.3884 15.429 64.5084 6.95337C61.3313 11.1915 57.6235 12.7797 53.3874 11.7207C50.9695 11.1175 49.2432 9.36435 47.3267 7.42107C44.2137 4.25988 40.6091 0.60022 32.7327 0.60022ZM16.8449 19.6646C8.37169 19.6646 3.07706 23.9002 0.957031 32.3759C4.13361 28.1378 7.84143 26.5495 12.0775 27.6086C14.496 28.2118 16.2243 29.9649 18.1382 31.9082C21.2533 35.0694 24.8588 38.7291 32.7327 38.7291C41.2059 38.7291 46.5005 34.4939 48.6206 26.0203C45.4435 30.2559 41.7357 31.8442 37.4996 30.7851C35.0816 30.1824 33.3553 28.4288 31.4388 26.4855C28.3258 23.3243 24.7213 19.6646 16.8449 19.6646Z" fill="#38BDF8"/>
</svg>
