<svg width="200" height="145" viewBox="0 0 200 145" fill="none" xmlns="http://www.w3.org/2000/svg">
<g id="undraw_programming_re_kg9v 1" clip-path="url(#clip0_490_114)">
<path id="Vector" d="M116.5 25.4481C120.248 25.4481 123.287 22.4325 123.287 18.7127C123.287 14.9928 120.248 11.9773 116.5 11.9773C112.751 11.9773 109.713 14.9928 109.713 18.7127C109.713 22.4325 112.751 25.4481 116.5 25.4481Z" fill="#F2F2F2"/>
<path id="Vector_2" d="M169.149 125.409C179.237 117.784 184.055 104.97 181.039 92.7465C180.964 92.4427 180.885 92.1397 180.801 91.8374C178.801 84.5817 173.854 77.6857 166.643 75.3673C160.588 73.4207 153.979 74.9176 147.663 74.1435C135.263 72.6239 125.65 62.6674 118.886 52.2429C112.122 41.8184 106.924 30.1496 97.9355 21.5374C83.1202 7.34167 58.9528 4.28531 40.584 13.5257C22.2152 22.7661 10.5144 43.2666 11.0134 63.698C11.5125 84.1294 23.7346 103.663 41.4842 114.027C48.0046 117.834 55.5462 120.532 63.0516 119.588C69.5639 118.769 75.4811 115.296 81.9628 114.265C92.1535 112.644 102.279 117.217 111.093 122.545C119.908 127.874 128.421 134.189 138.437 136.66C148.163 139.058 160.212 132.164 169.149 125.409Z" fill="#6ECBA1" fill-opacity="0.28"/>
<path id="Vector_3" d="M154.654 13.9547C154.433 13.8084 154.21 13.6697 153.988 13.5284C147.596 9.47111 140.744 6.17498 133.575 3.70815L131.912 26.4666H121.374V0.38595C120.71 0.249732 120.042 0.121082 119.373 0V26.4666H106.849C99.9548 26.4666 93.3427 23.7486 88.4675 18.9105C83.5924 14.0724 80.8535 7.51058 80.8535 0.668505C80.1825 0.81229 79.5165 0.966143 78.8505 1.13011V26.4666H68.65L67.0664 4.7651C59.6987 7.56924 52.7041 11.2568 46.2382 15.7458C46.1264 15.8214 46.0146 15.8996 45.9053 15.9753C45.3435 16.3663 44.7894 16.7649 44.2378 17.1685V103.992H74.3006L73.7693 96.6893L70.8462 56.5934H129.714L126.79 96.6893L126.259 103.992H155.989V14.8326C155.547 14.5349 155.102 14.2423 154.654 13.9547ZM78.8506 49.9717H70.3632L68.7949 28.4544H78.8506V49.9717ZM119.373 49.9717H105.118V49.5454C105.118 49.3405 105.078 49.1375 104.999 48.9482C104.919 48.7589 104.803 48.5869 104.657 48.4422C104.511 48.2974 104.338 48.1826 104.147 48.1044C103.956 48.0262 103.751 47.9861 103.545 47.9865H97.3478C97.1415 47.9864 96.9372 48.0266 96.7465 48.105C96.5559 48.1833 96.3827 48.2981 96.2368 48.4429C96.091 48.5877 95.9752 48.7595 95.8963 48.9487C95.8174 49.1379 95.7768 49.3406 95.7769 49.5454V49.9717H80.8536V28.4544H119.373V49.9717ZM121.374 49.9717V28.4544H131.767L130.199 49.9717H121.374Z" fill="#3F3D56"/>
<path id="Vector_4" d="M-1.52588e-05 109.552C2.20818 112.149 4.59659 114.589 7.14775 116.855L192.852 117.107C195.403 114.841 197.792 112.401 200 109.804L-1.52588e-05 109.552Z" fill="#3F3D56"/>
<path id="Vector_5" d="M125.932 86.1681V107.787C125.932 108.063 126.043 108.327 126.239 108.522C126.435 108.717 126.702 108.826 126.979 108.826H159.262C159.54 108.826 159.806 108.717 160.002 108.522C160.199 108.327 160.309 108.063 160.309 107.787V86.1681C160.309 85.8928 160.198 85.629 160.002 85.4345C159.806 85.24 159.54 85.1305 159.262 85.1302H126.979C126.702 85.1305 126.436 85.24 126.24 85.4345C126.043 85.629 125.933 85.8928 125.932 86.1681Z" fill="#3F3D56"/>
<path id="Vector_6" d="M126.69 86.4371V107.521C126.69 107.668 126.749 107.809 126.854 107.913C126.959 108.017 127.101 108.076 127.249 108.076H158.993C159.142 108.076 159.284 108.017 159.389 107.913C159.494 107.809 159.553 107.668 159.553 107.521V86.4371C159.553 86.2897 159.494 86.1483 159.389 86.044C159.284 85.9397 159.142 85.8809 158.993 85.8806H127.249C127.101 85.8809 126.958 85.9397 126.853 86.044C126.748 86.1483 126.69 86.2897 126.69 86.4371Z" fill="#6C63FF"/>
<path id="Vector_7" d="M125.257 112.004C125.316 112.077 125.391 112.137 125.477 112.177C125.563 112.218 125.656 112.239 125.751 112.238H160.319C160.413 112.238 160.506 112.217 160.592 112.177C160.677 112.136 160.752 112.077 160.812 112.005C160.871 111.932 160.914 111.847 160.936 111.755C160.958 111.664 160.96 111.569 160.94 111.477L160.404 108.948C160.381 108.845 160.334 108.749 160.264 108.669C160.195 108.589 160.107 108.527 160.008 108.49C159.936 108.462 159.859 108.447 159.782 108.447H126.286C126.208 108.447 126.132 108.462 126.06 108.49C125.96 108.527 125.872 108.589 125.803 108.669C125.734 108.749 125.686 108.845 125.664 108.948L125.127 111.477C125.108 111.569 125.11 111.664 125.132 111.755C125.155 111.846 125.197 111.931 125.257 112.004Z" fill="#2F2E41"/>
<path id="Vector_8" d="M158.596 109.537H159.412C159.481 109.537 159.536 109.482 159.536 109.414V109.026C159.536 108.958 159.481 108.903 159.412 108.903H158.596C158.527 108.903 158.472 108.958 158.472 109.026V109.414C158.472 109.482 158.527 109.537 158.596 109.537Z" fill="#3F3D56"/>
<path id="Vector_9" d="M156.467 109.537H157.283C157.352 109.537 157.407 109.482 157.407 109.414V109.026C157.407 108.958 157.352 108.903 157.283 108.903H156.467C156.398 108.903 156.342 108.958 156.342 109.026V109.414C156.342 109.482 156.398 109.537 156.467 109.537Z" fill="#3F3D56"/>
<path id="Vector_10" d="M154.337 109.537H155.154C155.222 109.537 155.278 109.482 155.278 109.414V109.026C155.278 108.958 155.222 108.903 155.154 108.903H154.337C154.269 108.903 154.213 108.958 154.213 109.026V109.414C154.213 109.482 154.269 109.537 154.337 109.537Z" fill="#3F3D56"/>
<path id="Vector_11" d="M152.208 109.537H153.024C153.093 109.537 153.148 109.482 153.148 109.414V109.026C153.148 108.958 153.093 108.903 153.024 108.903H152.208C152.139 108.903 152.084 108.958 152.084 109.026V109.414C152.084 109.482 152.139 109.537 152.208 109.537Z" fill="#3F3D56"/>
<path id="Vector_12" d="M150.079 109.537H150.895C150.964 109.537 151.019 109.482 151.019 109.414V109.026C151.019 108.958 150.964 108.903 150.895 108.903H150.079C150.01 108.903 149.954 108.958 149.954 109.026V109.414C149.954 109.482 150.01 109.537 150.079 109.537Z" fill="#3F3D56"/>
<path id="Vector_13" d="M147.949 109.537H148.766C148.834 109.537 148.89 109.482 148.89 109.414V109.026C148.89 108.958 148.834 108.903 148.766 108.903H147.949C147.881 108.903 147.825 108.958 147.825 109.026V109.414C147.825 109.482 147.881 109.537 147.949 109.537Z" fill="#3F3D56"/>
<path id="Vector_14" d="M145.82 109.537H146.636C146.705 109.537 146.76 109.482 146.76 109.414V109.026C146.76 108.958 146.705 108.903 146.636 108.903H145.82C145.751 108.903 145.696 108.958 145.696 109.026V109.414C145.696 109.482 145.751 109.537 145.82 109.537Z" fill="#3F3D56"/>
<path id="Vector_15" d="M143.691 109.537H144.507C144.576 109.537 144.631 109.482 144.631 109.414V109.026C144.631 108.958 144.576 108.903 144.507 108.903H143.691C143.622 108.903 143.567 108.958 143.567 109.026V109.414C143.567 109.482 143.622 109.537 143.691 109.537Z" fill="#3F3D56"/>
<path id="Vector_16" d="M141.561 109.537H142.378C142.446 109.537 142.502 109.482 142.502 109.414V109.026C142.502 108.958 142.446 108.903 142.378 108.903H141.561C141.493 108.903 141.437 108.958 141.437 109.026V109.414C141.437 109.482 141.493 109.537 141.561 109.537Z" fill="#3F3D56"/>
<path id="Vector_17" d="M139.432 109.537H140.248C140.317 109.537 140.372 109.482 140.372 109.414V109.026C140.372 108.958 140.317 108.903 140.248 108.903H139.432C139.363 108.903 139.308 108.958 139.308 109.026V109.414C139.308 109.482 139.363 109.537 139.432 109.537Z" fill="#3F3D56"/>
<path id="Vector_18" d="M137.303 109.537H138.119C138.188 109.537 138.243 109.482 138.243 109.414V109.026C138.243 108.958 138.188 108.903 138.119 108.903H137.303C137.234 108.903 137.179 108.958 137.179 109.026V109.414C137.179 109.482 137.234 109.537 137.303 109.537Z" fill="#3F3D56"/>
<path id="Vector_19" d="M135.173 109.537H135.99C136.058 109.537 136.114 109.482 136.114 109.414V109.026C136.114 108.958 136.058 108.903 135.99 108.903H135.173C135.105 108.903 135.049 108.958 135.049 109.026V109.414C135.049 109.482 135.105 109.537 135.173 109.537Z" fill="#3F3D56"/>
<path id="Vector_20" d="M133.044 109.537H133.86C133.929 109.537 133.984 109.482 133.984 109.414V109.026C133.984 108.958 133.929 108.903 133.86 108.903H133.044C132.975 108.903 132.92 108.958 132.92 109.026V109.414C132.92 109.482 132.975 109.537 133.044 109.537Z" fill="#3F3D56"/>
<path id="Vector_21" d="M130.915 109.537H131.731C131.8 109.537 131.855 109.482 131.855 109.414V109.026C131.855 108.958 131.8 108.903 131.731 108.903H130.915C130.846 108.903 130.791 108.958 130.791 109.026V109.414C130.791 109.482 130.846 109.537 130.915 109.537Z" fill="#3F3D56"/>
<path id="Vector_22" d="M128.785 109.537H129.602C129.67 109.537 129.726 109.482 129.726 109.414V109.026C129.726 108.958 129.67 108.903 129.602 108.903H128.785C128.717 108.903 128.661 108.958 128.661 109.026V109.414C128.661 109.482 128.717 109.537 128.785 109.537Z" fill="#3F3D56"/>
<path id="Vector_23" d="M126.656 109.537H127.472C127.541 109.537 127.597 109.482 127.597 109.414V109.026C127.597 108.958 127.541 108.903 127.472 108.903H126.656C126.587 108.903 126.532 108.958 126.532 109.026V109.414C126.532 109.482 126.587 109.537 126.656 109.537Z" fill="#3F3D56"/>
<path id="Vector_24" d="M158.621 110.593H159.438C159.506 110.593 159.562 110.538 159.562 110.47V110.083C159.562 110.015 159.506 109.959 159.438 109.959H158.621C158.553 109.959 158.497 110.015 158.497 110.083V110.47C158.497 110.538 158.553 110.593 158.621 110.593Z" fill="#3F3D56"/>
<path id="Vector_25" d="M156.492 110.593H157.308C157.377 110.593 157.432 110.538 157.432 110.47V110.083C157.432 110.015 157.377 109.959 157.308 109.959H156.492C156.423 109.959 156.368 110.015 156.368 110.083V110.47C156.368 110.538 156.423 110.593 156.492 110.593Z" fill="#3F3D56"/>
<path id="Vector_26" d="M154.362 110.593H155.179C155.247 110.593 155.303 110.538 155.303 110.47V110.083C155.303 110.015 155.247 109.959 155.179 109.959H154.362C154.294 109.959 154.238 110.015 154.238 110.083V110.47C154.238 110.538 154.294 110.593 154.362 110.593Z" fill="#3F3D56"/>
<path id="Vector_27" d="M152.233 110.593H153.05C153.118 110.593 153.174 110.538 153.174 110.47V110.083C153.174 110.015 153.118 109.959 153.05 109.959H152.233C152.165 109.959 152.109 110.015 152.109 110.083V110.47C152.109 110.538 152.165 110.593 152.233 110.593Z" fill="#3F3D56"/>
<path id="Vector_28" d="M150.104 110.593H150.92C150.989 110.593 151.044 110.538 151.044 110.47V110.083C151.044 110.015 150.989 109.959 150.92 109.959H150.104C150.035 109.959 149.98 110.015 149.98 110.083V110.47C149.98 110.538 150.035 110.593 150.104 110.593Z" fill="#3F3D56"/>
<path id="Vector_29" d="M147.974 110.593H148.791C148.859 110.593 148.915 110.538 148.915 110.47V110.083C148.915 110.015 148.859 109.959 148.791 109.959H147.974C147.906 109.959 147.85 110.015 147.85 110.083V110.47C147.85 110.538 147.906 110.593 147.974 110.593Z" fill="#3F3D56"/>
<path id="Vector_30" d="M145.845 110.593H146.662C146.73 110.593 146.786 110.538 146.786 110.47V110.083C146.786 110.015 146.73 109.959 146.662 109.959H145.845C145.777 109.959 145.721 110.015 145.721 110.083V110.47C145.721 110.538 145.777 110.593 145.845 110.593Z" fill="#3F3D56"/>
<path id="Vector_31" d="M143.716 110.593H144.532C144.601 110.593 144.656 110.538 144.656 110.47V110.083C144.656 110.015 144.601 109.959 144.532 109.959H143.716C143.647 109.959 143.592 110.015 143.592 110.083V110.47C143.592 110.538 143.647 110.593 143.716 110.593Z" fill="#3F3D56"/>
<path id="Vector_32" d="M141.586 110.593H142.403C142.471 110.593 142.527 110.538 142.527 110.47V110.083C142.527 110.015 142.471 109.959 142.403 109.959H141.586C141.518 109.959 141.462 110.015 141.462 110.083V110.47C141.462 110.538 141.518 110.593 141.586 110.593Z" fill="#3F3D56"/>
<path id="Vector_33" d="M139.457 110.593H140.274C140.342 110.593 140.398 110.538 140.398 110.47V110.083C140.398 110.015 140.342 109.959 140.274 109.959H139.457C139.389 109.959 139.333 110.015 139.333 110.083V110.47C139.333 110.538 139.389 110.593 139.457 110.593Z" fill="#3F3D56"/>
<path id="Vector_34" d="M137.328 110.593H138.144C138.213 110.593 138.268 110.538 138.268 110.47V110.083C138.268 110.015 138.213 109.959 138.144 109.959H137.328C137.259 109.959 137.204 110.015 137.204 110.083V110.47C137.204 110.538 137.259 110.593 137.328 110.593Z" fill="#3F3D56"/>
<path id="Vector_35" d="M135.198 110.593H136.015C136.083 110.593 136.139 110.538 136.139 110.47V110.083C136.139 110.015 136.083 109.959 136.015 109.959H135.198C135.13 109.959 135.074 110.015 135.074 110.083V110.47C135.074 110.538 135.13 110.593 135.198 110.593Z" fill="#3F3D56"/>
<path id="Vector_36" d="M133.069 110.593H133.886C133.954 110.593 134.01 110.538 134.01 110.47V110.083C134.01 110.015 133.954 109.959 133.886 109.959H133.069C133.001 109.959 132.945 110.015 132.945 110.083V110.47C132.945 110.538 133.001 110.593 133.069 110.593Z" fill="#3F3D56"/>
<path id="Vector_37" d="M130.94 110.593H131.756C131.825 110.593 131.88 110.538 131.88 110.47V110.083C131.88 110.015 131.825 109.959 131.756 109.959H130.94C130.871 109.959 130.816 110.015 130.816 110.083V110.47C130.816 110.538 130.871 110.593 130.94 110.593Z" fill="#3F3D56"/>
<path id="Vector_38" d="M128.81 110.593H129.627C129.695 110.593 129.751 110.538 129.751 110.47V110.083C129.751 110.015 129.695 109.959 129.627 109.959H128.81C128.742 109.959 128.686 110.015 128.686 110.083V110.47C128.686 110.538 128.742 110.593 128.81 110.593Z" fill="#3F3D56"/>
<path id="Vector_39" d="M126.681 110.593H127.498C127.566 110.593 127.622 110.538 127.622 110.47V110.083C127.622 110.015 127.566 109.959 127.498 109.959H126.681C126.613 109.959 126.557 110.015 126.557 110.083V110.47C126.557 110.538 126.613 110.593 126.681 110.593Z" fill="#3F3D56"/>
<path id="Vector_40" d="M140.948 111.861H149.217C149.285 111.861 149.341 111.806 149.341 111.738V111.35C149.341 111.282 149.285 111.227 149.217 111.227H140.948C140.879 111.227 140.824 111.282 140.824 111.35V111.738C140.824 111.806 140.879 111.861 140.948 111.861Z" fill="#3F3D56"/>
<path id="Vector_41" d="M132.187 90.4932H131.464C131.245 90.4932 131.067 90.6695 131.067 90.887C131.067 91.1044 131.245 91.2807 131.464 91.2807H132.187C132.406 91.2807 132.584 91.1044 132.584 90.887C132.584 90.6695 132.406 90.4932 132.187 90.4932Z" fill="white"/>
<path id="Vector_42" d="M140.454 90.4932H139.731C139.512 90.4932 139.334 90.6695 139.334 90.887C139.334 91.1044 139.512 91.2807 139.731 91.2807H140.454C140.673 91.2807 140.85 91.1044 140.85 90.887C140.85 90.6695 140.673 90.4932 140.454 90.4932Z" fill="white"/>
<path id="Vector_43" d="M142.796 90.4932H142.073C141.854 90.4932 141.676 90.6695 141.676 90.887C141.676 91.1044 141.854 91.2807 142.073 91.2807H142.796C143.015 91.2807 143.193 91.1044 143.193 90.887C143.193 90.6695 143.015 90.4932 142.796 90.4932Z" fill="white"/>
<path id="Vector_44" d="M138.205 90.4276H133.713C133.493 90.4276 133.316 90.6039 133.316 90.8213C133.316 91.0388 133.493 91.2151 133.713 91.2151H138.205C138.424 91.2151 138.602 91.0388 138.602 90.8213C138.602 90.6039 138.424 90.4276 138.205 90.4276Z" fill="white"/>
<path id="Vector_45" d="M149.228 90.4276H144.735C144.516 90.4276 144.338 90.6039 144.338 90.8213C144.338 91.0388 144.516 91.2151 144.735 91.2151H149.228C149.447 91.2151 149.624 91.0388 149.624 90.8213C149.624 90.6039 149.447 90.4276 149.228 90.4276Z" fill="white"/>
<path id="Vector_46" d="M134.391 92.2708H133.668C133.449 92.2708 133.272 92.4471 133.272 92.6645C133.272 92.882 133.449 93.0583 133.668 93.0583H134.391C134.61 93.0583 134.788 92.882 134.788 92.6645C134.788 92.4471 134.61 92.2708 134.391 92.2708Z" fill="white"/>
<path id="Vector_47" d="M142.658 92.2708H141.935C141.716 92.2708 141.539 92.4471 141.539 92.6645C141.539 92.882 141.716 93.0583 141.935 93.0583H142.658C142.877 93.0583 143.055 92.882 143.055 92.6645C143.055 92.4471 142.877 92.2708 142.658 92.2708Z" fill="white"/>
<path id="Vector_48" d="M145 92.2708H144.278C144.059 92.2708 143.881 92.4471 143.881 92.6645C143.881 92.882 144.059 93.0583 144.278 93.0583H145C145.22 93.0583 145.397 92.882 145.397 92.6645C145.397 92.4471 145.22 92.2708 145 92.2708Z" fill="white"/>
<path id="Vector_49" d="M140.41 92.2051H135.917C135.698 92.2051 135.52 92.3814 135.52 92.5989C135.52 92.8164 135.698 92.9927 135.917 92.9927H140.41C140.629 92.9927 140.806 92.8164 140.806 92.5989C140.806 92.3814 140.629 92.2051 140.41 92.2051Z" fill="white"/>
<path id="Vector_50" d="M151.432 92.2051H146.94C146.721 92.2051 146.543 92.3814 146.543 92.5989C146.543 92.8164 146.721 92.9927 146.94 92.9927H151.432C151.651 92.9927 151.829 92.8164 151.829 92.5989C151.829 92.3814 151.651 92.2051 151.432 92.2051Z" fill="white"/>
<path id="Vector_51" d="M136.596 94.0483H135.873C135.654 94.0483 135.476 94.2246 135.476 94.4421C135.476 94.6596 135.654 94.8359 135.873 94.8359H136.596C136.815 94.8359 136.993 94.6596 136.993 94.4421C136.993 94.2246 136.815 94.0483 136.596 94.0483Z" fill="white"/>
<path id="Vector_52" d="M144.863 94.0483H144.14C143.921 94.0483 143.743 94.2246 143.743 94.4421C143.743 94.6596 143.921 94.8359 144.14 94.8359H144.863C145.082 94.8359 145.26 94.6596 145.26 94.4421C145.26 94.2246 145.082 94.0483 144.863 94.0483Z" fill="white"/>
<path id="Vector_53" d="M147.205 94.0483H146.482C146.263 94.0483 146.085 94.2246 146.085 94.4421C146.085 94.6596 146.263 94.8359 146.482 94.8359H147.205C147.424 94.8359 147.602 94.6596 147.602 94.4421C147.602 94.2246 147.424 94.0483 147.205 94.0483Z" fill="white"/>
<path id="Vector_54" d="M142.614 93.9827H138.122C137.902 93.9827 137.725 94.159 137.725 94.3765C137.725 94.5939 137.902 94.7702 138.122 94.7702H142.614C142.833 94.7702 143.011 94.5939 143.011 94.3765C143.011 94.159 142.833 93.9827 142.614 93.9827Z" fill="white"/>
<path id="Vector_55" d="M153.637 93.9827H149.144C148.925 93.9827 148.747 94.159 148.747 94.3765C148.747 94.5939 148.925 94.7702 149.144 94.7702H153.637C153.856 94.7702 154.034 94.5939 154.034 94.3765C154.034 94.159 153.856 93.9827 153.637 93.9827Z" fill="white"/>
<path id="Vector_56" d="M138.8 95.8259H138.077C137.858 95.8259 137.681 96.0022 137.681 96.2197C137.681 96.4371 137.858 96.6134 138.077 96.6134H138.8C139.019 96.6134 139.197 96.4371 139.197 96.2197C139.197 96.0022 139.019 95.8259 138.8 95.8259Z" fill="white"/>
<path id="Vector_57" d="M147.067 95.8259H146.344C146.125 95.8259 145.948 96.0022 145.948 96.2197C145.948 96.4371 146.125 96.6134 146.344 96.6134H147.067C147.286 96.6134 147.464 96.4371 147.464 96.2197C147.464 96.0022 147.286 95.8259 147.067 95.8259Z" fill="white"/>
<path id="Vector_58" d="M149.41 95.8259H148.687C148.468 95.8259 148.29 96.0022 148.29 96.2197C148.29 96.4371 148.468 96.6134 148.687 96.6134H149.41C149.629 96.6134 149.806 96.4371 149.806 96.2197C149.806 96.0022 149.629 95.8259 149.41 95.8259Z" fill="white"/>
<path id="Vector_59" d="M144.819 95.7602H140.326C140.107 95.7602 139.929 95.9365 139.929 96.154C139.929 96.3715 140.107 96.5478 140.326 96.5478H144.819C145.038 96.5478 145.215 96.3715 145.215 96.154C145.215 95.9365 145.038 95.7602 144.819 95.7602Z" fill="white"/>
<path id="Vector_60" d="M140.454 102.894H139.731C139.512 102.894 139.334 103.07 139.334 103.288C139.334 103.505 139.512 103.682 139.731 103.682H140.454C140.673 103.682 140.85 103.505 140.85 103.288C140.85 103.07 140.673 102.894 140.454 102.894Z" fill="white"/>
<path id="Vector_61" d="M142.796 102.894H142.073C141.854 102.894 141.676 103.07 141.676 103.288C141.676 103.505 141.854 103.682 142.073 103.682H142.796C143.015 103.682 143.193 103.505 143.193 103.288C143.193 103.07 143.015 102.894 142.796 102.894Z" fill="white"/>
<path id="Vector_62" d="M149.228 102.96H144.735C144.516 102.96 144.338 103.136 144.338 103.354C144.338 103.571 144.516 103.747 144.735 103.747H149.228C149.447 103.747 149.624 103.571 149.624 103.354C149.624 103.136 149.447 102.96 149.228 102.96Z" fill="white"/>
<path id="Vector_63" d="M132.187 102.894H131.464C131.245 102.894 131.067 103.07 131.067 103.288C131.067 103.505 131.245 103.682 131.464 103.682H132.187C132.406 103.682 132.584 103.505 132.584 103.288C132.584 103.07 132.406 102.894 132.187 102.894Z" fill="white"/>
<path id="Vector_64" d="M138.205 102.96H133.713C133.493 102.96 133.316 103.136 133.316 103.354C133.316 103.571 133.493 103.747 133.713 103.747H138.205C138.424 103.747 138.602 103.571 138.602 103.354C138.602 103.136 138.424 102.96 138.205 102.96Z" fill="white"/>
<path id="Vector_65" d="M134.391 101.117H133.668C133.449 101.117 133.272 101.293 133.272 101.51C133.272 101.728 133.449 101.904 133.668 101.904H134.391C134.61 101.904 134.788 101.728 134.788 101.51C134.788 101.293 134.61 101.117 134.391 101.117Z" fill="white"/>
<path id="Vector_66" d="M142.658 101.117H141.935C141.716 101.117 141.539 101.293 141.539 101.51C141.539 101.728 141.716 101.904 141.935 101.904H142.658C142.877 101.904 143.055 101.728 143.055 101.51C143.055 101.293 142.877 101.117 142.658 101.117Z" fill="white"/>
<path id="Vector_67" d="M145 101.117H144.278C144.059 101.117 143.881 101.293 143.881 101.51C143.881 101.728 144.059 101.904 144.278 101.904H145C145.22 101.904 145.397 101.728 145.397 101.51C145.397 101.293 145.22 101.117 145 101.117Z" fill="white"/>
<path id="Vector_68" d="M140.41 101.182H135.917C135.698 101.182 135.52 101.359 135.52 101.576C135.52 101.794 135.698 101.97 135.917 101.97H140.41C140.629 101.97 140.806 101.794 140.806 101.576C140.806 101.359 140.629 101.182 140.41 101.182Z" fill="white"/>
<path id="Vector_69" d="M136.596 99.3391H135.873C135.654 99.3391 135.476 99.5154 135.476 99.7328C135.476 99.9503 135.654 100.127 135.873 100.127H136.596C136.815 100.127 136.993 99.9503 136.993 99.7328C136.993 99.5154 136.815 99.3391 136.596 99.3391Z" fill="white"/>
<path id="Vector_70" d="M144.863 99.3391H144.14C143.921 99.3391 143.743 99.5154 143.743 99.7328C143.743 99.9503 143.921 100.127 144.14 100.127H144.863C145.082 100.127 145.26 99.9503 145.26 99.7328C145.26 99.5154 145.082 99.3391 144.863 99.3391Z" fill="white"/>
<path id="Vector_71" d="M147.205 99.3391H146.482C146.263 99.3391 146.085 99.5154 146.085 99.7328C146.085 99.9503 146.263 100.127 146.482 100.127H147.205C147.424 100.127 147.602 99.9503 147.602 99.7328C147.602 99.5154 147.424 99.3391 147.205 99.3391Z" fill="white"/>
<path id="Vector_72" d="M142.614 99.4047H138.122C137.902 99.4047 137.725 99.581 137.725 99.7985C137.725 100.016 137.902 100.192 138.122 100.192H142.614C142.833 100.192 143.011 100.016 143.011 99.7985C143.011 99.581 142.833 99.4047 142.614 99.4047Z" fill="white"/>
<path id="Vector_73" d="M138.8 97.5615H138.077C137.858 97.5615 137.681 97.7378 137.681 97.9553C137.681 98.1728 137.858 98.3491 138.077 98.3491H138.8C139.019 98.3491 139.197 98.1728 139.197 97.9553C139.197 97.7378 139.019 97.5615 138.8 97.5615Z" fill="white"/>
<path id="Vector_74" d="M147.067 97.5615H146.344C146.125 97.5615 145.948 97.7378 145.948 97.9553C145.948 98.1728 146.125 98.3491 146.344 98.3491H147.067C147.286 98.3491 147.464 98.1728 147.464 97.9553C147.464 97.7378 147.286 97.5615 147.067 97.5615Z" fill="white"/>
<path id="Vector_75" d="M149.41 97.5615H148.687C148.468 97.5615 148.29 97.7378 148.29 97.9553C148.29 98.1728 148.468 98.3491 148.687 98.3491H149.41C149.629 98.3491 149.806 98.1728 149.806 97.9553C149.806 97.7378 149.629 97.5615 149.41 97.5615Z" fill="white"/>
<path id="Vector_76" d="M144.819 97.6271H140.326C140.107 97.6271 139.929 97.8034 139.929 98.0209C139.929 98.2384 140.107 98.4147 140.326 98.4147H144.819C145.038 98.4147 145.215 98.2384 145.215 98.0209C145.215 97.8034 145.038 97.6271 144.819 97.6271Z" fill="white"/>
<path id="Vector_77" d="M128.344 123.726L124.951 118.403L135.601 109.977L139.998 105.144C140.569 104.516 141.296 104.048 142.107 103.786C142.917 103.524 143.783 103.478 144.617 103.653C145.451 103.827 146.225 104.216 146.86 104.78C147.495 105.344 147.971 106.063 148.238 106.866C148.634 108.057 148.549 109.353 148 110.482C147.452 111.611 146.482 112.485 145.297 112.918L138.345 115.46L128.344 123.726Z" fill="#FFB6B6"/>
<path id="Vector_78" d="M48.7253 85.1312V111.002H66.9886V85.1312C66.989 84.9451 66.9291 84.7639 66.8179 84.614C66.7068 84.4642 66.5501 84.3537 66.371 84.2988C66.2865 84.2711 66.1981 84.2575 66.1092 84.2584H49.6073C49.4916 84.2582 49.377 84.2806 49.2701 84.3243C49.1631 84.3681 49.0659 84.4323 48.984 84.5134C48.9021 84.5945 48.8371 84.6907 48.7927 84.7967C48.7483 84.9028 48.7254 85.0164 48.7253 85.1312ZM55.8527 94.0207C55.8574 93.5106 56.0649 93.0231 56.4301 92.6641C56.7952 92.3051 57.2883 92.1037 57.8023 92.1037C58.3163 92.1037 58.8094 92.3051 59.1745 92.6641C59.5396 93.0231 59.7471 93.5106 59.7519 94.0207V97.0225C59.7493 97.5339 59.5427 98.0235 59.1774 98.3842C58.812 98.745 58.3176 98.9474 57.8023 98.9474C57.2869 98.9474 56.7926 98.745 56.4272 98.3842C56.0619 98.0235 55.8553 97.5339 55.8527 97.0225V94.0207Z" fill="#2F2E41"/>
<path id="Vector_79" d="M48.6693 110.175V112.67C48.6698 112.799 48.7215 112.923 48.8133 113.015C48.9052 113.106 49.0297 113.158 49.1599 113.159H66.554C66.6843 113.159 66.8091 113.107 66.9011 113.015C66.993 112.923 67.0446 112.799 67.0446 112.67V110.175H48.6693Z" fill="#3F3D56"/>
<path id="Vector_80" d="M19.9944 46.1528V93.39C19.9949 93.992 20.2361 94.5692 20.665 94.9948C21.0939 95.4205 21.6755 95.6598 22.2821 95.6603H92.8192C93.4258 95.6598 94.0074 95.4205 94.4363 94.9948C94.8652 94.5692 95.1064 93.992 95.1069 93.39V46.1528C95.1054 45.5513 94.8639 44.975 94.4351 44.5499C94.0063 44.1249 93.4253 43.8858 92.8192 43.885H22.2821C21.676 43.8858 21.095 44.1249 20.6662 44.5499C20.2374 44.975 19.9958 45.5513 19.9944 46.1528Z" fill="#3F3D56"/>
<path id="Vector_81" d="M21.6492 46.7405V92.8073C21.6497 93.129 21.7787 93.4372 22.0079 93.6647C22.2371 93.8921 22.5477 94.0201 22.8718 94.0207H92.232C92.5561 94.0201 92.8668 93.8921 93.0959 93.6647C93.3251 93.4372 93.4541 93.129 93.4547 92.8073V46.7405C93.4546 46.4185 93.3259 46.1096 93.0967 45.8817C92.8675 45.6538 92.5565 45.5254 92.232 45.5247H22.8718C22.5473 45.5254 22.2364 45.6538 22.0072 45.8817C21.7779 46.1096 21.6492 46.4185 21.6492 46.7405Z" fill="white"/>
<path id="Vector_82" d="M34.5212 112.99C34.5918 113.078 34.6816 113.149 34.7837 113.197C34.8858 113.246 34.9977 113.271 35.1109 113.27H76.3758C76.4886 113.27 76.6001 113.245 76.7019 113.197C76.8037 113.149 76.8935 113.078 76.9646 112.991C77.0357 112.904 77.0863 112.803 77.1129 112.694C77.1394 112.585 77.1412 112.472 77.118 112.362L76.4775 109.343C76.4509 109.22 76.3938 109.105 76.3112 109.009C76.2286 108.914 76.1232 108.84 76.0047 108.795C75.9188 108.762 75.8275 108.745 75.7352 108.745H35.749C35.6568 108.745 35.5654 108.762 35.4795 108.795C35.361 108.84 35.2556 108.914 35.173 109.009C35.0904 109.105 35.0333 109.22 35.0067 109.343L34.3662 112.362C34.3434 112.472 34.3455 112.585 34.3723 112.694C34.3991 112.802 34.45 112.904 34.5212 112.99Z" fill="#2F2E41"/>
<path id="Vector_83" d="M89.9811 51.8706H25.081C25.0135 51.8691 24.9493 51.8414 24.9022 51.7936C24.855 51.7457 24.8286 51.6814 24.8286 51.6144C24.8286 51.5475 24.855 51.4832 24.9022 51.4353C24.9493 51.3874 25.0135 51.3598 25.081 51.3583H89.9811C90.0485 51.3598 90.1127 51.3874 90.1599 51.4353C90.2071 51.4832 90.2335 51.5475 90.2335 51.6144C90.2335 51.6814 90.2071 51.7457 90.1599 51.7936C90.1127 51.8414 90.0485 51.8691 89.9811 51.8706Z" fill="#3F3D56"/>
<path id="Vector_84" d="M29.4988 50.0506C30.3342 50.0506 31.0113 49.3636 31.0113 48.5161C31.0113 47.6686 30.3342 46.9816 29.4988 46.9816C28.6635 46.9816 27.9863 47.6686 27.9863 48.5161C27.9863 49.3636 28.6635 50.0506 29.4988 50.0506Z" fill="#3F3D56"/>
<path id="Vector_85" d="M34.7239 50.0506C35.5593 50.0506 36.2364 49.3636 36.2364 48.5161C36.2364 47.6686 35.5593 46.9816 34.7239 46.9816C33.8886 46.9816 33.2114 47.6686 33.2114 48.5161C33.2114 49.3636 33.8886 50.0506 34.7239 50.0506Z" fill="#3F3D56"/>
<path id="Vector_86" d="M39.949 50.0506C40.7843 50.0506 41.4615 49.3636 41.4615 48.5161C41.4615 47.6686 40.7843 46.9816 39.949 46.9816C39.1137 46.9816 38.4365 47.6686 38.4365 48.5161C38.4365 49.3636 39.1137 50.0506 39.949 50.0506Z" fill="#3F3D56"/>
<path id="Vector_87" d="M86.8347 47.3611H83.1236C83.0502 47.3628 82.9804 47.3929 82.9291 47.445C82.8778 47.4971 82.8491 47.567 82.8491 47.6398C82.8491 47.7126 82.8778 47.7826 82.9291 47.8347C82.9804 47.8868 83.0502 47.9169 83.1236 47.9186H86.8347C86.9085 47.9175 86.9789 47.8877 87.0308 47.8355C87.0826 47.7834 87.1116 47.7131 87.1116 47.6398C87.1116 47.5666 87.0826 47.4963 87.0308 47.4441C86.9789 47.3919 86.9085 47.3621 86.8347 47.3611Z" fill="#3F3D56"/>
<path id="Vector_88" d="M86.8347 48.408H83.1235C83.0501 48.4096 82.9803 48.4396 82.9289 48.4917C82.8776 48.5438 82.8488 48.6138 82.8488 48.6867C82.8488 48.7596 82.8776 48.8296 82.9289 48.8817C82.9803 48.9338 83.0501 48.9638 83.1235 48.9654H86.8347C86.9086 48.9646 86.9792 48.9348 87.0311 48.8826C87.0831 48.8304 87.1122 48.7601 87.1122 48.6867C87.1122 48.6134 87.0831 48.543 87.0311 48.4908C86.9792 48.4386 86.9086 48.4088 86.8347 48.408Z" fill="#3F3D56"/>
<path id="Vector_89" d="M86.8347 49.4548H83.1236C83.0502 49.4565 82.9804 49.4866 82.9291 49.5387C82.8778 49.5908 82.8491 49.6607 82.8491 49.7335C82.8491 49.8063 82.8778 49.8763 82.9291 49.9284C82.9804 49.9804 83.0502 50.0106 83.1236 50.0123H86.8347C86.9085 50.0112 86.9789 49.9814 87.0308 49.9292C87.0826 49.8771 87.1116 49.8068 87.1116 49.7335C87.1116 49.6603 87.0826 49.59 87.0308 49.5378C86.9789 49.4856 86.9085 49.4558 86.8347 49.4548Z" fill="#3F3D56"/>
<path id="Vector_90" d="M176.304 111.27C176.416 111.594 176.628 111.874 176.91 112.07C177.193 112.266 177.53 112.369 177.875 112.363L184.609 112.191C184.956 112.184 185.292 112.066 185.566 111.854C185.84 111.642 186.038 111.348 186.129 111.016L187.082 100.904C187.42 101.056 187.788 101.131 188.16 101.123C188.482 101.115 188.8 101.044 189.094 100.914C189.389 100.785 189.655 100.598 189.877 100.366C190.1 100.134 190.274 99.8614 190.39 99.5627C190.506 99.2641 190.561 98.9457 190.553 98.6257C190.545 98.3058 190.473 97.9905 190.342 97.698C190.212 97.4055 190.024 97.1414 189.79 96.9209C189.557 96.7003 189.281 96.5276 188.98 96.4126C188.679 96.2976 188.359 96.2425 188.036 96.2505C187.888 96.2501 187.74 96.2653 187.595 96.2961C187.437 96.1267 187.245 95.992 187.032 95.9006C186.819 95.8093 186.588 95.7633 186.356 95.7656L175.998 96.031C175.912 96.0342 175.826 96.0447 175.742 96.0625C175.515 96.1045 175.3 96.1944 175.11 96.326C174.921 96.4575 174.762 96.6278 174.645 96.8254C174.528 97.0229 174.454 97.2431 174.43 97.4711C174.406 97.6991 174.431 97.9297 174.504 98.1473L176.304 111.27ZM187.278 100.217L187.956 97.8072C188.033 97.5289 188.035 97.2353 187.961 96.956C187.994 96.9559 188.023 96.9404 188.056 96.9403C188.521 96.9308 188.97 97.1046 189.306 97.4237C189.642 97.7427 189.837 98.181 189.848 98.6424C189.859 99.1037 189.685 99.5506 189.365 99.8849C189.044 100.219 188.603 100.414 188.138 100.426C187.837 100.435 187.54 100.363 187.278 100.217Z" fill="#2F2E41"/>
<path id="Vector_91" d="M175.742 96.0625C175.963 97.3147 178.444 98.195 181.427 98.042C184.171 97.9166 186.414 96.9606 186.825 95.8276C186.673 95.783 186.515 95.762 186.356 95.7656L175.998 96.031C175.912 96.0342 175.826 96.0447 175.742 96.0625Z" fill="#3F3D56"/>
<path id="Vector_92" d="M181.974 105.713C181.988 105.71 182.001 105.704 182.012 105.697L183.475 104.747C183.493 104.735 183.507 104.72 183.517 104.701C183.527 104.683 183.532 104.662 183.532 104.641C183.532 104.62 183.527 104.6 183.517 104.581C183.507 104.563 183.493 104.547 183.475 104.536L181.955 103.548C181.941 103.539 181.925 103.532 181.909 103.529C181.893 103.526 181.876 103.526 181.859 103.529C181.843 103.533 181.827 103.539 181.813 103.549C181.8 103.558 181.788 103.57 181.779 103.584C181.769 103.598 181.763 103.613 181.76 103.629C181.757 103.646 181.757 103.662 181.761 103.679C181.764 103.695 181.771 103.71 181.78 103.724C181.79 103.738 181.802 103.749 181.816 103.759L183.173 104.641L181.873 105.485C181.848 105.502 181.83 105.526 181.821 105.555C181.813 105.584 181.814 105.614 181.827 105.642C181.839 105.669 181.86 105.691 181.887 105.704C181.914 105.717 181.945 105.721 181.974 105.713Z" fill="#6C63FF"/>
<path id="Vector_93" d="M179.664 105.819C179.689 105.813 179.711 105.8 179.728 105.781C179.745 105.762 179.756 105.739 179.759 105.714C179.763 105.689 179.758 105.664 179.747 105.641C179.736 105.619 179.718 105.6 179.696 105.587L178.348 104.82L179.651 103.86C179.665 103.85 179.676 103.838 179.685 103.823C179.693 103.809 179.699 103.794 179.701 103.777C179.704 103.761 179.703 103.744 179.699 103.728C179.695 103.712 179.687 103.697 179.677 103.684C179.668 103.67 179.655 103.659 179.641 103.651C179.626 103.642 179.611 103.637 179.594 103.634C179.578 103.632 179.561 103.633 179.545 103.637C179.528 103.641 179.513 103.648 179.5 103.658L178.041 104.733C178.024 104.745 178.011 104.762 178.002 104.781C177.993 104.8 177.989 104.821 177.99 104.842C177.991 104.862 177.998 104.883 178.009 104.9C178.02 104.918 178.035 104.933 178.054 104.943L179.57 105.806C179.599 105.822 179.632 105.827 179.664 105.819Z" fill="#6C63FF"/>
<path id="Vector_94" d="M181.829 106.546C181.841 106.543 181.853 106.538 181.863 106.531C181.878 106.523 181.89 106.511 181.9 106.498C181.91 106.484 181.917 106.469 181.921 106.453C181.925 106.437 181.926 106.42 181.923 106.404C181.921 106.388 181.915 106.372 181.906 106.358L179.833 102.975C179.815 102.947 179.787 102.926 179.754 102.919C179.722 102.911 179.687 102.916 179.658 102.934C179.63 102.951 179.609 102.979 179.601 103.011C179.593 103.044 179.598 103.078 179.616 103.107L181.689 106.489C181.703 106.512 181.724 106.53 181.749 106.54C181.775 106.55 181.802 106.552 181.829 106.546Z" fill="#6C63FF"/>
<path id="Vector_95" d="M65.2855 65.7949H54.0527C53.5945 65.7949 53.223 66.1636 53.223 66.6183V67.7074C53.223 68.1622 53.5945 68.5308 54.0527 68.5308H65.2855C65.7437 68.5308 66.1152 68.1622 66.1152 67.7074V66.6183C66.1152 66.1636 65.7437 65.7949 65.2855 65.7949Z" fill="#6C63FF"/>
<path id="Vector_96" d="M71.833 71.2667H47.5052C47.047 71.2667 46.6755 71.6354 46.6755 72.0901V73.1792C46.6755 73.634 47.047 74.0026 47.5052 74.0026H71.833C72.2912 74.0026 72.6627 73.634 72.6627 73.1792V72.0901C72.6627 71.6354 72.2912 71.2667 71.833 71.2667Z" fill="#E6E6E6"/>
<path id="Vector_97" d="M71.833 76.7385H47.5052C47.047 76.7385 46.6755 77.1071 46.6755 77.5619V78.6509C46.6755 79.1057 47.047 79.4743 47.5052 79.4743H71.833C72.2912 79.4743 72.6627 79.1057 72.6627 78.6509V77.5619C72.6627 77.1071 72.2912 76.7385 71.833 76.7385Z" fill="#E6E6E6"/>
<path id="Vector_98" d="M73.8952 95.0612L73.9503 95.2339L73.9532 95.2397L75.6118 100.244L77.5198 106.011L81.1097 116.848L81.1444 118.531V118.537L81.4112 132.079L80.6718 133.915L81.504 136.925C81.504 136.925 81.1212 132.375 79.0683 134.988C77.9055 136.473 76.5456 137.992 75.4292 139.417C77.0559 140.07 78.7087 140.661 80.3876 141.189C80.7501 141.305 81.1155 141.414 81.4808 141.523C81.5591 141.546 81.6374 141.569 81.7157 141.592C87.2811 143.226 93.0347 144.143 98.8355 144.323C99.137 144.332 99.4328 144.338 99.7199 144.343C99.8214 144.346 99.92 144.349 100.019 144.349C100.343 144.352 100.665 144.355 100.99 144.355C101.645 144.355 102.298 144.345 102.947 144.326C107.755 144.192 112.534 143.55 117.205 142.412C117.173 140.499 117.086 138.263 116.961 135.874C116.903 134.703 115.601 133.434 115.523 132.208C115.468 131.288 116.637 130.421 116.576 129.486C116.181 123.728 115.688 125.938 115.323 121.861C115.285 121.461 115.251 121.078 115.219 120.713C114.984 118.094 114.821 116.457 114.821 116.457L116.381 106.698L118.832 91.3779L118.643 91.07L118.432 90.9664L105.508 84.6183L104.806 82.8342C104.601 82.3202 104.247 81.8786 103.787 81.5663C103.328 81.254 102.785 81.0852 102.228 81.0817L93.7146 81.0471C93.2728 81.0452 92.8369 81.1478 92.443 81.3465C92.0491 81.5451 91.7087 81.8342 91.4499 82.1896L89.1447 85.3578L73.8952 95.0612Z" fill="#3F3D56"/>
<path id="Vector_99" d="M83.0728 114.436L81.1445 118.531L79.828 121.328L77.5634 133.095L76.4296 134.289L75.4582 130.062L65.2912 132.302C64.9578 130.463 65.202 132.364 64.9961 130.347C65.0541 130.289 65.115 130.232 65.1759 130.174C65.3383 130.025 65.4745 129.884 65.4716 129.748C65.3557 122.79 65.7036 110.949 68.6091 103.775C69.0642 102.603 69.6642 101.493 70.3953 100.468C70.4533 100.391 70.5084 100.313 70.5635 100.235C71.9032 98.3734 72.7499 96.5403 73.9503 95.2368V95.2339C73.9578 95.2279 73.9646 95.2211 73.9706 95.2137C73.975 95.2116 73.9789 95.2086 73.9822 95.2051L82.2289 90.8656L82.5827 100.73L82.835 107.821L83.0728 114.436Z" fill="#3F3D56"/>
<path id="Vector_100" d="M112.809 115.599L115.218 120.714L116.058 122.495L118.322 134.261L119.452 135.452L120.426 131.225L120.883 131.132L129.134 129.436L131.539 137.016C132.081 136.12 132.294 135.065 132.143 134.031C131.992 132.996 131.486 132.045 130.71 131.339C130.546 131.191 130.409 131.048 130.413 130.912C130.549 122.728 130.045 107.784 125.49 101.634C124.043 99.6817 123.175 97.7376 121.912 96.3794C121.908 96.3756 121.908 96.3717 121.904 96.3717L118.831 91.3775L118.643 91.0709L118.432 90.9662L112.809 115.599Z" fill="#3F3D56"/>
<path id="Ellipse 5" d="M98.2173 78.6427C104.473 78.6427 109.543 73.6103 109.543 67.4026C109.543 61.1949 104.473 56.1626 98.2173 56.1626C91.962 56.1626 86.8911 61.1949 86.8911 67.4026C86.8911 73.6103 91.962 78.6427 98.2173 78.6427Z" fill="#FFB6B6"/>
<path id="Vector_101" d="M113.526 59.5515C113.438 59.4585 113.332 59.3839 113.215 59.3323C113.097 59.2808 112.971 59.2532 112.842 59.2514L113.012 58.7822C113.068 58.6344 113.083 58.4746 113.056 58.3191C113.029 58.1637 112.961 58.0182 112.858 57.8976C112.756 57.777 112.623 57.6855 112.473 57.6326C112.323 57.5797 112.162 57.5673 112.006 57.5966L111.386 57.7151L111.444 57.304C111.467 57.1508 111.448 56.9945 111.391 56.8505C111.335 56.7064 111.241 56.5795 111.12 56.4823C110.998 56.385 110.854 56.3208 110.7 56.2959C110.546 56.2711 110.388 56.2864 110.242 56.3403C110.109 56.3923 109.966 56.414 109.823 56.404C109.681 56.3939 109.542 56.3524 109.418 56.2823C109.294 56.2144 109.185 56.1203 109.101 56.0066C109.017 55.8929 108.958 55.7623 108.93 55.6239L108.714 54.5897L108.691 54.5342C107.639 52.7936 105.616 51.5273 103.14 51.0632C100.936 50.6469 98.6763 50.8588 96.4979 51.0581C95.6336 51.1388 94.6575 51.2296 93.8441 51.7241C93.1528 52.1478 92.5681 52.9954 92.6876 53.8506C90.5397 53.1972 88.2368 54.5014 87.0955 56.1461C85.7432 58.1036 85.522 60.5555 85.4865 62.4726C85.3899 67.0082 86.3329 70.7189 88.2825 73.5038C88.4249 73.7056 88.4605 74.1268 88.7426 74.2681L88.6841 74.1747C88.9993 74.3311 89.3196 74.5834 89.2001 74.8533C88.857 75.6303 91.137 77.3481 92.7435 77.9157C95.6743 78.9525 99.571 78.8642 102.311 78.4908L102.408 77.8476C103.397 77.7139 104.093 77.4591 104.289 77.0605C104.634 76.7679 104.929 76.5056 105.186 76.2634L105.189 76.2609C105.194 76.2559 105.204 76.2483 105.209 76.2432C106.447 75.0652 106.734 74.3942 106.864 73.3726C106.988 72.3711 106.767 71.3546 106.541 70.4389C111.304 71.1704 104.665 65.4039 109.103 64.2889C109.154 64.2733 109.206 64.2607 109.258 64.2511C109.388 64.2208 109.517 64.1905 109.642 64.1552C110.242 63.9935 110.817 63.7498 111.35 63.4312C112.59 62.682 113 61.6881 113.64 60.5681C113.733 60.4087 113.771 60.2241 113.751 60.0412C113.73 59.8584 113.652 59.6869 113.526 59.5515Z" fill="#2F2E41"/>
<path id="Vector_102" d="M138.276 116.4C138.274 116.841 138.269 117.459 138.248 118.224C138.246 118.329 138.243 118.438 138.241 118.549C138.208 119.954 138.174 121.132 138.121 122.441C138.119 122.532 138.116 122.62 138.111 122.711C138.04 124.537 137.928 126.664 137.735 130.032C137.376 136.252 136.751 130.887 136.123 133.069C136.093 133.177 136.06 133.306 136.029 133.457C135.934 134.006 135.774 134.542 135.551 135.054C135.218 135.251 134.875 135.44 134.537 135.629C133.574 136.161 132.595 136.673 131.609 137.16C131.055 137.433 130.498 137.7 129.939 137.957C129.85 137.998 129.763 138.038 129.677 138.076C126.813 139.39 123.862 140.508 120.844 141.421C120.254 141.597 119.667 141.769 119.072 141.928C118.452 142.099 117.832 142.261 117.204 142.412C112.533 143.55 107.754 144.192 102.947 144.327C102.298 144.347 101.645 144.355 100.989 144.355C100.664 144.355 100.344 144.352 100.018 144.35C99.9192 144.35 99.8201 144.347 99.721 144.345C99.4337 144.337 99.1363 144.332 98.8364 144.324C93.0356 144.145 87.282 143.227 81.7169 141.592L81.4805 141.524C81.1144 141.413 80.7509 141.305 80.3875 141.189C78.7098 140.662 77.0567 140.071 75.4282 139.418C74.1853 138.921 72.9567 138.388 71.7425 137.819C71.7314 137.816 71.7211 137.811 71.712 137.804C71.4578 137.688 71.2011 137.566 70.9469 137.443C70.9139 137.425 70.8783 137.408 70.8427 137.39C69.8946 136.931 68.9566 136.45 68.0288 135.947C67.2485 134.169 66.1504 133.828 65.4692 132.264C65.2709 131.799 65.1276 131.313 65.0421 130.816C65.0421 130.811 65.0396 130.806 65.0396 130.798C65.1108 131.737 64.7371 129.134 65.0371 130.788C65.0345 130.758 65.032 130.725 65.0294 130.687C65.0218 130.597 65.0117 130.486 64.9964 130.347C64.1245 121.899 64.1805 112.238 63.8017 104.276C63.7763 103.762 63.75 103.269 63.7229 102.798C63.7153 102.642 63.7051 102.488 63.6949 102.337C63.7127 102.291 63.7331 102.243 63.7559 102.198C63.7608 102.185 63.7668 102.172 63.7737 102.16C63.7812 102.144 63.7897 102.129 63.7992 102.115C63.8042 102.107 63.8119 102.097 63.817 102.089C63.8207 102.081 63.8249 102.072 63.8297 102.064C63.8525 102.029 63.878 101.991 63.9059 101.956C63.9186 101.94 63.9288 101.928 63.9415 101.915C63.9503 101.902 63.9605 101.891 63.972 101.88C63.9798 101.868 63.9892 101.857 64 101.847C64.0101 101.837 64.0203 101.824 64.033 101.812C64.0384 101.804 64.0454 101.797 64.0534 101.792C64.0735 101.769 64.0956 101.748 64.1194 101.729C64.2101 101.646 64.307 101.57 64.4092 101.502C64.4448 101.479 64.4829 101.456 64.5185 101.431C64.7747 101.279 65.0444 101.15 65.3243 101.047C65.4209 101.012 65.5175 100.979 65.6217 100.944C65.6598 100.934 65.6954 100.921 65.7335 100.909C65.7895 100.891 65.8454 100.873 65.9038 100.861C66.1936 100.775 66.5063 100.702 66.8443 100.634C66.885 100.626 66.9282 100.619 66.9714 100.609C67.0324 100.596 67.096 100.586 67.1595 100.576C67.246 100.561 67.3349 100.546 67.4239 100.53C68.1788 100.412 69.0354 100.324 69.981 100.266C70.07 100.26 70.1589 100.255 70.2479 100.25C70.3521 100.245 70.4563 100.24 70.5631 100.235C70.6521 100.23 70.7436 100.228 70.8351 100.225C70.924 100.22 71.0155 100.218 71.1096 100.215C71.3663 100.207 71.6307 100.2 71.9001 100.195C72.6678 100.18 73.4761 100.185 74.3251 100.202C74.7191 100.213 75.1207 100.223 75.5325 100.24C75.5604 100.24 75.5858 100.243 75.6113 100.243C75.9697 100.255 76.3306 100.271 76.7017 100.291C76.961 100.303 77.2228 100.316 77.4846 100.331C77.7312 100.346 77.9803 100.361 78.2319 100.379C78.4277 100.389 78.6234 100.404 78.8216 100.417C78.9894 100.429 79.1572 100.442 79.3249 100.452L79.5537 100.467C79.6783 100.477 79.8028 100.485 79.9299 100.498C80.2095 100.52 80.4891 100.543 80.7738 100.566C81.056 100.591 81.3432 100.616 81.6304 100.641C81.9177 100.667 82.2074 100.694 82.4972 100.722C82.5277 100.725 82.5557 100.727 82.5836 100.73C82.848 100.757 83.1123 100.783 83.3792 100.81C83.4402 100.815 83.5038 100.82 83.5648 100.828C83.8193 100.853 84.0787 100.883 84.3355 100.91C84.4143 100.919 84.4927 100.927 84.5717 100.935C84.7729 100.957 84.9712 100.976 85.1738 101C85.4407 101.03 85.7127 101.058 85.977 101.093C86.1829 101.116 86.3888 101.138 86.5947 101.164C86.9175 101.201 87.2454 101.242 87.5733 101.285C87.6979 101.3 87.8224 101.315 87.947 101.333C88.8824 101.449 89.828 101.577 90.7888 101.711C92.2453 101.915 93.7246 102.137 95.2142 102.377C96.7063 102.617 98.2068 102.87 99.7159 103.136C100.097 103.204 100.478 103.272 100.862 103.343C101.035 103.376 101.208 103.409 101.381 103.441C101.676 103.494 101.97 103.55 102.265 103.605C102.56 103.661 102.855 103.716 103.15 103.774C103.501 103.842 103.854 103.911 104.205 103.979C106.515 104.433 108.813 104.917 111.055 105.424C111.424 105.507 111.792 105.593 112.158 105.676C112.89 105.845 113.616 106.017 114.334 106.191C114.532 106.236 114.728 106.284 114.924 106.332C115.412 106.453 115.9 106.574 116.38 106.698L116.464 106.721C116.818 106.806 117.163 106.895 117.509 106.986C118.325 107.197 119.127 107.412 119.916 107.629C120.44 107.773 120.957 107.918 121.469 108.065C122.234 108.285 122.984 108.507 123.714 108.731C123.894 108.787 124.075 108.842 124.253 108.895C124.786 109.059 125.313 109.226 125.823 109.392C126.23 109.523 126.627 109.657 127.018 109.791C127.41 109.924 127.793 110.058 128.17 110.192C128.411 110.277 128.65 110.368 128.889 110.454C129.232 110.58 129.57 110.706 129.901 110.832C130.002 110.87 130.101 110.911 130.201 110.948C130.264 110.976 130.325 110.999 130.386 111.024C130.506 111.072 130.628 111.117 130.745 111.165C130.864 111.211 130.981 111.259 131.098 111.309C131.212 111.355 131.329 111.403 131.441 111.45C131.555 111.496 131.667 111.544 131.779 111.594C131.873 111.632 131.965 111.672 132.054 111.713C132.234 111.791 132.415 111.869 132.59 111.95C132.676 111.99 132.763 112.028 132.849 112.068L133.047 112.159C133.075 112.174 133.103 112.187 133.131 112.2C133.195 112.23 133.261 112.263 133.325 112.293C133.472 112.361 133.617 112.434 133.759 112.502C133.95 112.598 134.135 112.694 134.313 112.787C134.494 112.883 134.669 112.979 134.837 113.072C134.865 113.088 134.89 113.103 134.918 113.118C134.956 113.138 134.995 113.161 135.033 113.181C135.162 113.254 135.287 113.33 135.411 113.403C135.655 113.552 135.887 113.698 136.103 113.844C136.151 113.877 136.197 113.91 136.245 113.94C136.405 114.054 136.558 114.165 136.7 114.278C136.7 114.281 136.7 114.281 136.703 114.281C136.751 114.316 136.797 114.354 136.843 114.389C136.881 114.425 136.921 114.455 136.959 114.49C137.092 114.604 137.214 114.712 137.325 114.823C137.363 114.857 137.399 114.894 137.432 114.932C137.447 114.944 137.461 114.957 137.473 114.972C137.524 115.022 137.569 115.073 137.613 115.123C137.619 115.13 137.625 115.138 137.63 115.146C137.691 115.217 137.747 115.287 137.801 115.358C137.826 115.393 137.854 115.429 137.877 115.464C137.908 115.507 137.938 115.552 137.963 115.595C137.986 115.63 138.007 115.668 138.027 115.704C138.081 115.794 138.127 115.89 138.164 115.989C138.193 116.055 138.216 116.125 138.233 116.195C138.252 116.262 138.267 116.331 138.276 116.4Z" fill="#2F2E41"/>
<path id="Vector_103" opacity="0.2" d="M138.276 116.4C138.274 116.841 138.269 117.459 138.248 118.224C138.246 118.329 138.241 118.438 138.238 118.549C138.213 119.621 138.175 120.945 138.121 122.441C138.119 122.532 138.116 122.62 138.111 122.711C138.04 124.537 137.928 126.664 137.735 130.032C137.376 136.252 136.751 130.887 136.123 133.069C134.379 132.004 132.468 130.889 130.424 129.744C130.056 129.537 129.684 129.329 129.308 129.121C125.221 126.858 120.656 124.487 115.89 122.139C115.702 122.045 115.511 121.952 115.323 121.861C104.406 116.506 92.4893 111.297 82.8353 107.821C80.9721 107.15 79.1928 106.544 77.5202 106.012C73.9972 104.894 70.952 104.112 68.6084 103.774C66.1682 103.421 64.4829 103.547 63.8017 104.276C63.7763 103.762 63.75 103.269 63.7229 102.798C63.7127 102.642 63.7026 102.488 63.6924 102.337C63.7081 102.295 63.7285 102.255 63.7482 102.215C63.751 102.21 63.753 102.204 63.7559 102.198C63.7608 102.185 63.7668 102.172 63.7737 102.16C63.7812 102.144 63.7897 102.129 63.7992 102.115C63.8074 102.097 63.8177 102.08 63.8297 102.064C63.8525 102.029 63.878 101.991 63.9059 101.956C63.9265 101.929 63.9485 101.904 63.972 101.88C63.9798 101.868 63.9892 101.857 64 101.847C64.0101 101.837 64.0203 101.824 64.033 101.812C64.0384 101.804 64.0453 101.797 64.0533 101.792C64.0735 101.769 64.0956 101.748 64.1194 101.729C64.2101 101.646 64.307 101.57 64.4092 101.502C64.4448 101.479 64.4829 101.456 64.5185 101.431C64.7747 101.279 65.0444 101.15 65.3243 101.047C65.4209 101.012 65.5175 100.979 65.6217 100.944C65.6598 100.934 65.6954 100.921 65.7335 100.909C65.7894 100.891 65.8454 100.873 65.9038 100.861C66.1936 100.775 66.5063 100.702 66.8443 100.634C66.946 100.614 67.0528 100.593 67.1595 100.576C67.2459 100.561 67.3349 100.546 67.4239 100.53C68.1788 100.412 69.0354 100.324 69.981 100.265C70.07 100.26 70.1589 100.255 70.2479 100.25C70.3521 100.245 70.4563 100.24 70.5631 100.235C70.6521 100.23 70.7436 100.228 70.8351 100.225C70.924 100.22 71.0156 100.218 71.1096 100.215C71.3663 100.207 71.6307 100.2 71.9001 100.195C72.6678 100.182 73.4761 100.187 74.3251 100.205C74.7191 100.213 75.1207 100.225 75.5325 100.243C75.5579 100.243 75.5858 100.245 75.6113 100.245C75.9697 100.255 76.3332 100.273 76.7017 100.291C76.961 100.303 77.2228 100.316 77.4846 100.331C77.7312 100.346 77.9803 100.361 78.2319 100.379C78.4277 100.389 78.6234 100.404 78.8216 100.417C78.9894 100.429 79.1572 100.442 79.3249 100.452C79.5257 100.467 79.7266 100.482 79.9299 100.498C80.2095 100.52 80.4891 100.543 80.7738 100.566C81.056 100.591 81.3432 100.616 81.6304 100.641C81.9177 100.667 82.2074 100.694 82.4972 100.722C82.5277 100.725 82.5557 100.727 82.5836 100.73C82.848 100.757 83.1123 100.783 83.3792 100.81C84.8586 100.959 86.3812 101.133 87.947 101.333C88.8824 101.451 89.8297 101.578 90.7888 101.713C92.2453 101.918 93.7247 102.14 95.2142 102.377C96.7063 102.617 98.2069 102.87 99.7159 103.136C100.097 103.204 100.478 103.272 100.862 103.343C101.33 103.429 101.798 103.516 102.265 103.605C102.56 103.661 102.855 103.716 103.15 103.774C103.501 103.842 103.854 103.911 104.205 103.979C106.515 104.433 108.813 104.917 111.055 105.424C111.424 105.507 111.792 105.593 112.158 105.676C112.89 105.845 113.616 106.017 114.334 106.191C114.532 106.239 114.728 106.287 114.924 106.335C115.415 106.456 115.9 106.577 116.38 106.698V106.701C116.408 106.706 116.436 106.713 116.464 106.721C116.815 106.809 117.163 106.897 117.509 106.988C118.325 107.2 119.127 107.414 119.916 107.629C120.44 107.775 120.958 107.919 121.469 108.065C122.234 108.287 122.984 108.509 123.714 108.731C123.894 108.787 124.075 108.842 124.253 108.895C124.786 109.062 125.31 109.227 125.824 109.392C126.23 109.523 126.627 109.657 127.018 109.791C127.41 109.924 127.793 110.058 128.17 110.192C128.414 110.278 128.653 110.366 128.889 110.452C129.235 110.578 129.57 110.704 129.901 110.832C130.002 110.87 130.101 110.911 130.201 110.949C130.386 111.019 130.567 111.092 130.745 111.165C130.864 111.211 130.981 111.259 131.098 111.309C131.212 111.355 131.329 111.403 131.441 111.45C131.555 111.496 131.667 111.544 131.779 111.594C131.873 111.632 131.965 111.672 132.054 111.713C132.234 111.791 132.415 111.869 132.59 111.95C132.676 111.99 132.763 112.028 132.849 112.069L133.048 112.159C133.075 112.174 133.103 112.187 133.131 112.2C133.347 112.301 133.556 112.401 133.759 112.502C133.95 112.598 134.135 112.694 134.313 112.787C134.524 112.898 134.725 113.007 134.918 113.118C134.956 113.138 134.995 113.161 135.033 113.181C135.162 113.254 135.287 113.33 135.411 113.403C135.655 113.552 135.887 113.698 136.103 113.844C136.316 113.991 136.515 114.134 136.7 114.278C136.7 114.281 136.7 114.281 136.703 114.281C136.792 114.351 136.878 114.422 136.959 114.49C137.092 114.604 137.214 114.712 137.325 114.823C137.363 114.857 137.399 114.894 137.432 114.932C137.447 114.944 137.461 114.957 137.473 114.972C137.526 115.03 137.58 115.088 137.631 115.146C137.692 115.217 137.747 115.287 137.801 115.358C137.826 115.393 137.854 115.429 137.877 115.464C137.908 115.507 137.938 115.552 137.964 115.595C137.986 115.63 138.007 115.668 138.027 115.704C138.081 115.794 138.127 115.89 138.164 115.989C138.192 116.056 138.215 116.125 138.233 116.195C138.252 116.262 138.267 116.331 138.276 116.4Z" fill="black"/>
</g>
<defs>
<clipPath id="clip0_490_114">
<rect width="200" height="144.355" fill="white"/>
</clipPath>
</defs>
</svg>
