<svg width="300" height="250" viewBox="0 0 300 250" fill="none" xmlns="http://www.w3.org/2000/svg">
<g clip-path="url(#clip0_691_3)">
<path d="M173.879 113.856H121.18C119.72 113.854 118.32 113.275 117.287 112.245C116.255 111.215 115.674 109.819 115.672 108.363V39.7586C115.674 38.3022 116.255 36.9059 117.287 35.8761C118.32 34.8463 119.72 34.267 121.18 34.2654H173.879C175.339 34.267 176.739 34.8463 177.771 35.8761C178.804 36.9059 179.385 38.3022 179.386 39.7586V108.363C179.385 109.819 178.804 111.215 177.771 112.245C176.739 113.275 175.339 113.854 173.879 113.856Z" fill="#F0F0F0"/>
<path d="M173.879 114.121H121.179C119.649 114.119 118.181 113.512 117.099 112.432C116.017 111.353 115.408 109.889 115.406 108.362V39.7585C115.408 38.2318 116.017 36.7681 117.099 35.6886C118.181 34.609 119.649 34.0017 121.179 34H173.879C175.409 34.0017 176.877 34.609 177.959 35.6885C179.041 36.7681 179.65 38.2318 179.652 39.7585V108.362C179.65 109.889 179.042 111.353 177.959 112.432C176.877 113.512 175.409 114.119 173.879 114.121ZM121.179 34.5306C119.79 34.5322 118.458 35.0835 117.475 36.0636C116.492 37.0436 115.94 38.3725 115.938 39.7585V108.362C115.94 109.748 116.492 111.077 117.475 112.057C118.458 113.038 119.79 113.589 121.179 113.59H173.879C175.268 113.589 176.601 113.038 177.583 112.057C178.566 111.077 179.119 109.748 179.12 108.362V39.7585C179.119 38.3725 178.566 37.0436 177.583 36.0635C176.601 35.0834 175.268 34.5321 173.879 34.5306H121.179Z" fill="#46CC8F"/>
<path d="M259.493 113.856H206.793C205.333 113.854 203.933 113.275 202.901 112.245C201.869 111.215 201.288 109.819 201.286 108.363V39.7586C201.288 38.3022 201.869 36.9059 202.901 35.8761C203.933 34.8463 205.333 34.267 206.793 34.2654H259.493C260.953 34.267 262.353 34.8463 263.385 35.8761C264.418 36.9059 264.998 38.3022 265 39.7586V108.363C264.998 109.819 264.418 111.215 263.385 112.245C262.353 113.275 260.953 113.854 259.493 113.856Z" fill="#F0F0F0"/>
<path d="M146.597 122.346C151.857 122.346 156.122 118.093 156.122 112.846C156.122 107.599 151.857 103.345 146.597 103.345C141.336 103.345 137.072 107.599 137.072 112.846C137.072 118.093 141.336 122.346 146.597 122.346Z" fill="#46CC8F"/>
<path d="M145.298 117.79C145.133 117.79 144.971 117.752 144.824 117.679C144.677 117.605 144.549 117.499 144.45 117.368L141.852 113.912C141.768 113.801 141.707 113.674 141.673 113.54C141.638 113.405 141.631 113.265 141.65 113.128C141.67 112.991 141.717 112.858 141.787 112.739C141.858 112.62 141.952 112.515 142.063 112.432C142.175 112.349 142.301 112.288 142.436 112.254C142.571 112.219 142.711 112.212 142.849 112.231C142.987 112.251 143.119 112.297 143.239 112.368C143.359 112.439 143.463 112.532 143.547 112.643L145.247 114.904L149.613 108.371C149.77 108.139 150.012 107.978 150.287 107.924C150.562 107.869 150.847 107.926 151.081 108.081C151.314 108.236 151.476 108.477 151.532 108.752C151.587 109.026 151.531 109.311 151.376 109.544L146.179 117.32C146.085 117.46 145.959 117.576 145.811 117.658C145.662 117.74 145.496 117.785 145.327 117.79C145.317 117.79 145.307 117.79 145.298 117.79Z" fill="white"/>
<path d="M138.333 150.545H37.2608C36.6614 150.544 36.0868 150.306 35.6629 149.883C35.2391 149.461 35.0007 148.888 35 148.29V57.0258C35.0007 56.4279 35.2391 55.8547 35.6629 55.432C36.0868 55.0092 36.6614 54.7714 37.2608 54.7708H138.333C138.932 54.7714 139.507 55.0092 139.931 55.432C140.354 55.8547 140.593 56.4279 140.594 57.0258V148.29C140.593 148.888 140.354 149.461 139.931 149.883C139.507 150.306 138.932 150.544 138.333 150.545Z" fill="#3F3D56"/>
<path d="M136.205 148.422H39.3887C38.7894 148.422 38.2147 148.184 37.7909 147.761C37.367 147.338 37.1286 146.765 37.1279 146.167V59.1481C37.1286 58.5503 37.367 57.9771 37.7908 57.5543C38.2147 57.1315 38.7893 56.8937 39.3887 56.8931H136.205C136.804 56.8937 137.379 57.1315 137.803 57.5543C138.227 57.9771 138.465 58.5503 138.466 59.1481V146.167C138.465 146.765 138.227 147.338 137.803 147.761C137.379 148.184 136.804 148.422 136.205 148.422Z" fill="white"/>
<path d="M44.3076 66.3468C55.7014 66.1492 67.0965 66.1208 78.4927 66.2616C89.8874 66.4033 101.278 66.7149 112.665 67.1966C119.055 67.4669 125.442 67.7907 131.826 68.168C132.339 68.1983 132.338 67.4023 131.826 67.3721C120.451 66.7007 109.067 66.1983 97.6746 65.8649C86.284 65.5324 74.8901 65.3699 63.4929 65.3774C57.0975 65.3817 50.7024 65.4395 44.3076 65.5509C43.7947 65.5598 43.7931 66.3557 44.3076 66.3468Z" fill="#3F3D56"/>
<path d="M123.712 61.3563L128.694 60.9864C129.203 60.9487 129.207 60.1524 128.694 60.1905L123.712 60.5604C123.203 60.5982 123.199 61.3944 123.712 61.3563Z" fill="#3F3D56"/>
<path d="M123.712 66.1317L128.694 65.7618C129.203 65.724 129.207 64.9278 128.694 64.9659L123.712 65.3358C123.203 65.3736 123.199 66.1698 123.712 66.1317Z" fill="#3F3D56"/>
<path d="M123.337 63.9509L130.42 64.5928C130.932 64.6392 130.928 63.843 130.42 63.7969L123.337 63.155C122.826 63.1087 122.829 63.9049 123.337 63.9509Z" fill="#3F3D56"/>
<path d="M47.2562 60.2859C46.9098 60.2838 46.5703 60.3834 46.2803 60.5724C45.9902 60.7614 45.7623 61.0313 45.6249 61.3486C45.4713 61.6591 45.4239 62.0113 45.4899 62.3513C45.556 62.6912 45.7318 63.0003 45.9906 63.2311C46.2338 63.4376 46.5256 63.5791 46.8386 63.6425C47.1516 63.706 47.4756 63.6892 47.7803 63.5938C48.0919 63.4852 48.3622 63.283 48.5538 63.0149C48.7455 62.7468 48.8491 62.426 48.8504 62.0968C48.8643 61.7315 48.7651 61.3708 48.5663 61.0637C48.3674 60.7566 48.0786 60.5181 47.739 60.3806C47.637 60.3529 47.5281 60.3666 47.4362 60.4187C47.3443 60.4707 47.2767 60.5569 47.2482 60.6585C47.2231 60.7602 47.2379 60.8676 47.2898 60.9586C47.3416 61.0497 47.4265 61.1175 47.5269 61.148C47.5964 61.1748 47.4634 61.1139 47.5283 61.1492C47.555 61.1637 47.5822 61.1768 47.6084 61.1923C47.6307 61.2055 47.652 61.2199 47.6737 61.234C47.7482 61.2825 47.6373 61.1984 47.6849 61.242C47.7262 61.2798 47.7671 61.3167 47.8046 61.3584C47.8188 61.3742 47.8744 61.418 47.8312 61.3874C47.7982 61.3639 47.8185 61.3694 47.8312 61.3882C47.8409 61.4025 47.8511 61.4164 47.8607 61.4308C47.8918 61.4778 47.92 61.5265 47.9453 61.5768C47.9512 61.5885 47.9566 61.6004 47.9625 61.612C47.9737 61.6337 47.9899 61.6393 47.9636 61.6122C47.9385 61.5862 47.9545 61.588 47.9635 61.613C47.9694 61.6294 47.9758 61.6456 47.9816 61.6621C48.0003 61.7158 48.016 61.7705 48.0286 61.8259C48.0345 61.8515 48.0392 61.8773 48.0442 61.903C48.062 61.9944 48.0416 61.8462 48.0459 61.9141C48.0495 61.9708 48.0537 62.0269 48.0527 62.0838C48.0522 62.1098 48.0511 62.1358 48.0493 62.1618C48.0484 62.1747 48.0469 62.1877 48.0461 62.2006C48.0419 62.2631 48.0418 62.1778 48.0506 62.172C48.0323 62.225 48.0202 62.2799 48.0145 62.3357C48.0074 62.3604 47.9989 62.3846 47.9909 62.4091C47.9632 62.4944 48.017 62.3625 47.9874 62.4209C47.963 62.471 47.9358 62.5197 47.9059 62.5667C47.8929 62.5864 47.8439 62.6309 47.884 62.5999C47.9274 62.5663 47.8611 62.6242 47.847 62.6391C47.8288 62.6582 47.81 62.6766 47.7904 62.6944C47.7779 62.7066 47.7647 62.7181 47.7509 62.7287C47.7483 62.7275 47.8175 62.6826 47.7802 62.7064C47.7328 62.7365 47.6879 62.7688 47.638 62.795C47.6321 62.7981 47.5683 62.8276 47.5685 62.8287C47.5658 62.8179 47.6506 62.7989 47.5924 62.8176C47.5802 62.8216 47.5682 62.8263 47.556 62.8304C47.5029 62.8482 47.4488 62.8626 47.3939 62.8735C47.3813 62.876 47.368 62.8773 47.3556 62.8804C47.3144 62.8911 47.3951 62.8742 47.3975 62.8756C47.367 62.8743 47.3365 62.877 47.3067 62.8836C47.2501 62.8869 47.1933 62.8868 47.1367 62.8836C47.1236 62.8829 47.1106 62.8816 47.0975 62.8808C47.0671 62.879 47.0448 62.8572 47.0852 62.8809C47.1164 62.8992 47.1138 62.8859 47.0862 62.8808C47.0732 62.8784 47.0603 62.8764 47.0473 62.8739C46.9913 62.8635 46.9359 62.8499 46.8814 62.8334C46.852 62.8245 46.8233 62.8141 46.7943 62.804C46.7817 62.8004 46.7694 62.7956 46.7576 62.7899C46.7574 62.7866 46.8322 62.8256 46.7927 62.8043C46.7429 62.7775 46.6914 62.7551 46.6427 62.7258C46.6167 62.7102 46.5918 62.6932 46.5665 62.6765C46.5554 62.6698 46.5449 62.6622 46.535 62.6539C46.5358 62.6505 46.5968 62.7069 46.5648 62.6765C46.5243 62.638 46.4809 62.6035 46.4426 62.5625C46.4338 62.5531 46.4255 62.5433 46.4167 62.5339L46.4083 62.5243C46.3867 62.4979 46.3863 62.498 46.4071 62.5246C46.4282 62.5309 46.4273 62.554 46.4072 62.5239C46.4 62.5132 46.3924 62.5028 46.3853 62.4921C46.3529 62.446 46.3253 62.3968 46.3028 62.3452C46.3048 62.3437 46.3374 62.441 46.3125 62.3676C46.3078 62.3537 46.3025 62.3401 46.2978 62.3262C46.2887 62.2986 46.2806 62.2707 46.2736 62.2425C46.2667 62.2146 46.2632 62.1858 46.2562 62.158C46.2445 62.1111 46.2631 62.195 46.261 62.1929C46.2543 62.1863 46.2571 62.1457 46.2566 62.136C46.2535 62.0735 46.2606 62.0129 46.2617 61.9508C46.2626 61.9028 46.2577 61.9883 46.2567 61.9858C46.2569 61.9714 46.2595 61.9571 46.2643 61.9435C46.2715 61.9108 46.2782 61.8781 46.2871 61.8457C46.2972 61.8087 46.3088 61.772 46.322 61.7359C46.327 61.7224 46.333 61.709 46.3375 61.6954C46.3543 61.6454 46.3043 61.7557 46.3319 61.7107C46.3698 61.6487 46.3981 61.5816 46.4384 61.5204C46.448 61.5058 46.506 61.425 46.4752 61.4658C46.4445 61.5065 46.5067 61.4294 46.5185 61.4163C46.5675 61.362 46.625 61.3173 46.6757 61.2653C46.7057 61.2345 46.6547 61.2805 46.6517 61.2826C46.6674 61.2714 46.6828 61.2598 46.6987 61.2489C46.7264 61.2299 46.7548 61.2119 46.7838 61.1949C46.8166 61.1758 46.8536 61.1615 46.8853 61.1413C46.9228 61.1173 46.8566 61.1518 46.8555 61.1525C46.8726 61.144 46.8905 61.1372 46.9089 61.1322C46.9398 61.1212 47.0741 61.0634 47.1023 61.0815C47.1011 61.0807 47.0003 61.0896 47.0818 61.0843C47.101 61.0831 47.1202 61.0812 47.1394 61.0804C47.1784 61.0788 47.2173 61.0798 47.2562 61.0818C47.3618 61.0811 47.4629 61.039 47.5376 60.9645C47.6123 60.89 47.6545 60.7892 47.6552 60.6839C47.6529 60.579 47.6102 60.4791 47.5358 60.405C47.4615 60.3308 47.3613 60.2882 47.2562 60.2859Z" fill="#3F3D56"/>
<path d="M52.8417 60.2859C52.4952 60.2838 52.1558 60.3834 51.8657 60.5724C51.5756 60.7614 51.3477 61.0313 51.2104 61.3486C51.0568 61.6591 51.0094 62.0113 51.0754 62.3513C51.1414 62.6912 51.3173 63.0003 51.576 63.2311C51.8193 63.4376 52.111 63.5791 52.424 63.6425C52.737 63.706 53.061 63.6892 53.3657 63.5938C53.6774 63.4852 53.9476 63.283 54.1393 63.0149C54.3309 62.7468 54.4345 62.426 54.4359 62.0968C54.4498 61.7315 54.3506 61.3708 54.1517 61.0637C53.9529 60.7566 53.664 60.5181 53.3245 60.3806C53.2224 60.3529 53.1136 60.3666 53.0217 60.4187C52.9297 60.4707 52.8622 60.5569 52.8337 60.6585C52.8085 60.7602 52.8234 60.8676 52.8752 60.9586C52.927 61.0497 53.0119 61.1175 53.1123 61.148C53.1819 61.1748 53.0488 61.1139 53.1137 61.1492C53.1404 61.1637 53.1676 61.1768 53.1938 61.1923C53.2161 61.2055 53.2375 61.2199 53.2591 61.234C53.3336 61.2825 53.2228 61.1984 53.2704 61.242C53.3117 61.2798 53.3526 61.3167 53.3901 61.3584C53.4043 61.3742 53.4599 61.418 53.4167 61.3874C53.3836 61.3639 53.4039 61.3694 53.4167 61.3882C53.4263 61.4025 53.4366 61.4164 53.4461 61.4308C53.4772 61.4778 53.5055 61.5265 53.5308 61.5768C53.5366 61.5885 53.542 61.6004 53.548 61.612C53.5591 61.6337 53.5753 61.6393 53.5491 61.6122C53.524 61.5862 53.5399 61.588 53.5489 61.613C53.5548 61.6294 53.5613 61.6456 53.567 61.6621C53.5857 61.7158 53.6014 61.7705 53.6141 61.8259C53.6199 61.8515 53.6246 61.8773 53.6296 61.903C53.6475 61.9944 53.627 61.8462 53.6313 61.9141C53.6349 61.9708 53.6391 62.0269 53.6381 62.0838C53.6377 62.1098 53.6366 62.1358 53.6347 62.1618C53.6338 62.1747 53.6324 62.1877 53.6315 62.2006C53.6274 62.2631 53.6272 62.1778 53.636 62.172C53.6178 62.225 53.6057 62.2799 53.6 62.3357C53.5928 62.3604 53.5843 62.3846 53.5764 62.4091C53.5486 62.4944 53.6024 62.3625 53.5728 62.4209C53.5485 62.471 53.5213 62.5197 53.4913 62.5667C53.4783 62.5864 53.4293 62.6309 53.4694 62.5999C53.5129 62.5663 53.4466 62.6242 53.4324 62.6391C53.4143 62.6582 53.3954 62.6766 53.3759 62.6944C53.3634 62.7066 53.3501 62.7181 53.3363 62.7287C53.3338 62.7275 53.403 62.6826 53.3657 62.7064C53.3183 62.7365 53.2734 62.7688 53.2234 62.795C53.2176 62.7981 53.1537 62.8276 53.154 62.8287C53.1512 62.8179 53.2361 62.7989 53.1778 62.8176C53.1656 62.8216 53.1536 62.8263 53.1414 62.8304C53.0884 62.8482 53.0342 62.8626 52.9793 62.8735C52.9668 62.876 52.9535 62.8773 52.9411 62.8804C52.8998 62.8911 52.9805 62.8742 52.9829 62.8756C52.9524 62.8743 52.9219 62.877 52.8921 62.8836C52.8355 62.8869 52.7788 62.8868 52.7222 62.8836C52.7091 62.8829 52.696 62.8816 52.6829 62.8808C52.6525 62.879 52.6302 62.8572 52.6707 62.8809C52.7019 62.8992 52.6993 62.8859 52.6716 62.8808C52.6587 62.8784 52.6457 62.8764 52.6328 62.8739C52.5767 62.8635 52.5213 62.8499 52.4668 62.8334C52.4375 62.8245 52.4087 62.8141 52.3798 62.804C52.3671 62.8004 52.3549 62.7956 52.343 62.7899C52.3429 62.7866 52.4177 62.8256 52.3782 62.8043C52.3283 62.7775 52.2768 62.7551 52.2281 62.7258C52.2022 62.7102 52.1772 62.6932 52.152 62.6765C52.1409 62.6698 52.1303 62.6622 52.1204 62.6539C52.1212 62.6505 52.1823 62.7069 52.1502 62.6765C52.1097 62.638 52.0664 62.6035 52.028 62.5625C52.0192 62.5531 52.0109 62.5433 52.0022 62.5339L51.9937 62.5243C51.9721 62.4979 51.9717 62.498 51.9925 62.5246C52.0137 62.5309 52.0127 62.554 51.9926 62.5239C51.9855 62.5132 51.9779 62.5028 51.9708 62.4921C51.9384 62.446 51.9107 62.3968 51.8883 62.3452C51.8902 62.3437 51.9229 62.441 51.8979 62.3676C51.8932 62.3537 51.8879 62.3401 51.8833 62.3262C51.8741 62.2986 51.866 62.2707 51.8591 62.2425C51.8522 62.2146 51.8486 62.1858 51.8417 62.158C51.83 62.1111 51.8485 62.195 51.8464 62.1929C51.8398 62.1863 51.8426 62.1457 51.8421 62.136C51.8389 62.0735 51.846 62.0129 51.8471 61.9508C51.848 61.9028 51.8432 61.9883 51.8421 61.9858C51.8424 61.9714 51.845 61.9571 51.8497 61.9435C51.8569 61.9108 51.8637 61.8781 51.8725 61.8457C51.8826 61.8087 51.8943 61.772 51.9075 61.7359C51.9124 61.7224 51.9184 61.709 51.923 61.6954C51.9398 61.6454 51.8897 61.7557 51.9173 61.7107C51.9553 61.6487 51.9836 61.5816 52.0239 61.5204C52.0334 61.5058 52.0915 61.425 52.0607 61.4658C52.03 61.5065 52.0922 61.4294 52.104 61.4163C52.1529 61.362 52.2105 61.3173 52.2611 61.2653C52.2911 61.2345 52.2402 61.2805 52.2372 61.2826C52.2529 61.2714 52.2683 61.2598 52.2841 61.2489C52.3118 61.2299 52.3402 61.2119 52.3693 61.1949C52.402 61.1758 52.439 61.1615 52.4707 61.1413C52.5082 61.1173 52.4421 61.1518 52.4409 61.1525C52.458 61.144 52.4759 61.1372 52.4943 61.1322C52.5252 61.1212 52.6596 61.0634 52.6878 61.0815C52.6865 61.0807 52.5858 61.0896 52.6672 61.0843C52.6864 61.0831 52.7056 61.0812 52.7249 61.0804C52.7639 61.0788 52.8027 61.0798 52.8417 61.0818C52.9473 61.0811 53.0484 61.039 53.123 60.9645C53.1977 60.89 53.24 60.7892 53.2407 60.6839C53.2384 60.579 53.1956 60.4791 53.1213 60.405C53.047 60.3308 52.9468 60.2882 52.8417 60.2859Z" fill="#3F3D56"/>
<path d="M58.4271 60.2859C58.0807 60.2838 57.7412 60.3834 57.4511 60.5724C57.1611 60.7614 56.9332 61.0313 56.7958 61.3486C56.6422 61.6591 56.5948 62.0113 56.6608 62.3513C56.7269 62.6912 56.9027 63.0003 57.1615 63.2311C57.4047 63.4376 57.6965 63.5791 58.0095 63.6425C58.3224 63.706 58.6464 63.6892 58.9512 63.5938C59.2628 63.4852 59.5331 63.283 59.7247 63.0149C59.9163 62.7468 60.02 62.426 60.0213 62.0968C60.0352 61.7315 59.936 61.3708 59.7372 61.0637C59.5383 60.7566 59.2495 60.5181 58.9099 60.3806C58.8079 60.3529 58.699 60.3666 58.6071 60.4187C58.5152 60.4707 58.4476 60.5569 58.4191 60.6585C58.394 60.7602 58.4088 60.8676 58.4607 60.9586C58.5125 61.0497 58.5974 61.1175 58.6978 61.148C58.7673 61.1748 58.6343 61.1139 58.6992 61.1492C58.7259 61.1637 58.7531 61.1768 58.7793 61.1923C58.8016 61.2055 58.8229 61.2199 58.8446 61.234C58.9191 61.2825 58.8082 61.1984 58.8558 61.242C58.8971 61.2798 58.938 61.3167 58.9755 61.3584C58.9897 61.3742 59.0453 61.418 59.0021 61.3874C58.9691 61.3639 58.9894 61.3694 59.0021 61.3882C59.0118 61.4025 59.022 61.4164 59.0315 61.4308C59.0626 61.4778 59.0909 61.5265 59.1162 61.5768C59.1221 61.5885 59.1274 61.6004 59.1334 61.612C59.1446 61.6337 59.1608 61.6393 59.1345 61.6122C59.1094 61.5862 59.1254 61.588 59.1344 61.613C59.1403 61.6294 59.1467 61.6456 59.1525 61.6621C59.1712 61.7158 59.1869 61.7705 59.1995 61.8259C59.2053 61.8515 59.21 61.8773 59.2151 61.903C59.2329 61.9944 59.2125 61.8462 59.2168 61.9141C59.2204 61.9708 59.2246 62.0269 59.2236 62.0838C59.2231 62.1098 59.222 62.1358 59.2202 62.1618C59.2193 62.1747 59.2178 62.1877 59.217 62.2006C59.2128 62.2631 59.2127 62.1778 59.2214 62.172C59.2032 62.225 59.1911 62.2799 59.1854 62.3357C59.1782 62.3604 59.1698 62.3846 59.1618 62.4091C59.134 62.4944 59.1879 62.3625 59.1583 62.4209C59.1339 62.471 59.1067 62.5197 59.0768 62.5667C59.0638 62.5864 59.0148 62.6309 59.0548 62.5999C59.0983 62.5663 59.032 62.6242 59.0179 62.6391C58.9997 62.6582 58.9809 62.6766 58.9613 62.6944C58.9488 62.7066 58.9356 62.7181 58.9217 62.7287C58.9192 62.7275 58.9884 62.6826 58.9511 62.7064C58.9037 62.7365 58.8588 62.7688 58.8088 62.795C58.803 62.7981 58.7392 62.8276 58.7394 62.8287C58.7367 62.8179 58.8215 62.7989 58.7633 62.8176C58.751 62.8216 58.739 62.8263 58.7268 62.8304C58.6738 62.8482 58.6197 62.8626 58.5648 62.8735C58.5522 62.876 58.5389 62.8773 58.5265 62.8804C58.4853 62.8911 58.5659 62.8742 58.5684 62.8756C58.5379 62.8743 58.5074 62.877 58.4776 62.8836C58.421 62.8869 58.3642 62.8868 58.3076 62.8836C58.2945 62.8829 58.2814 62.8816 58.2684 62.8808C58.238 62.879 58.2156 62.8572 58.2561 62.8809C58.2873 62.8992 58.2847 62.8859 58.2571 62.8808C58.2441 62.8784 58.2311 62.8764 58.2182 62.8739C58.1622 62.8635 58.1068 62.8499 58.0522 62.8334C58.0229 62.8245 57.9941 62.8141 57.9652 62.804C57.9526 62.8004 57.9403 62.7956 57.9285 62.7899C57.9283 62.7866 58.0031 62.8256 57.9636 62.8043C57.9138 62.7775 57.8622 62.7551 57.8136 62.7258C57.7876 62.7102 57.7627 62.6932 57.7374 62.6765C57.7263 62.6698 57.7157 62.6622 57.7058 62.6539C57.7067 62.6505 57.7677 62.7069 57.7357 62.6765C57.6952 62.638 57.6518 62.6035 57.6135 62.5625C57.6047 62.5531 57.5964 62.5433 57.5876 62.5339L57.5792 62.5243C57.5575 62.4979 57.5571 62.498 57.578 62.5246C57.5991 62.5309 57.5981 62.554 57.5781 62.5239C57.5709 62.5132 57.5633 62.5028 57.5562 62.4921C57.5238 62.446 57.4962 62.3968 57.4737 62.3452C57.4757 62.3437 57.5083 62.441 57.4833 62.3676C57.4786 62.3537 57.4733 62.3401 57.4687 62.3262C57.4596 62.2986 57.4515 62.2707 57.4445 62.2425C57.4376 62.2146 57.4341 62.1858 57.4271 62.158C57.4154 62.1111 57.434 62.195 57.4319 62.1929C57.4252 62.1863 57.428 62.1457 57.4275 62.136C57.4243 62.0735 57.4315 62.0129 57.4326 61.9508C57.4335 61.9028 57.4286 61.9883 57.4276 61.9858C57.4278 61.9714 57.4304 61.9571 57.4352 61.9435C57.4424 61.9108 57.4491 61.8781 57.458 61.8457C57.4681 61.8087 57.4797 61.772 57.4929 61.7359C57.4978 61.7224 57.5039 61.709 57.5084 61.6954C57.5252 61.6454 57.4752 61.7557 57.5028 61.7107C57.5407 61.6487 57.569 61.5816 57.6093 61.5204C57.6189 61.5058 57.6769 61.425 57.6461 61.4658C57.6154 61.5065 57.6776 61.4294 57.6894 61.4163C57.7384 61.362 57.7959 61.3173 57.8466 61.2653C57.8766 61.2345 57.8257 61.2805 57.8226 61.2826C57.8383 61.2714 57.8537 61.2598 57.8696 61.2489C57.8973 61.2299 57.9257 61.2119 57.9547 61.1949C57.9875 61.1758 58.0245 61.1615 58.0562 61.1413C58.0937 61.1173 58.0275 61.1518 58.0263 61.1525C58.0435 61.144 58.0614 61.1372 58.0798 61.1322C58.1107 61.1212 58.245 61.0634 58.2732 61.0815C58.272 61.0807 58.1712 61.0896 58.2527 61.0843C58.2719 61.0831 58.2911 61.0812 58.3103 61.0804C58.3493 61.0788 58.3882 61.0798 58.4271 61.0818C58.5327 61.0811 58.6338 61.039 58.7085 60.9645C58.7831 60.89 58.8254 60.7892 58.8261 60.6839C58.8238 60.579 58.7811 60.4791 58.7067 60.405C58.6324 60.3308 58.5322 60.2882 58.4271 60.2859Z" fill="#3F3D56"/>
<path d="M46.7702 81.1869L47.126 94.7715L47.4818 108.356C47.5267 110.07 47.2839 112.408 49.0271 113.412C49.7542 113.831 50.6236 113.923 51.4477 113.946C52.5417 113.976 53.6392 113.954 54.7335 113.955L68.3649 113.969C70.156 113.971 72.1231 113.919 73.4063 112.48C74.4774 111.279 74.781 109.614 74.8884 108.061C75.0301 106.01 74.9621 103.934 74.9805 101.88L75.0417 95.0523L75.1029 88.2252C75.1215 86.151 75.2198 84.0601 75.1286 81.9874C75.059 80.4059 74.791 78.7171 73.728 77.4743C72.517 76.0585 70.6022 75.8674 68.8558 75.8116C64.3392 75.6674 59.8218 75.5457 55.3048 75.4128C54.2656 75.3822 53.2235 75.3266 52.1837 75.3403C51.259 75.3224 50.3381 75.4631 49.4612 75.7563C48.0008 76.3016 46.86 77.6098 46.9107 79.2324C46.914 79.5722 46.9892 79.9076 47.1314 80.2164C47.2736 80.5253 47.4796 80.8007 47.7359 81.0247C48.1257 81.3536 48.6929 80.7933 48.3001 80.4619C47.2356 79.5636 47.7512 77.8805 48.6817 77.0833C50.03 75.9283 52.1437 76.1157 53.7878 76.164L66.5835 76.5405C67.5759 76.5697 68.571 76.5795 69.5621 76.6377C70.4469 76.6896 71.3711 76.8043 72.163 77.2293C73.5324 77.9642 74.0669 79.4721 74.2468 80.9304C74.4732 82.7654 74.3369 84.6587 74.3204 86.5018L74.2621 92.9975L74.1469 105.856C74.1329 107.421 74.1571 109.035 73.6295 110.53C73.4027 111.224 72.9875 111.841 72.43 112.314C71.7299 112.821 70.8933 113.106 70.0286 113.133C69.0574 113.211 68.075 113.173 67.1015 113.172L63.7768 113.169L57.3933 113.162L54.0686 113.158C53.0971 113.157 52.1185 113.191 51.1482 113.138C50.4035 113.097 49.5725 112.969 49.0239 112.416C48.4092 111.797 48.3522 110.841 48.324 110.021C48.0302 101.473 47.8754 92.9177 47.6514 84.3677L47.5681 81.1869C47.5547 80.6757 46.7568 80.6737 46.7702 81.1869Z" fill="#3F3D56"/>
<path d="M97.3063 81.1869L97.6621 94.7715L98.0179 108.356C98.0628 110.07 97.8201 112.408 99.5632 113.412C100.29 113.831 101.16 113.923 101.984 113.946C103.078 113.976 104.175 113.954 105.27 113.955L118.901 113.969C120.692 113.971 122.659 113.919 123.942 112.48C125.014 111.279 125.317 109.614 125.424 108.061C125.566 106.01 125.498 103.934 125.517 101.88L125.578 95.0523L125.639 88.2252C125.658 86.151 125.756 84.0601 125.665 81.9874C125.595 80.4059 125.327 78.7171 124.264 77.4743C123.053 76.0585 121.138 75.8674 119.392 75.8116C114.875 75.6674 110.358 75.5457 105.841 75.4128C104.802 75.3822 103.76 75.3266 102.72 75.3403C101.795 75.3224 100.874 75.4631 99.9974 75.7563C98.5369 76.3016 97.3961 77.6098 97.4469 79.2324C97.4502 79.5722 97.5254 79.9076 97.6676 80.2164C97.8098 80.5253 98.0158 80.8007 98.272 81.0247C98.6618 81.3536 99.229 80.7933 98.8363 80.4619C97.7718 79.5636 98.2873 77.8805 99.2178 77.0833C100.566 75.9283 102.68 76.1157 104.324 76.164L117.12 76.5405C118.112 76.5697 119.107 76.5795 120.098 76.6377C120.983 76.6896 121.907 76.8043 122.699 77.2293C124.069 77.9642 124.603 79.4721 124.783 80.9304C125.009 82.7654 124.873 84.6587 124.857 86.5018L124.798 92.9975L124.683 105.856C124.669 107.421 124.693 109.035 124.166 110.53C123.939 111.224 123.524 111.841 122.966 112.314C122.266 112.821 121.429 113.106 120.565 113.133C119.593 113.211 118.611 113.173 117.638 113.172L114.313 113.169L107.929 113.162L104.605 113.158C103.633 113.157 102.655 113.191 101.684 113.138C100.94 113.097 100.109 112.969 99.56 112.416C98.9454 111.797 98.8883 110.841 98.8601 110.021C98.5663 101.473 98.4115 92.9177 98.1876 84.3677L98.1043 81.1869C98.0909 80.6757 97.2929 80.6737 97.3063 81.1869Z" fill="#3F3D56"/>
<path d="M60.5435 116.91C60.2646 116.643 59.9213 116.451 59.5466 116.354C59.1719 116.257 58.7785 116.257 58.4041 116.355C58.0321 116.457 57.6873 116.64 57.3946 116.891C57.1019 117.141 56.8686 117.453 56.7115 117.805C55.9576 119.406 56.633 121.273 57.6746 122.581C58.6426 123.796 60.2151 124.597 61.747 123.959C62.4449 123.66 63.0313 123.151 63.4235 122.502C63.8157 121.854 63.9938 121.099 63.9328 120.344C63.7397 118.566 62.291 117.126 60.5898 116.691C60.0921 116.564 59.8798 117.332 60.3777 117.459C60.9691 117.602 61.5165 117.886 61.9723 118.288C62.4282 118.69 62.7787 119.197 62.9934 119.765C63.1817 120.321 63.1898 120.921 63.0166 121.482C62.8434 122.042 62.4976 122.534 62.0284 122.888C59.6507 124.709 56.931 121.227 57.1976 118.948C57.2261 118.612 57.3317 118.287 57.5062 117.998C57.6808 117.709 57.9196 117.464 58.2043 117.282C58.4815 117.119 58.8038 117.05 59.1235 117.085C59.4433 117.119 59.7434 117.255 59.9793 117.473C60.0549 117.544 60.1551 117.582 60.2586 117.58C60.3621 117.579 60.4609 117.537 60.5341 117.464C60.6073 117.391 60.6492 117.292 60.651 117.189C60.6527 117.086 60.6142 116.986 60.5435 116.91Z" fill="#3F3D56"/>
<path d="M109.291 89.2886C108.36 88.9691 107.279 88.6519 106.316 89.0264C105.407 89.3796 104.906 90.2445 104.808 91.1832C104.698 92.23 105.144 93.2285 105.617 94.1348C106.186 95.225 106.773 96.3062 107.351 97.3915L109.351 101.146C109.397 101.219 109.465 101.276 109.545 101.307C109.626 101.339 109.714 101.344 109.798 101.322C109.881 101.299 109.955 101.25 110.009 101.182C110.062 101.114 110.092 101.031 110.094 100.945C109.981 99.686 110.182 98.4189 110.678 97.2559C111.189 96.0804 112.025 95.0876 112.619 93.9573C113.166 92.9168 113.53 91.723 113.241 90.5502C113.006 89.6017 112.315 88.6787 111.318 88.4579C110.814 88.3308 110.282 88.387 109.816 88.6165C109.35 88.846 108.982 89.2337 108.777 89.7099C108.589 90.1866 109.36 90.3934 109.547 89.9215C109.812 89.2494 110.741 89.0434 111.36 89.3006C112.167 89.6357 112.55 90.5975 112.549 91.4149C112.547 92.5325 111.973 93.5538 111.391 94.4718C110.803 95.3989 110.184 96.2956 109.793 97.3289C109.362 98.4828 109.192 99.7176 109.297 100.945L110.04 100.744C108.741 98.3063 107.371 95.8932 106.146 93.4185C105.674 92.4668 105.25 91.1833 105.973 90.234C106.714 89.2607 108.128 89.7297 109.079 90.056C109.566 90.223 109.775 89.4544 109.291 89.2886Z" fill="#3F3D56"/>
<path d="M58.5058 119.134L59.6807 121.407C59.7214 121.473 59.7804 121.526 59.8506 121.559C59.9208 121.593 59.9991 121.605 60.0762 121.595C60.1532 121.585 60.2257 121.553 60.285 121.503C60.3442 121.453 60.3876 121.386 60.4099 121.312C60.716 119.738 61.4493 118.279 62.53 117.093C62.8757 116.715 62.3129 116.151 61.9657 116.53C60.7867 117.813 59.9826 119.394 59.6405 121.1L60.3697 121.005L59.1948 118.732C58.9594 118.277 58.2706 118.679 58.5058 119.134Z" fill="#3F3D56"/>
<path d="M71.8334 108.64L62.5499 116.819C62.4976 116.865 62.4295 116.89 62.3597 116.887C62.2899 116.885 62.2238 116.856 62.1748 116.806C62.1259 116.756 62.0979 116.69 62.0967 116.62C62.0955 116.55 62.1211 116.483 62.1683 116.432L70.8182 107.011L71.8334 108.64Z" fill="#3F3D56"/>
<path d="M84.2095 208.177H87.8582L89.5947 194.138H84.2095V208.177Z" fill="#FFB6B6"/>
<path d="M82.2837 214.482H84.9004L85.3674 212.018L86.5637 214.482H93.5038C93.8365 214.482 94.1605 214.376 94.4284 214.18C94.6964 213.983 94.8943 213.706 94.9933 213.389C95.0923 213.073 95.0872 212.733 94.9787 212.419C94.8703 212.105 94.6641 211.834 94.3903 211.646L88.8481 207.828V205.337L83.0187 205.684L82.2837 214.482Z" fill="#2F2E41"/>
<path d="M115.464 208.177H119.113L120.849 194.138H115.464V208.177Z" fill="#FFB6B6"/>
<path d="M113.538 214.482H116.154L116.621 212.018L117.818 214.482H124.758C125.09 214.482 125.414 214.376 125.682 214.18C125.95 213.983 126.148 213.706 126.247 213.389C126.346 213.073 126.341 212.733 126.233 212.419C126.124 212.105 125.918 211.834 125.644 211.646L120.102 207.828V205.337L114.273 205.684L113.538 214.482Z" fill="#2F2E41"/>
<path d="M104.918 133.766L86.4121 131.715C86.4121 131.715 78.1873 142.38 81.2716 151.609V161.886L83.5334 202.062L89.188 202.37L90.8329 184.117L92.3751 176.836L93.674 149.096L100.291 157.044L100.908 160.12L102.964 161.556L106.768 166.77L114.582 198.781L121.468 198.883C121.468 198.883 117.769 165.658 117.358 165.658C116.946 165.658 106.666 143.303 106.666 143.303V142.12L106.254 139.816C106.254 139.816 107.282 138.996 106.871 138.585C106.46 138.175 106.049 136.945 106.049 136.945L104.918 133.766Z" fill="#2F2E41"/>
<path d="M98.2351 105.155L101.936 109.257L107.077 111.103L104.198 127.92L105.153 132.756L106.563 138.073C101.13 141.07 94.6775 136.931 88.7493 135.092L82.9165 137.662L83.2249 130.587L83.3831 112.759C83.3892 112.074 83.5363 111.398 83.8153 110.772C84.0943 110.147 84.4992 109.585 85.005 109.122C85.5108 108.659 86.1065 108.304 86.7553 108.081C87.4042 107.857 88.0922 107.769 88.7766 107.821L92.6834 104.95L98.2351 105.155Z" fill="#46CC8F"/>
<path d="M64.6599 112.678C64.6891 112.982 64.7848 113.276 64.9403 113.54C65.0959 113.803 65.3074 114.029 65.5601 114.203C65.8128 114.376 66.1004 114.491 66.4027 114.541C66.7051 114.592 67.0147 114.575 67.31 114.493L71.5532 120.601L72.9959 117.017L68.7452 111.767C68.574 111.281 68.2302 110.875 67.779 110.625C67.3277 110.376 66.8003 110.3 66.2967 110.412C65.7931 110.525 65.3484 110.817 65.0467 111.235C64.745 111.652 64.6074 112.166 64.6599 112.678Z" fill="#FFB8B8"/>
<path d="M86.8773 107.908C86.8773 107.908 81.3542 107.664 81.9726 118.612L79.623 123.422L74.8972 119.023L74.8759 117.622L70.8794 113.167L67.6714 116.704L69.8067 119.96L70.2184 121.779L71.5189 122.571L74.9122 127.746L76.4819 129.287C76.4819 129.287 78.4731 131.266 80.7253 130.968C81.3262 130.89 81.9111 130.719 82.4586 130.46C83.53 129.951 84.5884 129.039 85.4784 127.495C87.3435 124.306 89.0155 121.009 90.4857 117.621L86.8773 107.908Z" fill="#46CC8F"/>
<path d="M111.056 95.5486C110.972 95.8425 110.953 96.1513 111.001 96.4532C111.05 96.7551 111.164 97.0427 111.335 97.2959C111.507 97.5491 111.732 97.7616 111.995 97.9186C112.258 98.0755 112.553 98.173 112.858 98.2042L114.569 105.437L117.225 102.627L115.193 96.1896C115.211 95.6752 115.04 95.1719 114.711 94.7751C114.383 94.3782 113.92 94.1154 113.41 94.0364C112.9 93.9574 112.379 94.0677 111.945 94.3464C111.511 94.6251 111.195 95.0529 111.056 95.5486Z" fill="#FFB8B8"/>
<path d="M99.3018 110.128C99.3018 110.128 102.222 105.445 110.926 112.143L116.232 112.929L115.265 106.554L114.119 105.744L112.694 99.9374L117.433 99.2976L118.919 102.895L120.19 104.262L120.11 105.78L122.471 111.498L122.858 113.66C122.858 113.66 123.369 116.417 121.85 118.102C121.445 118.552 120.973 118.937 120.449 119.241C119.423 119.835 118.07 120.19 116.29 120.049C112.599 119.781 108.927 119.293 105.294 118.587L99.3018 110.128Z" fill="#46CC8F"/>
<path d="M98.8897 103.445C102.341 101.563 103.61 97.2462 101.723 93.8035C99.8362 90.3607 95.5087 89.0955 92.0572 90.9774C88.6056 92.8594 87.3371 97.1759 89.2239 100.619C91.1107 104.061 95.4382 105.327 98.8897 103.445Z" fill="#FFB6B6"/>
<path d="M104.844 94.76C104.823 94.7679 104.804 94.7759 104.783 94.7838C104.743 94.8016 104.701 94.8167 104.658 94.8289C104.386 94.9277 104.103 94.9919 103.815 95.02C103.692 95.0329 103.569 95.0391 103.445 95.0385C103.287 95.0387 103.129 95.028 102.972 95.0067C102.797 94.9849 102.625 94.9494 102.456 94.9006C102.376 94.8789 102.297 94.8533 102.219 94.8236C101.691 94.635 101.214 94.3266 100.825 93.9229C100.437 93.5192 100.147 93.0311 99.9796 92.4969V92.4943C99.9618 92.4421 99.9467 92.3889 99.9344 92.3351C99.8561 92.0363 99.8168 91.7287 99.8174 91.4198V91.4145C99.8173 90.6614 100.055 89.9273 100.496 89.316C100.762 88.9419 101.068 88.88 100.897 88.4511C100.353 87.0828 102.597 85.971 103.919 86.5754C103.967 86.571 104.014 86.5692 104.062 86.5701C104.953 86.5701 105.281 87.8833 105.81 88.6235L105.795 88.6285C105.66 88.6751 105.543 88.7626 105.461 88.8786C105.378 88.9946 105.335 89.1334 105.335 89.2755C105.336 89.4177 105.381 89.5561 105.464 89.6714C105.548 89.7867 105.665 89.8732 105.8 89.9187C106.153 90.0345 106.51 90.1369 106.871 90.226C108.058 91.6316 106.683 95.7315 104.844 94.76Z" fill="#2F2E41"/>
<path d="M104.18 98.5192C103.783 100.013 103.055 101.469 101.85 102.438C100.642 103.406 94.9688 105.693 94.4953 103.722C94.8118 105.099 94.6177 105.624 94.1017 106.115C94.0139 105.995 93.9208 105.881 93.825 105.77C93.4724 105.363 93.0489 105.022 92.575 104.764C92.5605 105.596 92.6184 106.426 92.7478 107.248C92.5352 107.442 92.3328 107.648 92.1414 107.863C91.2318 105.136 89.2309 101.867 90.6918 99.3894C91.2716 98.4062 90.7906 98.2701 90.2796 98.1558C89.3874 97.9562 88.9044 94.3009 88.6943 93.4122C88.4337 92.2979 88.3326 91.0165 89.0268 90.1039C89.721 89.1912 91.4711 89.1567 91.8222 90.2471L92.5616 89.2496C93.5192 87.1617 96.046 87.5861 98.3307 87.8621C100.615 88.1353 102.629 89.743 103.653 91.7991C104.674 93.8552 104.767 96.2986 104.18 98.5192Z" fill="#2F2E41"/>
<path d="M100.601 88.9616C100.549 90.222 100.87 91.4698 101.523 92.5498C102.176 93.6298 103.134 94.4945 104.276 95.0363C104.74 95.2473 105.146 94.5615 104.679 94.349C103.658 93.8764 102.801 93.1119 102.217 92.1527C101.633 91.1935 101.348 90.0828 101.399 88.9616C101.426 88.4498 100.628 88.4514 100.601 88.9616Z" fill="#FF6584"/>
<path d="M69.2841 209.7C69.1421 209.707 69.0016 209.67 68.8815 209.594C68.7615 209.518 68.6677 209.407 68.6128 209.276C68.558 209.146 68.5448 209.001 68.575 208.863C68.6053 208.724 68.6774 208.598 68.7818 208.502L68.8293 208.314C68.823 208.299 68.8167 208.284 68.8104 208.269C68.1724 206.751 64.101 210.981 63.925 212.408C63.8475 213.038 63.8802 213.677 64.0216 214.296C62.7029 211.427 62.018 208.308 62.0136 205.152C62.0134 204.36 62.0575 203.568 62.1458 202.781C62.2188 202.135 62.32 201.495 62.4496 200.859C63.1564 197.407 64.674 194.172 66.8778 191.419C68.1381 191.489 69.2427 191.297 69.3493 188.861C69.3683 188.428 69.6906 188.052 69.7616 187.625C69.6413 187.641 69.519 187.651 69.3986 187.659C69.3612 187.661 69.3217 187.663 69.2842 187.665L69.2701 187.665C69.1379 187.671 69.0067 187.639 68.8925 187.572C68.7782 187.506 68.6858 187.407 68.6262 187.289C68.5666 187.172 68.5424 187.039 68.5566 186.908C68.5708 186.776 68.6227 186.652 68.7062 186.55C68.7581 186.486 68.8101 186.422 68.8621 186.358C68.941 186.26 69.0219 186.164 69.1008 186.065C69.1099 186.056 69.1184 186.046 69.1264 186.036C69.2172 185.924 69.3079 185.813 69.3986 185.701C69.233 185.445 69.0102 185.23 68.7477 185.074C67.8384 184.542 66.5839 184.91 65.927 185.731C65.2682 186.551 65.144 187.702 65.3728 188.727C65.5978 189.599 65.97 190.427 66.4734 191.175C66.4241 191.238 66.3728 191.299 66.3235 191.362C65.4221 192.518 64.6364 193.759 63.9778 195.068C64.1641 193.616 61.8855 188.373 61.0042 187.263C59.9457 185.929 57.7752 186.511 57.5887 188.202C57.5869 188.218 57.5852 188.235 57.5834 188.251C57.7143 188.325 57.8425 188.403 57.9678 188.486C58.1253 188.591 58.2473 188.74 58.3179 188.916C58.3885 189.091 58.4043 189.284 58.3634 189.468C58.3224 189.653 58.2265 189.82 58.0883 189.949C57.9501 190.079 57.776 190.163 57.5888 190.192L57.5696 190.195C55.8176 192.69 61.4342 199.185 62.8401 197.726C62.1784 199.597 61.7633 201.545 61.6053 203.523C61.5159 204.689 61.5212 205.861 61.6211 207.027L61.6152 206.985C61.3028 204.446 55.9439 200.672 54.379 200.986C53.4775 201.167 52.5895 201.126 52.7264 202.033C52.7286 202.047 52.7308 202.062 52.7331 202.076C52.976 202.175 53.2125 202.289 53.4412 202.417C53.5721 202.49 53.7002 202.569 53.8256 202.651C53.9831 202.756 54.1051 202.906 54.1757 203.082C54.2463 203.257 54.2621 203.449 54.2211 203.634C54.1802 203.818 54.0843 203.986 53.9461 204.115C53.8079 204.244 53.6338 204.329 53.4466 204.358L53.4274 204.361C53.4136 204.363 53.4017 204.365 53.388 204.367C52.5904 207.104 58.5048 211.521 62.1004 210.115H62.1024C62.4587 211.66 62.975 213.163 63.6429 214.601H69.1461C69.1659 214.54 69.1836 214.477 69.2014 214.416C68.692 214.448 68.1806 214.418 67.6786 214.326C68.0869 213.826 68.4952 213.322 68.9035 212.823C68.9126 212.813 68.9212 212.804 68.9292 212.793C69.1363 212.537 69.3454 212.284 69.5525 212.028L69.5526 212.028C69.5636 211.244 69.4733 210.461 69.2841 209.7ZM62.9821 197.335L62.985 197.331L62.9821 197.339V197.335ZM61.7631 208.296L61.7158 208.189C61.7178 208.113 61.7178 208.036 61.7158 207.957C61.7158 207.936 61.7119 207.914 61.7119 207.892C61.7296 208.028 61.7454 208.164 61.7651 208.3L61.7631 208.296Z" fill="#46CC8F"/>
<path d="M130.452 214.469H52.7549V215H130.452V214.469Z" fill="#CCCCCC"/>
<path d="M233.127 69.894L233.121 69.8996C232.515 69.2847 231.695 68.9259 230.831 68.8976C229.967 68.8692 229.125 69.1735 228.479 69.7474C227.834 70.3213 227.435 71.1207 227.364 71.9802C227.294 72.8397 227.557 73.6933 228.101 74.3641L228.094 74.3698L232.582 79.39L237.614 74.9141C237.945 74.6203 238.215 74.2644 238.408 73.8666C238.601 73.4689 238.713 73.0371 238.739 72.596C238.764 72.1548 238.703 71.713 238.557 71.2957C238.411 70.8785 238.184 70.4939 237.89 70.1641C237.595 69.8343 237.238 69.5657 236.839 69.3736C236.44 69.1815 236.007 69.0697 235.565 69.0446C235.122 69.0195 234.679 69.0816 234.261 69.2274C233.843 69.3731 233.458 69.5996 233.127 69.894Z" fill="#46CC8F"/>
</g>
<defs>
<clipPath id="clip0_691_3">
<rect width="230" height="181" fill="white" transform="translate(35 34)"/>
</clipPath>
</defs>
</svg>
