<svg width="263" height="200" viewBox="0 0 263 200" fill="none" xmlns="http://www.w3.org/2000/svg">
<g clip-path="url(#clip0_689_103)">
<path d="M262.5 107.386V191.405C262.497 193.684 261.591 195.869 259.98 197.48C258.369 199.091 256.184 199.997 253.905 200H189.458L190.057 199.243L261.743 108.349L262.5 107.386Z" fill="#F2F2F2"/>
<path d="M102.58 77.791H28.5769C27.9705 77.791 27.389 78.0319 26.9602 78.4607C26.5314 78.8894 26.2905 79.471 26.2905 80.0774C26.2905 80.6838 26.5314 81.2653 26.9602 81.6941C27.389 82.1229 27.9705 82.3637 28.5769 82.3637H102.58C103.187 82.3637 103.768 82.1229 104.197 81.6941C104.626 81.2653 104.867 80.6838 104.867 80.0774C104.867 79.471 104.626 78.8894 104.197 78.4607C103.768 78.0319 103.187 77.791 102.58 77.791Z" fill="#E6E6E6"/>
<path d="M51.5218 64.9709H28.5769C27.9705 64.9709 27.389 65.2118 26.9602 65.6406C26.5314 66.0694 26.2905 66.6509 26.2905 67.2573C26.2905 67.8637 26.5314 68.4452 26.9602 68.874C27.389 69.3028 27.9705 69.5437 28.5769 69.5437H51.5218C52.1282 69.5437 52.7097 69.3028 53.1385 68.874C53.5673 68.4452 53.8082 67.8637 53.8082 67.2573C53.8082 66.6509 53.5673 66.0694 53.1385 65.6406C52.7097 65.2118 52.1282 64.9709 51.5218 64.9709Z" fill="#E6E6E6"/>
<path d="M253.905 0H8.5947C6.31608 0.00274363 4.13158 0.909135 2.52036 2.52036C0.909135 4.13158 0.00274363 6.31608 0 8.5947V191.405C0.00274363 193.684 0.909135 195.868 2.52036 197.48C4.13158 199.091 6.31608 199.997 8.5947 200H253.905C256.184 199.997 258.368 199.091 259.98 197.48C261.591 195.868 262.497 193.684 262.5 191.405V8.5947C262.497 6.31608 261.591 4.13158 259.98 2.52036C258.368 0.909135 256.184 0.00274363 253.905 0ZM261.742 191.405C261.742 192.434 261.54 193.454 261.146 194.404C260.752 195.355 260.175 196.219 259.447 196.947C258.719 197.675 257.855 198.252 256.904 198.646C255.954 199.04 254.934 199.242 253.905 199.242H8.5947C6.51616 199.242 4.52276 198.417 3.05302 196.947C1.58327 195.477 0.757576 193.484 0.757576 191.405V59.7256C0.757576 44.0863 6.97026 29.0876 18.0289 18.0289C29.0876 6.97026 44.0863 0.757576 59.7256 0.757576H253.905C254.934 0.757576 255.954 0.96029 256.904 1.35414C257.855 1.74799 258.719 2.32527 259.447 3.05302C260.175 3.78076 260.752 4.64472 261.146 5.59556C261.54 6.5464 261.742 7.56551 261.742 8.5947V191.405Z" fill="#E6E6E6"/>
<path d="M238.595 33.0562H23.9242C23.8237 33.0562 23.7274 33.0163 23.6563 32.9452C23.5853 32.8742 23.5454 32.7778 23.5454 32.6774C23.5454 32.5769 23.5853 32.4806 23.6563 32.4095C23.7274 32.3385 23.8237 32.2986 23.9242 32.2986H238.595C238.695 32.2986 238.792 32.3385 238.863 32.4095C238.934 32.4806 238.974 32.5769 238.974 32.6774C238.974 32.7778 238.934 32.8742 238.863 32.9452C238.792 33.0163 238.695 33.0562 238.595 33.0562Z" fill="#E6E6E6"/>
<path d="M34.6647 21.6848C36.4338 21.6848 37.8679 20.2187 37.8679 18.4101C37.8679 16.6016 36.4338 15.1355 34.6647 15.1355C32.8956 15.1355 31.4614 16.6016 31.4614 18.4101C31.4614 20.2187 32.8956 21.6848 34.6647 21.6848Z" fill="#E6E6E6"/>
<path d="M45.7306 21.6848C47.4997 21.6848 48.9339 20.2187 48.9339 18.4101C48.9339 16.6016 47.4997 15.1355 45.7306 15.1355C43.9615 15.1355 42.5273 16.6016 42.5273 18.4101C42.5273 20.2187 43.9615 21.6848 45.7306 21.6848Z" fill="#E6E6E6"/>
<path d="M56.7965 21.6848C58.5656 21.6848 59.9998 20.2187 59.9998 18.4101C59.9998 16.6016 58.5656 15.1355 56.7965 15.1355C55.0274 15.1355 53.5933 16.6016 53.5933 18.4101C53.5933 20.2187 55.0274 21.6848 56.7965 21.6848Z" fill="#E6E6E6"/>
<path d="M69.4142 20.9983C69.3638 20.9984 69.3138 20.9883 69.2673 20.9688C69.2208 20.9492 69.1787 20.9205 69.1435 20.8844L66.9821 18.6749C66.9128 18.6041 66.874 18.5091 66.874 18.41C66.874 18.311 66.9128 18.216 66.9821 18.1452L69.1435 15.9359C69.1781 15.8998 69.2196 15.8709 69.2655 15.8509C69.3114 15.8309 69.3607 15.8202 69.4108 15.8194C69.4608 15.8186 69.5106 15.8277 69.5571 15.8462C69.6035 15.8648 69.6459 15.8923 69.6817 15.9273C69.7175 15.9623 69.746 16.0041 69.7655 16.0502C69.7851 16.0962 69.7953 16.1457 69.7956 16.1958C69.7959 16.2458 69.7863 16.2955 69.7673 16.3418C69.7483 16.3881 69.7204 16.4302 69.685 16.4656L67.7827 18.41L69.685 20.3547C69.7371 20.408 69.7724 20.4755 69.7863 20.5487C69.8003 20.622 69.7923 20.6977 69.7634 20.7664C69.7345 20.8351 69.6859 20.8938 69.6238 20.935C69.5617 20.9763 69.4888 20.9983 69.4142 20.9983Z" fill="#E6E6E6"/>
<path d="M73.0462 20.9984C72.9717 20.9984 72.8988 20.9764 72.8367 20.9351C72.7746 20.8939 72.726 20.8352 72.6971 20.7665C72.6682 20.6978 72.6602 20.622 72.6742 20.5488C72.6881 20.4756 72.7233 20.4081 72.7755 20.3548L74.6775 18.4101L72.7755 16.4657C72.7064 16.3937 72.6685 16.2973 72.6701 16.1975C72.6717 16.0977 72.7126 16.0025 72.784 15.9327C72.8553 15.8629 72.9513 15.8241 73.0512 15.8247C73.151 15.8253 73.2465 15.8653 73.317 15.936L75.4782 18.1453C75.5475 18.216 75.5863 18.3111 75.5863 18.4101C75.5863 18.5092 75.5475 18.6042 75.4782 18.675L73.317 20.8845C73.2818 20.9206 73.2397 20.9493 73.1932 20.9689C73.1467 20.9884 73.0967 20.9985 73.0462 20.9984Z" fill="#E6E6E6"/>
<path d="M219.452 15.5146H215.433C215.324 15.5146 215.216 15.536 215.115 15.5777C215.014 15.6194 214.923 15.6805 214.846 15.7575C214.769 15.8346 214.708 15.926 214.666 16.0267C214.624 16.1274 214.603 16.2352 214.603 16.3442V20.3669C214.603 20.4759 214.624 20.5837 214.666 20.6844C214.708 20.7851 214.769 20.8765 214.846 20.9536C214.923 21.0306 215.014 21.0917 215.115 21.1334C215.216 21.1751 215.324 21.1965 215.433 21.1965H219.452C219.672 21.1967 219.883 21.1095 220.04 20.954C220.196 20.7984 220.284 20.5873 220.285 20.3669V16.3442C220.284 16.1238 220.196 15.9127 220.04 15.7572C219.883 15.6016 219.672 15.5144 219.452 15.5146Z" fill="#E6E6E6"/>
<path d="M209.603 15.5146H205.584C205.475 15.5146 205.367 15.536 205.266 15.5777C205.166 15.6194 205.074 15.6805 204.997 15.7575C204.92 15.8346 204.859 15.926 204.817 16.0267C204.776 16.1274 204.754 16.2352 204.754 16.3442V20.3669C204.754 20.4759 204.776 20.5837 204.817 20.6844C204.859 20.7851 204.92 20.8765 204.997 20.9536C205.074 21.0306 205.166 21.0917 205.266 21.1334C205.367 21.1751 205.475 21.1965 205.584 21.1965H209.603C209.823 21.1967 210.035 21.1095 210.191 20.954C210.347 20.7984 210.435 20.5873 210.436 20.3669V16.3442C210.435 16.1238 210.347 15.9127 210.191 15.7572C210.035 15.6016 209.823 15.5144 209.603 15.5146Z" fill="#E6E6E6"/>
<path d="M228.732 15.7041H224.713C224.604 15.7041 224.496 15.7255 224.395 15.7672C224.295 15.8089 224.203 15.87 224.126 15.947C224.049 16.024 223.988 16.1155 223.946 16.2162C223.905 16.3168 223.883 16.4247 223.883 16.5336V20.5564C223.883 20.6653 223.905 20.7732 223.946 20.8739C223.988 20.9745 224.049 21.066 224.126 21.143C224.203 21.2201 224.295 21.2812 224.395 21.3228C224.496 21.3645 224.604 21.386 224.713 21.3859H228.732C228.952 21.3861 229.164 21.2989 229.32 21.1434C229.476 20.9879 229.564 20.7768 229.565 20.5564V16.5336C229.564 16.3132 229.476 16.1021 229.32 15.9466C229.164 15.7911 228.952 15.7039 228.732 15.7041Z" fill="#E6E6E6"/>
<path d="M147.322 17.2344H115.197C114.929 17.2344 114.671 17.3409 114.482 17.5306C114.292 17.7203 114.186 17.9775 114.186 18.2457C114.186 18.514 114.292 18.7712 114.482 18.9609C114.671 19.1505 114.929 19.2571 115.197 19.2571H147.322C147.59 19.2571 147.847 19.1505 148.037 18.9609C148.227 18.7712 148.333 18.514 148.333 18.2457C148.333 17.9775 148.227 17.7203 148.037 17.5306C147.847 17.3409 147.59 17.2344 147.322 17.2344Z" fill="#E6E6E6"/>
<path d="M61.2148 155.472L42.0038 154.865C39.3393 154.781 36.343 154.785 34.4426 156.162C32.2856 157.725 32.6122 160.493 34.403 162.289C36.1939 164.085 39.0534 165.111 41.86 165.945C56.7705 170.377 73.2724 171.277 89.2952 170.274C105.318 169.271 121.011 166.436 136.627 163.611C138.108 163.343 139.786 162.958 140.39 161.927C140.975 160.93 140.21 159.728 139.023 159.083C137.835 158.439 136.33 158.222 134.878 158.03C108.572 154.573 81.9814 153.814 55.5213 155.766" fill="#46CC8F"/>
<path d="M95.7313 140.697V136.152C92.4327 136.198 80.6288 136.118 77.5494 136.152C77.3203 152.038 75.9156 148.926 88.9312 148.988C89.5295 148.99 90.1025 149.229 90.5249 149.653C90.9474 150.076 91.1851 150.65 91.1859 151.248V151.316C91.1859 151.916 90.9478 152.49 90.524 152.914C90.1003 153.338 89.5256 153.576 88.9264 153.576H77.5494V158.121H95.7313C95.7568 158.106 95.7129 153.732 95.7313 153.576C96.5001 140.407 94.979 145.143 83.9261 144.615C83.4316 144.59 82.9657 144.376 82.6248 144.016C82.284 143.657 82.0942 143.181 82.0948 142.686V142.629C82.0949 142.116 82.2984 141.625 82.6607 141.263C83.0229 140.901 83.5143 140.697 84.0266 140.697H95.7313Z" fill="#3F3D56"/>
<path d="M118.079 140.697V136.152C114.781 136.198 102.977 136.118 99.8976 136.152C99.6664 152.176 98.2393 148.871 111.622 148.99C112.131 148.996 112.617 149.201 112.975 149.563C113.333 149.925 113.534 150.413 113.534 150.922C113.534 151.161 113.534 151.405 113.534 151.645C113.534 151.898 113.484 152.149 113.387 152.384C113.29 152.618 113.148 152.831 112.968 153.01C112.789 153.19 112.576 153.332 112.341 153.429C112.107 153.526 111.856 153.576 111.602 153.576H99.8976V158.121H118.079C118.105 158.106 118.061 153.732 118.079 153.576C118.848 140.407 117.327 145.143 106.274 144.615C105.78 144.59 105.314 144.376 104.973 144.016C104.632 143.657 104.442 143.181 104.443 142.685V142.629C104.443 142.116 104.647 141.625 105.009 141.263C105.371 140.901 105.862 140.697 106.375 140.697H118.079Z" fill="#3F3D56"/>
<path d="M72.2464 140.697V136.152H54.0646C54.0517 140.206 54.0738 150.936 54.0645 155.091C50.5006 161.125 70.7473 156.947 72.2474 158.123C72.2464 158.121 72.2464 153.576 72.2464 153.576C58.4126 153.504 58.065 156.093 58.51 143.565C58.5368 142.795 58.8611 142.066 59.4146 141.531C59.9681 140.997 60.7076 140.697 61.4773 140.697C65.4767 140.697 72.2464 140.697 72.2464 140.697Z" fill="#3F3D56"/>
<path d="M108.184 101.179L88.9735 100.673C86.309 100.602 83.3127 100.606 81.4123 101.754C79.2553 103.057 79.5819 105.365 81.3728 106.862C83.1636 108.359 86.0231 109.214 88.8297 109.909C103.74 113.603 120.242 114.353 136.265 113.518C152.288 112.682 167.981 110.318 183.597 107.963C185.078 107.74 186.756 107.419 187.36 106.559C187.944 105.728 187.18 104.726 185.992 104.189C184.805 103.652 183.299 103.471 181.847 103.311C155.497 100.428 128.949 99.7969 102.491 101.424" fill="#46CC8F"/>
<path d="M104.822 81.2272C104.513 88.2448 107.092 90.4536 98.193 89.5597C97.5917 85.3733 100.641 79.5636 93.648 81.0386C95.0488 84.0755 89.7454 107.116 98.1919 103.006C98.6663 96.0839 95.5396 93.0478 104.822 94.1068C105.567 98.386 102.092 104.683 109.367 103.196C107.967 100.158 113.27 77.1196 104.822 81.2272Z" fill="#3F3D56"/>
<path d="M151.413 81.2272C152.037 81.6123 145.697 88.3195 145.56 88.8691C145.37 88.4 139.319 81.8379 140.049 81.2274C131.629 77.0664 136.877 100.241 135.502 103.198C135.504 103.197 140.049 103.197 140.049 103.197V88.8036C146.438 97.4209 145.252 95.9708 151.413 88.3805L151.413 103.197C159.833 107.359 154.586 84.1822 155.96 81.2261C155.958 81.2271 151.413 81.2272 151.413 81.2272Z" fill="#3F3D56"/>
<path d="M131.337 81.2273H113.155C112.087 87.5992 115.619 85.4622 119.974 85.7726L119.974 103.197H124.519V85.7727C128.854 85.478 132.419 87.5712 131.337 81.2273Z" fill="#3F3D56"/>
<path d="M164.292 98.6515C163.242 92.8909 163.242 86.9879 164.292 81.2273H159.746C159.773 84.1072 159.738 95.7281 159.741 101.042C159.741 101.616 159.968 102.166 160.373 102.572C160.779 102.978 161.329 103.206 161.902 103.206C166.482 103.212 175.224 103.179 177.928 103.197L177.928 98.6515H164.292Z" fill="#3F3D56"/>
<path d="M48.1747 99.4092H29.6996C28.7955 99.4092 27.9283 99.7684 27.289 100.408C26.6497 101.047 26.2905 101.914 26.2905 102.818C26.2905 103.722 26.6497 104.59 27.289 105.229C27.9283 105.868 28.7955 106.227 29.6996 106.227H48.1747C49.0788 106.227 49.946 105.868 50.5853 105.229C51.2246 104.59 51.5838 103.722 51.5838 102.818C51.5838 101.914 51.2246 101.047 50.5853 100.408C49.946 99.7684 49.0788 99.4092 48.1747 99.4092Z" fill="#E6E6E6"/>
<path d="M215.679 196.049L211.929 196.048L210.145 181.582L215.68 181.583L215.679 196.049Z" fill="#FFB6B6"/>
<path d="M215.811 199.961L204.278 199.96V199.815C204.278 198.624 204.751 197.482 205.593 196.641C206.435 195.799 207.576 195.326 208.767 195.326L210.874 193.728L214.804 195.326L215.811 195.326L215.811 199.961Z" fill="#2F2E41"/>
<path d="M228.936 196.049L225.186 196.048L223.402 181.582L228.937 181.583L228.936 196.049Z" fill="#FFB6B6"/>
<path d="M229.069 199.961L217.536 199.96V199.815C217.536 198.624 218.009 197.482 218.851 196.641C219.692 195.799 220.834 195.326 222.025 195.326L224.132 193.728L228.062 195.326L229.069 195.326L229.069 199.961Z" fill="#2F2E41"/>
<path d="M206.341 117.227C206.341 117.227 202.732 128.31 203.398 129.769C204.064 131.227 205.201 130.091 204.064 131.227C202.928 132.364 201.936 131.156 203 133.085C204.064 135.015 205.676 150.901 206.386 151.67C207.095 152.439 208.07 152.46 207.203 153.207C206.337 153.954 205.201 152.439 206.337 153.954C207.473 155.47 210.489 190.423 210.489 190.423H216.379C216.379 190.423 217.846 188.731 217.016 187.631C216.186 186.53 217.089 186.106 217.016 185.371C216.943 184.636 217.219 183.052 217.271 182.329C217.322 181.606 218.317 164.383 215.926 154.434L220.287 135.49L222.467 158.386C222.467 158.386 220.037 177.591 222.467 183.765C222.467 183.765 220.508 185.397 221.377 186.342C222.246 187.288 223.004 186.53 222.246 187.288C221.489 188.045 223.382 190.697 223.382 190.697L229.822 190.318L233.467 154.434C233.467 154.434 234.081 150.692 233.467 150.05C232.852 149.409 232.852 151.682 232.852 149.409V146.379C232.852 146.379 235.599 127.741 235.551 126.643C235.504 125.545 230.958 117.591 230.958 117.591L206.341 117.227Z" fill="#2F2E41"/>
<path d="M225.386 72.4043L215.984 71.7576L213.17 76.1939L206.394 78.9488V100.803C207.099 102.919 207.463 105.133 207.474 107.364C207.448 111.718 206.329 116.846 206.716 117.97C210.504 128.955 231.337 117.97 231.337 117.97L230.958 106.227L231.473 79.6896L227.215 76.2942L225.386 72.4043Z" fill="#E6E6E6"/>
<path d="M205.959 121.972L205.311 115.062L201.312 114.882L202.257 122.162C202.015 122.52 201.877 122.938 201.859 123.37C201.841 123.802 201.944 124.23 202.157 124.607C202.369 124.983 202.682 125.293 203.061 125.501C203.439 125.71 203.868 125.808 204.3 125.786C204.732 125.764 205.149 125.622 205.504 125.375C205.859 125.129 206.138 124.789 206.311 124.393C206.483 123.996 206.542 123.56 206.479 123.132C206.417 122.704 206.237 122.302 205.959 121.972Z" fill="#FFB6B6"/>
<path d="M207.927 78.366L207.816 78.3847C206.785 78.5595 205.812 78.983 204.982 79.6185C204.151 80.254 203.488 81.0823 203.049 82.0318C201.904 84.5083 198.186 100.788 199.816 103.243C201.08 105.147 200.773 104.776 200.179 106.212C199.584 107.648 198.627 106.116 199.412 108.395C200.196 110.675 201.058 110.35 200.33 111.23C199.602 112.111 198.855 111.939 199.563 113.414C200.271 114.889 200.156 115.387 200.29 115.942C200.424 116.498 200.307 120.405 200.307 120.405C200.307 120.405 204.579 120.081 206.704 121.097C206.704 121.097 205.518 117.151 206.189 116.519C206.86 115.887 207.664 115.811 207.09 114.891C206.515 113.972 205.213 113.933 206.631 113.474C208.048 113.015 207.592 104.778 207.592 104.778C209.926 98.6646 209.004 88.6086 207.927 78.366Z" fill="#E6E6E6"/>
<path d="M233.683 122.465L233.982 115.531L237.966 115.149L237.389 122.468C237.65 122.813 237.809 123.224 237.848 123.655C237.888 124.085 237.806 124.518 237.613 124.905C237.42 125.291 237.123 125.617 236.756 125.844C236.388 126.071 235.964 126.191 235.532 126.191C235.1 126.19 234.677 126.069 234.309 125.841C233.942 125.613 233.646 125.287 233.454 124.9C233.262 124.513 233.181 124.08 233.222 123.65C233.262 123.219 233.422 122.809 233.683 122.465Z" fill="#FFB6B6"/>
<path d="M229.518 79.0139L229.629 79.027C230.668 79.1496 231.661 79.5234 232.523 80.1162C233.384 80.709 234.088 81.5029 234.574 82.4291C235.843 84.8446 239.856 101.205 238.874 103.45C237.957 105.544 237.995 105.029 238.661 106.434C239.327 107.838 240.206 106.259 239.537 108.575C238.869 110.892 237.991 110.61 238.763 111.453C239.535 112.296 240.272 112.086 239.639 113.595C239.006 115.104 239.146 115.595 239.041 116.157C238.935 116.719 239.248 120.615 239.248 120.615C239.248 120.615 234.966 120.507 232.894 121.629C232.894 121.629 233.88 117.628 233.178 117.031C232.477 116.433 231.669 116.398 232.197 115.45C232.724 114.503 234.022 114.399 232.584 114.012C231.145 113.625 231.185 105.376 231.185 105.376L229.518 79.0139Z" fill="#E6E6E6"/>
<path d="M220.916 70.3683C224.966 70.3683 228.25 67.0847 228.25 63.0341C228.25 58.9836 224.966 55.7 220.916 55.7C216.865 55.7 213.582 58.9836 213.582 63.0341C213.582 67.0847 216.865 70.3683 220.916 70.3683Z" fill="#FFB6B6"/>
<path d="M226.019 69.3122C227.039 68.5139 227.139 66.9923 228.009 66.0331C229.464 64.4294 230.148 62.7041 229.386 60.8038C228.711 59.1231 228.855 57.0571 227.402 55.9753C228.116 55.7171 228.284 55.1809 227.654 55.171C227.23 55.1643 225.648 55.9754 226.409 54.965C227.17 53.9545 225.729 54.3534 225.825 53.9398C225.92 53.5262 226.531 53.2971 226.801 53.625C226.573 53.3925 226.295 53.2151 225.989 53.1063C225.682 52.9975 225.355 52.9602 225.032 52.9972C224.708 53.0342 224.398 53.1445 224.124 53.3197C223.85 53.4949 223.619 53.7304 223.45 54.0082C222.592 52.7227 221.682 51.8381 220.369 52.6539C219.08 53.4552 219.097 54.4456 217.71 54.2076C217.059 54.0957 216.997 55.327 216.552 55.8159C216.346 56.0758 216.078 56.28 215.773 56.41C215.469 56.5401 215.136 56.5918 214.806 56.5605C214.156 56.4377 213.659 55.6279 214.023 55.0759L212.492 58.5697L211.875 57.8126C210.894 58.4517 211.216 60.1195 212.203 60.7486C213.191 61.3777 214.473 61.2433 215.61 60.9644C216.979 60.6287 218.392 60.5115 219.797 60.6172C221.943 60.9204 223.438 63.4864 222.643 65.503C223.468 64.6933 224.993 65.3653 225.42 66.4392C225.847 67.5131 225.534 68.7229 225.218 69.8344" fill="#2F2E41"/>
</g>
<defs>
<clipPath id="clip0_689_103">
<rect width="262.5" height="200" fill="white"/>
</clipPath>
</defs>
</svg>
