<svg width="300" height="250" viewBox="0 0 300 250" fill="none" xmlns="http://www.w3.org/2000/svg">
<g clip-path="url(#clip0_691_122)">
<path d="M241.247 122.432H52.9351V127.057H241.247V122.432Z" fill="#E6E6E6"/>
<path d="M58.6794 120.34C59.1406 119.871 59.4286 119.231 59.4286 118.52V107.471C59.4286 106.753 59.1364 106.103 58.6688 105.632C58.4253 105.388 58.1299 105.193 57.8052 105.06C57.5032 104.939 57.1753 104.871 56.8312 104.871C55.3961 104.871 54.2338 106.035 54.2338 107.471V118.52C54.2338 119.171 54.4741 119.765 54.8687 120.221C53.7209 120.815 52.9351 122.012 52.9351 123.395H60.4026C60.4026 122.099 59.711 120.967 58.6794 120.34Z" fill="#3F3D56"/>
<path d="M239.384 119.93C239.928 119.454 240.273 118.756 240.273 117.975V106.926C240.273 105.489 239.11 104.326 237.675 104.326C237.331 104.326 237.003 104.394 236.701 104.514C236.377 104.648 236.081 104.843 235.838 105.086C235.37 105.558 235.078 106.208 235.078 106.926V117.975C235.078 118.702 235.38 119.353 235.859 119.825C234.633 120.391 233.779 121.629 233.779 123.07H241.247C241.247 121.715 240.494 120.537 239.384 119.93Z" fill="#3F3D56"/>
<path d="M57.5552 126.768H52.9351V130.22H57.5552V126.768Z" fill="#E6E6E6"/>
<path d="M60.1363 130.22H55.2435L55.0292 129.57L54.198 127.058L54.1753 126.989L54.8052 126.768L58.5357 125.459L59.0714 127.058L59.9155 129.57L60.1363 130.22Z" fill="#E6E6E6"/>
<path d="M240.006 126.989L239.984 127.058L239.153 129.57L238.938 130.22H234.045L234.266 129.57L235.11 127.058L235.646 125.459L239.377 126.768L240.006 126.989Z" fill="#E6E6E6"/>
<path d="M241.247 126.768H236.626V130.22H241.247V126.768Z" fill="#E6E6E6"/>
<path d="M148.39 35H62.0259V68.4731H148.39V35Z" fill="#3F3D56"/>
<path d="M148.39 35H62.0259V68.4731H148.39V35Z" fill="#3F3D56"/>
<path d="M63.3247 35V67.1732H128.712C138.863 67.1732 147.091 58.937 147.091 48.7772V35H63.3247Z" fill="white"/>
<path d="M255.633 35H45.3669C41.3052 35 38 38.3083 38 42.3738V122.846C38 126.911 41.3052 130.22 45.3669 130.22H255.633C259.695 130.22 263 126.911 263 122.846V42.3738C263 38.3083 259.695 35 255.633 35ZM262.351 122.846C262.351 126.56 259.344 129.57 255.633 129.57H45.3669C41.6558 129.57 38.6494 126.56 38.6494 122.846V42.3738C38.6494 38.6593 41.6558 35.65 45.3669 35.65H211.805C239.721 35.65 262.351 58.3012 262.351 86.2431V122.846Z" fill="#3F3D56"/>
<path d="M155.328 102.996H143.273C142.919 102.996 142.633 103.285 142.633 103.643V122.703H155.974V103.643C155.974 103.285 155.685 102.996 155.328 102.996ZM150.766 112.404C150.766 112.726 150.659 113.018 150.477 113.259C150.218 113.603 149.805 113.827 149.341 113.827C148.88 113.827 148.468 113.603 148.208 113.259C148.026 113.018 147.919 112.726 147.919 112.404V110.191C147.926 109.414 148.562 108.781 149.341 108.781C150.12 108.781 150.76 109.414 150.766 110.191V112.404Z" fill="#2F2E41"/>
<path d="M142.591 122.095V123.931C142.591 124.13 142.75 124.292 142.948 124.292H155.656C155.851 124.292 156.013 124.13 156.013 123.931V122.095H142.591Z" fill="#3F3D56"/>
<path d="M175.292 73.2502H123.76C122.841 73.2502 122.091 74.001 122.091 74.9206V109.726C122.091 110.649 122.841 111.4 123.76 111.4H175.292C176.211 111.4 176.961 110.649 176.961 109.726V74.9206C176.961 74.001 176.211 73.2502 175.292 73.2502Z" fill="#3F3D56"/>
<path d="M174.857 74.4561H124.192C123.699 74.4561 123.299 74.8562 123.299 75.3498V99.3111C123.299 105.295 128.19 110.191 134.168 110.191H174.861C175.352 110.191 175.753 109.789 175.753 109.297V75.353C175.753 74.8597 175.35 74.4561 174.857 74.4561Z" fill="white"/>
<path d="M165.533 124.263L165.146 122.433L165.065 122.04C165.013 121.783 164.786 121.598 164.523 121.598H135.312C135.052 121.598 134.825 121.783 134.77 122.04L134.688 122.433L134.302 124.263C134.27 124.428 134.309 124.597 134.416 124.727C134.52 124.857 134.679 124.932 134.844 124.932H164.99C165.159 124.932 165.315 124.857 165.422 124.727C165.526 124.597 165.568 124.428 165.533 124.263Z" fill="#3F3D56"/>
<path d="M136.336 121.999H135.647C135.581 121.999 135.527 122.052 135.527 122.119V122.436C135.527 122.503 135.581 122.556 135.647 122.556H136.336C136.402 122.556 136.456 122.503 136.456 122.436V122.119C136.456 122.052 136.402 121.999 136.336 121.999Z" fill="#E6E6E6"/>
<path d="M164.168 122.928H163.479C163.413 122.928 163.359 122.982 163.359 123.048V123.366C163.359 123.432 163.413 123.486 163.479 123.486H164.168C164.234 123.486 164.288 123.432 164.288 123.366V123.048C164.288 122.982 164.234 122.928 164.168 122.928Z" fill="#E6E6E6"/>
<path d="M151.726 124.043H144.538C144.472 124.043 144.418 124.097 144.418 124.163V124.481C144.418 124.547 144.472 124.601 144.538 124.601H151.726C151.792 124.601 151.846 124.547 151.846 124.481V124.163C151.846 124.097 151.792 124.043 151.726 124.043Z" fill="#E6E6E6"/>
<path d="M68.4079 98.3372C64.5113 85.4039 64.2673 72.4523 68.8617 59.4766C68.8827 57.8389 70.2241 56.5273 71.8603 56.5446L101.181 56.8876C102.817 56.9086 104.127 58.2513 104.11 59.889L103.656 98.7497C103.635 100.387 102.294 101.699 100.658 101.682L71.3372 101.339C69.7011 101.318 68.3906 99.975 68.4079 98.3372Z" fill="#F2F2F2"/>
<path opacity="0.2" d="M74.4915 99.8766C72.8554 99.8556 71.545 98.513 71.5623 96.8753C67.6657 83.9419 67.4216 70.9904 72.016 58.0147C72.0252 57.4983 72.1705 56.9935 72.4372 56.5514L71.8603 56.5446C70.2241 56.5273 68.8827 57.8389 68.8617 59.4766C64.2673 72.4523 64.5113 85.4039 68.4079 98.3372C68.3906 99.9749 69.701 101.318 71.3371 101.339L100.658 101.682C101.718 101.69 102.702 101.13 103.235 100.213L74.4915 99.8766Z" fill="black"/>
<path d="M96.0891 78.6L76.44 78.4246C75.7889 78.418 75.2664 77.8844 75.273 77.2326C75.2796 76.582 75.811 76.0595 76.461 76.0645L96.1101 76.2398C96.7612 76.2477 97.2826 76.7824 97.2747 77.4341C97.2669 78.0829 96.7373 78.6037 96.0891 78.6Z" fill="white"/>
<path d="M80.8202 71.9916L76.4974 71.953C75.8463 71.9492 75.3215 71.4178 75.3252 70.7661C75.329 70.1144 75.8599 69.589 76.511 69.5928L76.5184 69.5929L80.8412 69.6315C81.4923 69.6393 82.0137 70.174 82.0059 70.8257C81.998 71.4745 81.4684 71.9953 80.8202 71.9916Z" fill="white"/>
<path d="M95.9964 88.9757L76.3474 88.8003C75.6963 88.7925 75.1749 88.2577 75.1827 87.606C75.1905 86.9572 75.7202 86.4365 76.3684 86.4402L96.0174 86.6156C96.6685 86.6193 97.1933 87.1507 97.1896 87.8025C97.1859 88.4542 96.6549 88.9795 96.0038 88.9757L95.9964 88.9757Z" fill="white"/>
<path d="M96.0425 83.7877L76.3935 83.6124C75.7424 83.6073 75.2186 83.0749 75.2237 82.4232C75.2287 81.7715 75.7606 81.2472 76.4117 81.2522L76.4145 81.2523L96.0635 81.4276C96.7146 81.4355 97.2361 81.9702 97.2282 82.6219C97.2204 83.2707 96.6908 83.7915 96.0425 83.7877Z" fill="white"/>
<path d="M75.8356 62.5841C77.2371 62.5841 78.3733 61.4469 78.3733 60.044C78.3733 58.6412 77.2371 57.5039 75.8356 57.5039C74.434 57.5039 73.2979 58.6412 73.2979 60.044C73.2979 61.4469 74.434 62.5841 75.8356 62.5841Z" fill="#3F3D56"/>
<path d="M97.2037 63.2341C98.6053 63.2341 99.7415 62.0968 99.7415 60.6939C99.7415 59.2911 98.6053 58.1538 97.2037 58.1538C95.8022 58.1538 94.666 59.2911 94.666 60.6939C94.666 62.0968 95.8022 63.2341 97.2037 63.2341Z" fill="#3F3D56"/>
<path d="M126.773 79.0131C127.369 79.0131 127.852 78.5192 127.852 77.9099C127.852 77.3006 127.369 76.8066 126.773 76.8066C126.178 76.8066 125.695 77.3006 125.695 77.9099C125.695 78.5192 126.178 79.0131 126.773 79.0131Z" fill="#F2F2F2"/>
<path d="M130.498 79.0131C131.094 79.0131 131.576 78.5192 131.576 77.9099C131.576 77.3006 131.094 76.8066 130.498 76.8066C129.903 76.8066 129.42 77.3006 129.42 77.9099C129.42 78.5192 129.903 79.0131 130.498 79.0131Z" fill="#F2F2F2"/>
<path d="M134.223 79.0131C134.818 79.0131 135.301 78.5192 135.301 77.9099C135.301 77.3006 134.818 76.8066 134.223 76.8066C133.627 76.8066 133.145 77.3006 133.145 77.9099C133.145 78.5192 133.627 79.0131 134.223 79.0131Z" fill="#F2F2F2"/>
<path d="M138.47 78.782C138.437 78.782 138.404 78.7691 138.379 78.7436L137.651 77.9992C137.603 77.9496 137.603 77.8703 137.651 77.8207L138.379 77.0764C138.428 77.0261 138.509 77.0253 138.559 77.0744C138.609 77.1237 138.61 77.2045 138.561 77.2549L137.921 77.91L138.561 78.5651C138.61 78.6155 138.609 78.6963 138.559 78.7456C138.534 78.7699 138.502 78.782 138.47 78.782Z" fill="#F2F2F2"/>
<path d="M139.692 78.7818C139.66 78.7818 139.628 78.7697 139.603 78.7454C139.553 78.6961 139.552 78.6154 139.601 78.565L140.242 77.9098L139.601 77.2547C139.552 77.2044 139.553 77.1236 139.603 77.0743C139.654 77.0249 139.734 77.0258 139.784 77.0763L140.511 77.8206C140.56 77.8702 140.56 77.9494 140.511 77.999L139.784 78.7434C139.759 78.769 139.726 78.7818 139.692 78.7818Z" fill="#F2F2F2"/>
<path d="M169.336 76.9343H167.983C167.829 76.9343 167.704 77.0594 167.704 77.2138V78.5691C167.704 78.7235 167.829 78.8486 167.983 78.8486H169.336C169.49 78.8486 169.617 78.7235 169.617 78.5691V77.2138C169.617 77.0594 169.49 76.9343 169.336 76.9343Z" fill="#F2F2F2"/>
<path d="M166.021 76.9343H164.668C164.514 76.9343 164.389 77.0594 164.389 77.2138V78.5691C164.389 78.7235 164.514 78.8486 164.668 78.8486H166.021C166.175 78.8486 166.302 78.7235 166.302 78.5691V77.2138C166.302 77.0594 166.175 76.9343 166.021 76.9343Z" fill="#F2F2F2"/>
<path d="M172.46 76.9983H171.107C170.953 76.9983 170.828 77.1234 170.828 77.2778V78.633C170.828 78.7875 170.953 78.9125 171.107 78.9125H172.46C172.614 78.9125 172.74 78.7875 172.74 78.633V77.2778C172.74 77.1234 172.614 76.9983 172.46 76.9983Z" fill="#F2F2F2"/>
<path d="M154.621 77.5137H149.418C149.229 77.5137 149.077 77.6668 149.077 77.8544C149.077 78.042 149.229 78.1951 149.418 78.1951H154.621C154.808 78.1951 154.961 78.042 154.961 77.8544C154.961 77.6668 154.808 77.5137 154.621 77.5137Z" fill="#F2F2F2"/>
<path d="M136.406 45.461C135.795 43.4329 135.756 41.4018 136.477 39.367C136.48 39.1102 136.691 38.9045 136.947 38.9073L141.545 38.961C141.802 38.9643 142.007 39.1749 142.004 39.4317L141.933 45.5257C141.93 45.7825 141.72 45.9882 141.463 45.9855L136.865 45.9317C136.609 45.9284 136.403 45.7178 136.406 45.461Z" fill="#F2F2F2"/>
<path opacity="0.2" d="M137.36 45.7024C137.103 45.6991 136.898 45.4886 136.9 45.2318C136.289 43.2036 136.251 41.1726 136.972 39.1378C136.973 39.0568 136.996 38.9776 137.038 38.9083L136.947 38.9073C136.691 38.9045 136.48 39.1102 136.477 39.367C135.756 41.4018 135.795 43.4329 136.406 45.461C136.403 45.7178 136.608 45.9284 136.865 45.9317L141.463 45.9855C141.629 45.9869 141.784 45.899 141.867 45.7552L137.36 45.7024Z" fill="black"/>
<path d="M126.665 45.461C126.054 43.4329 126.016 41.4018 126.737 39.367C126.74 39.1102 126.95 38.9045 127.207 38.9073L131.805 38.961C132.061 38.9643 132.267 39.1749 132.264 39.4317L132.193 45.5257C132.19 45.7825 131.979 45.9882 131.723 45.9855L127.125 45.9317C126.868 45.9284 126.663 45.7178 126.665 45.461Z" fill="#F2F2F2"/>
<path opacity="0.2" d="M127.619 45.7024C127.363 45.6991 127.157 45.4886 127.16 45.2318C126.549 43.2036 126.511 41.1726 127.231 39.1378C127.233 39.0568 127.256 38.9776 127.297 38.9083L127.207 38.9073C126.95 38.9045 126.74 39.1102 126.737 39.367C126.016 41.4018 126.054 43.4329 126.665 45.461C126.663 45.7178 126.868 45.9284 127.125 45.9317L131.723 45.9855C131.889 45.9869 132.043 45.899 132.127 45.7552L127.619 45.7024Z" fill="black"/>
<path d="M118.873 45.461C118.262 43.4329 118.224 41.4018 118.945 39.367C118.948 39.1102 119.158 38.9045 119.415 38.9073L124.013 38.961C124.269 38.9643 124.475 39.1749 124.472 39.4317L124.401 45.5257C124.398 45.7825 124.187 45.9882 123.931 45.9855L119.333 45.9317C119.076 45.9284 118.871 45.7178 118.873 45.461Z" fill="#F2F2F2"/>
<path opacity="0.2" d="M119.827 45.7024C119.571 45.6991 119.365 45.4886 119.368 45.2318C118.757 43.2036 118.719 41.1726 119.439 39.1378C119.441 39.0568 119.464 38.9776 119.505 38.9083L119.415 38.9073C119.158 38.9045 118.948 39.1102 118.945 39.367C118.224 41.4018 118.262 43.4329 118.873 45.461C118.871 45.7178 119.076 45.9284 119.333 45.9317L123.931 45.9855C124.097 45.9869 124.251 45.899 124.335 45.7552L119.827 45.7024Z" fill="black"/>
<path d="M122.042 41.1984C122.536 41.1984 122.936 40.7982 122.936 40.3045C122.936 39.8109 122.536 39.4106 122.042 39.4106C121.549 39.4106 121.149 39.8109 121.149 40.3045C121.149 40.7982 121.549 41.1984 122.042 41.1984Z" fill="#3F3D56"/>
<path d="M129.51 41.1984C130.003 41.1984 130.403 40.7982 130.403 40.3045C130.403 39.8109 130.003 39.4106 129.51 39.4106C129.017 39.4106 128.617 39.8109 128.617 40.3045C128.617 40.7982 129.017 41.1984 129.51 41.1984Z" fill="#3F3D56"/>
<path d="M138.925 41.1984C139.418 41.1984 139.818 40.7982 139.818 40.3045C139.818 39.8109 139.418 39.4106 138.925 39.4106C138.432 39.4106 138.032 39.8109 138.032 40.3045C138.032 40.7982 138.432 41.1984 138.925 41.1984Z" fill="#3F3D56"/>
<path d="M58.7791 107.471V118.52C58.7791 119.238 58.4886 119.887 58.0192 120.358C57.702 120.675 57.1558 120.436 57.1558 119.987V106C57.1558 105.555 57.6964 105.311 58.0121 105.624L58.0194 105.632C58.4869 106.103 58.7791 106.753 58.7791 107.471Z" fill="#46CC8F"/>
<path d="M235.727 106.926V117.975C235.727 118.693 236.018 119.342 236.487 119.813C236.804 120.131 237.35 119.891 237.35 119.442V105.455C237.35 105.01 236.81 104.766 236.494 105.079L236.487 105.087C236.019 105.558 235.727 106.208 235.727 106.926Z" fill="#46CC8F"/>
<path d="M201.312 44.7495H178.909V71.398H201.312V44.7495Z" fill="#3F3D56"/>
<path d="M180.208 70.098H200.013V46.0493H180.208V70.098Z" fill="white"/>
<path d="M190.058 47.9993C188.601 47.9993 187.234 48.3957 186.062 49.0847C184.393 50.0661 183.114 51.6423 182.519 53.524C182.282 54.2779 182.156 55.0774 182.156 55.9093V68.1481H198.065V47.9993H190.058Z" fill="#3F3D56"/>
<path d="M194.228 68.1391H185.078C185.521 66.8826 186.466 65.8625 187.673 65.3249C188.278 65.0528 188.948 64.9006 189.653 64.9006C190.161 64.9006 190.653 64.9784 191.112 65.1273C192.565 65.5839 193.723 66.7077 194.228 68.1391Z" fill="#46CC8F"/>
<path d="M183.454 62.9485C183.006 62.9485 182.568 63.0102 182.156 63.124V68.1482H188.312C188.321 68.0409 188.325 67.9337 188.325 67.8232C188.325 66.91 188.071 66.0521 187.636 65.3241C186.782 63.9007 185.23 62.9485 183.454 62.9485Z" fill="#46CC8F"/>
<path d="M198.065 53.5148V49.3048C197.256 48.696 196.247 48.3333 195.153 48.3333C193.467 48.3333 191.982 49.1947 191.112 50.503C190.653 50.3541 190.161 50.2763 189.653 50.2763C188.948 50.2763 188.278 50.4285 187.673 50.7006C187.663 50.7049 187.654 50.7105 187.645 50.7148C187.642 50.7099 187.639 50.7047 187.636 50.6998C187.244 50.0466 186.705 49.4909 186.062 49.0846C184.393 50.0661 183.114 51.6422 182.52 53.5239H185.081C185.899 55.7342 186.742 57.1423 187.607 57.8913C185.816 58.7285 185.131 60.9517 186.068 62.6986C187.913 66.138 189.35 66.8522 190.581 66.1906C190.401 66.6988 190.3 67.2451 190.3 67.8152C190.3 67.9252 190.303 68.0321 190.313 68.139H198.065V63.929C197.256 63.3201 196.247 62.9574 195.153 62.9574C194.269 62.9574 193.442 63.196 192.728 63.6098L192.744 63.5825C193.744 61.7985 195.608 60.6735 197.652 60.6735H198.065V56.4635C197.256 55.8546 196.247 55.4919 195.153 55.4919C194.123 55.4919 193.169 55.8147 192.384 56.3632L192.415 56.3227C193.776 54.5699 195.847 53.5148 198.065 53.5148Z" fill="#46CC8F"/>
<path d="M189.624 49.6243H189.299V68.1482H189.624V49.6243Z" fill="#3F3D56"/>
<path d="M202.668 209.405L200.205 209.384L199.115 199.654L202.75 199.684L202.668 209.405Z" fill="#FFB6B6"/>
<path d="M194.779 213.325C194.774 213.932 195.263 214.431 195.871 214.437L200.768 214.477L201.625 212.738L201.94 214.486L203.787 214.503L203.321 208.268L202.678 208.225L200.056 208.045L199.21 207.988L199.195 209.752L195.262 212.422C194.963 212.626 194.782 212.963 194.779 213.325Z" fill="#2F2E41"/>
<path d="M229.606 209.405L227.143 209.384L226.053 199.654L229.688 199.684L229.606 209.405Z" fill="#FFB6B6"/>
<path d="M221.717 213.325C221.712 213.932 222.201 214.431 222.809 214.437L227.706 214.477L228.563 212.738L228.878 214.486L230.725 214.503L230.259 208.268L229.616 208.225L226.994 208.045L226.148 207.988L226.133 209.752L222.2 212.422C221.901 212.626 221.72 212.963 221.717 213.325Z" fill="#2F2E41"/>
<path d="M188.996 69.1976C190.032 70.1635 189.935 71.8933 188.795 72.7326L191.603 83.9744L188.688 85.5165L185.45 72.1401C184.881 71.2598 184.962 70.0742 185.715 69.2808C186.598 68.351 188.067 68.3138 188.996 69.1976Z" fill="#FFB6B6"/>
<path d="M203.435 132.655H223.977C223.977 132.655 230.249 141.858 228.818 150.448L225.838 175.86L232.156 205.567L226.077 206.164L215.588 175.86L214.157 157.487L211.535 177.292L203.435 205.269L197.589 205.329L201.046 177.053L202.479 150.41C202.479 150.41 203.355 148.565 202.618 147.836C201.88 147.107 202.727 145.813 202.727 145.813C202.727 145.813 203.856 144.023 202.868 143.179C201.88 142.335 203.435 132.655 203.435 132.655Z" fill="#2F2E41"/>
<path d="M231.182 140.187C231.182 140.187 212.587 135.176 213.303 140.903C213.619 143.438 203.247 141.836 200.046 141.459L203.171 127.899L197.988 141.18C197.044 141.032 196.458 140.917 196.458 140.917L203.29 124.2C203.29 124.2 204.005 107.974 202.539 103.997C201.073 100.019 204.721 98.4299 204.721 98.4299C208.323 95.7544 210.043 93.1114 208.513 90.5247L216.402 91.2047L217.117 95.0893L223.825 98.3583L220.556 117.71C220.556 117.71 220.131 118.18 220.412 118.565C220.693 118.951 220.741 119.258 220.24 119.581C219.739 119.905 219.973 121.165 219.973 121.165C219.973 121.165 219.996 121.944 220.464 121.998C220.931 122.053 220.772 122.521 220.772 122.521C220.772 122.521 220.741 123.467 221.194 123.237C221.498 123.083 228.245 136.068 228.76 135.861C229.275 135.654 229.097 137.185 229.543 137.255C229.99 137.324 229.993 138.056 230.185 138.401C230.8 139.499 231.182 140.187 231.182 140.187Z" fill="#46CC8F"/>
<path d="M210.111 105.01L210.922 97.4377L200.345 94.8804L189.723 75.2844L186.385 76.7161V80.0567C186.385 80.0567 183.525 82.9201 193.173 96.5421L195.921 100.339L210.922 107.39L210.111 105.01Z" fill="#46CC8F"/>
<path d="M201.025 59.9559C200.672 61.3279 201.685 62.7331 203.097 62.8254L206.781 73.8109L210.068 73.5378L205.596 60.5223C205.602 59.474 204.895 58.5189 203.833 58.2568C202.589 57.9497 201.331 58.7104 201.025 59.9559Z" fill="#FFB6B6"/>
<path d="M223.611 101.081C226.306 99.3144 226.637 95.4882 224.286 93.2833L212.943 82.6452C212.943 82.6452 213.371 65.9806 208.962 65.94L208.009 62.9595L202.882 65.4087L203.505 67.8721C203.505 67.8721 203.84 78.066 206.853 81.106C206.907 85.4002 208.705 86.5383 208.705 86.5383L223.611 101.081Z" fill="#46CC8F"/>
<path d="M213.421 90.2262C217.153 90.2262 220.179 87.1974 220.179 83.4612C220.179 79.7251 217.153 76.6963 213.421 76.6963C209.688 76.6963 206.662 79.7251 206.662 83.4612C206.662 87.1974 209.688 90.2262 213.421 90.2262Z" fill="#FFB6B6"/>
<path d="M229.843 101.767C229.794 102.739 229.33 103.671 228.469 104.117C228.197 104.253 227.911 104.357 227.616 104.432C227.606 104.334 227.59 104.24 227.573 104.146C227.304 102.547 226.635 101.023 225.658 99.7356C225.194 99.1247 226.479 102.589 226.804 104.539C226.508 103.948 225.005 100.152 224.908 100.009C224.908 100.015 224.914 100.035 224.927 100.077C225.414 101.549 225.635 103.109 225.599 104.662C223.716 107.35 222.077 108.075 220.567 107.773C221.021 106.544 220.973 105.121 220.359 103.957C220.19 105.101 219.596 106.164 218.745 106.944C218.031 106.447 217.336 105.787 216.645 105.088C217.733 103.779 218.486 102.196 218.797 100.522C219.242 98.1791 218.817 95.68 217.625 93.6163C218.2 97.8052 216.599 102.209 213.551 105.121C212.83 105.01 212.181 104.724 211.892 104.081C211.622 103.476 211.804 102.761 212.145 102.196C212.479 101.63 211.307 98.8973 211.7 98.3708C213.343 96.1803 214.905 95.1275 213.145 93.0313C212.336 92.0662 211.21 91.3251 210.726 90.1617C210.116 88.6961 210.703 87.0224 211.411 85.6056C212.122 84.1854 214.489 84.8483 212.905 84.7182C210.181 84.4973 211.369 82.2842 210.771 81.3613C210.437 80.8445 209.612 80.929 208.995 80.9225C208.778 80.1913 208.473 79.4828 208.09 78.8198C208.187 79.538 208.223 80.2661 208.197 80.9908C207.703 81.0752 206.901 81.904 206.476 82.1704L206.32 82.2451C205.72 81.9006 205.809 81.2566 205.805 80.5612C205.799 79.8657 204.461 79.1996 204.831 78.6113C205.815 77.0547 205.499 76.1778 207.323 75.9405C209.148 75.7033 210.846 75.0111 212.194 76.2655C213.492 73.6657 218.547 75.9601 219.768 76.4507C220.989 76.9447 221.973 77.9912 222.388 79.2391C223.356 82.1314 222.866 83.4638 224.531 86.015C225.957 88.1988 227.973 87.1686 228.918 89.5994C229.512 91.1334 228.804 92.8297 228.174 94.3475C227.544 95.8684 226.242 99.3294 227.866 99.0825C229.249 98.8679 229.921 100.246 229.843 101.767Z" fill="#2F2E41"/>
<path d="M236.222 209.367C236.893 209.409 237.263 208.575 236.756 208.089L236.706 207.888C236.712 207.872 236.719 207.856 236.726 207.84C237.404 206.221 239.703 206.232 240.375 207.853C240.972 209.292 241.732 210.734 241.919 212.256C242.003 212.927 241.966 213.611 241.817 214.271C243.215 211.212 243.952 207.873 243.952 204.514C243.952 203.671 243.905 202.827 243.811 201.985C243.733 201.297 243.626 200.612 243.488 199.934C242.739 196.269 241.118 192.779 238.78 189.863C237.656 189.248 236.719 188.287 236.153 187.135C235.949 186.719 235.79 186.272 235.714 185.816C235.842 185.833 236.197 183.883 236.1 183.763C236.278 183.493 236.598 183.358 236.792 183.094C237.761 181.78 239.095 182.009 239.791 183.795C241.279 184.547 241.293 185.793 240.38 186.992C239.8 187.754 239.72 188.786 239.21 189.603C239.263 189.67 239.317 189.735 239.37 189.802C240.331 191.037 241.162 192.363 241.863 193.757C241.665 192.208 241.958 190.342 242.456 189.139C243.024 187.769 244.088 186.614 245.025 185.429C246.15 184.006 248.458 184.627 248.656 186.431C248.658 186.449 248.66 186.466 248.661 186.484C248.522 186.562 248.386 186.646 248.253 186.734C247.493 187.237 247.756 188.415 248.656 188.554L248.676 188.558C248.626 189.059 248.54 189.557 248.414 190.046C249.616 194.698 247.021 196.393 243.316 196.469C243.234 196.511 243.155 196.553 243.073 196.593C243.448 197.651 243.748 198.736 243.97 199.836C244.17 200.807 244.308 201.79 244.386 202.776C244.482 204.021 244.474 205.272 244.369 206.515L244.375 206.471C244.641 205.102 245.384 203.824 246.462 202.938C248.067 201.618 250.336 201.131 252.068 200.07C252.902 199.559 253.971 200.22 253.825 201.187L253.818 201.234C253.56 201.339 253.308 201.46 253.065 201.597C252.926 201.675 252.79 201.759 252.657 201.847C251.897 202.35 252.16 203.528 253.06 203.667L253.08 203.671C253.095 203.673 253.107 203.675 253.122 203.677C252.679 204.728 252.063 205.704 251.291 206.546C250.54 210.608 247.312 210.993 243.859 209.81H243.857C243.48 211.456 242.928 213.064 242.219 214.596H236.369C236.348 214.531 236.329 214.464 236.31 214.399C236.851 214.432 237.396 214.401 237.929 214.302C237.495 213.769 237.061 213.232 236.627 212.698C236.616 212.688 236.608 212.677 236.599 212.667C236.379 212.394 236.157 212.123 235.937 211.85L235.937 211.85C235.923 211.012 236.023 210.177 236.222 209.367Z" fill="#F2F2F2"/>
<path d="M170.846 214.613C170.846 214.828 171.018 215 171.233 215H253.47C253.684 215 253.856 214.828 253.856 214.613C253.856 214.399 253.684 214.227 253.47 214.227H171.233C171.018 214.227 170.846 214.399 170.846 214.613Z" fill="#CCCCCC"/>
</g>
<defs>
<clipPath id="clip0_691_122">
<rect width="225" height="180" fill="white" transform="translate(38 35)"/>
</clipPath>
</defs>
</svg>
