<svg width="40" height="40" viewBox="0 0 40 40" fill="none" xmlns="http://www.w3.org/2000/svg">
<g id="Group">
<path id="Vector" d="M30.4655 0.797546H9.84127C4.81607 0.797546 0.74234 4.87127 0.74234 9.89647V30.5207C0.74234 35.5459 4.81607 39.6196 9.84127 39.6196H30.4655C35.4907 39.6196 39.5644 35.5459 39.5644 30.5207V9.89647C39.5644 4.87127 35.4907 0.797546 30.4655 0.797546Z" fill="#470137"/>
<path id="Vector_2" d="M21.0995 12.962L16.5501 20.4687L21.4028 28.4302C21.4331 28.4909 21.4483 28.5515 21.4331 28.6122C21.418 28.6729 21.3573 28.6274 21.2663 28.6425H17.7936C17.5509 28.6425 17.3841 28.6274 17.278 28.4757C16.9595 27.8388 16.6259 27.217 16.3074 26.5801C15.989 25.9583 15.6402 25.3214 15.2762 24.6693C14.9123 24.0172 14.5483 23.3652 14.1843 22.6979H14.154C13.8355 23.35 13.4868 24.0021 13.138 24.6542C12.7892 25.3063 12.4404 25.9583 12.1068 26.5953C11.758 27.2322 11.4092 27.8843 11.0604 28.506C10.9997 28.6577 10.8784 28.6729 10.7116 28.6729H7.37531C7.31465 28.6729 7.26916 28.7032 7.26916 28.6274C7.25399 28.5667 7.26916 28.506 7.29949 28.4606L12.0158 20.7265L7.4208 12.9469C7.37531 12.8862 7.36014 12.8256 7.39047 12.7952C7.4208 12.7497 7.48146 12.7346 7.54212 12.7346H10.9846C11.0604 12.7346 11.1362 12.7497 11.1969 12.7649C11.2575 12.7952 11.303 12.8407 11.3485 12.9014C11.6366 13.5535 11.9703 14.2056 12.3191 14.8577C12.683 15.5097 13.0318 16.1467 13.4109 16.7836C13.7749 17.4205 14.1085 18.0574 14.427 18.7095H14.4573C14.7758 18.0423 15.1094 17.3902 15.443 16.7533C15.7767 16.1163 16.1254 15.4794 16.4742 14.8425C16.823 14.2056 17.1567 13.5535 17.4903 12.9317C17.5054 12.8711 17.5358 12.8104 17.5813 12.7801C17.6419 12.7497 17.7026 12.7346 17.7784 12.7497H20.9782C21.054 12.7346 21.1299 12.7801 21.145 12.8559C21.1602 12.8711 21.1299 12.9317 21.0995 12.962ZM28.1057 28.9611C26.9835 28.9763 25.8613 28.7488 24.8452 28.2787C23.8899 27.8389 23.1013 27.111 22.5554 26.2163C21.9943 25.2912 21.7213 24.1387 21.7213 22.7587C21.7061 21.6365 21.9943 20.5295 22.5554 19.5589C23.1316 18.5732 23.9657 17.7543 24.9666 17.2084C26.0281 16.6169 27.302 16.3288 28.8033 16.3288C28.8791 16.3288 28.9853 16.3288 29.1217 16.344C29.2582 16.3591 29.4099 16.3591 29.5919 16.3743V11.5822C29.5919 11.476 29.6373 11.4154 29.7435 11.4154H32.822C32.8978 11.4002 32.9585 11.4609 32.9736 11.5215V25.9888C32.9736 26.2618 32.9888 26.5651 33.004 26.8987C33.0343 27.2172 33.0494 27.5205 33.0646 27.7783C33.0646 27.8844 33.0191 27.9754 32.913 28.0209C32.1244 28.3545 31.2903 28.5972 30.4411 28.7488C29.6677 28.8853 28.8943 28.9611 28.1057 28.9611ZM29.5919 25.9282V19.2556C29.4554 19.2253 29.3189 19.195 29.1824 19.1798C29.0156 19.1646 28.8488 19.1495 28.682 19.1495C28.0905 19.1495 27.4991 19.2708 26.9683 19.5438C26.4527 19.8016 26.0129 20.1807 25.6793 20.666C25.3457 21.1512 25.1789 21.8033 25.1789 22.5919C25.1637 23.1227 25.2547 23.6534 25.4367 24.1539C25.5883 24.5633 25.8158 24.9273 26.1191 25.2306C26.4072 25.5036 26.756 25.7159 27.1503 25.8372C27.5598 25.9737 27.9844 26.0343 28.409 26.0343C28.6365 26.0343 28.8488 26.0192 29.0459 26.004C29.2431 26.0192 29.4099 25.9888 29.5919 25.9282Z" fill="#FF61F6"/>
</g>
</svg>
